<svg width="18" height="16" viewBox="0 0 18 16" fill="none" xmlns="http://www.w3.org/2000/svg">
<path fill-rule="evenodd" clip-rule="evenodd" d="M10.1249 1.42869V0.571849C10.128 0.495989 10.1155 0.420312 10.0883 0.349593C10.0611 0.278874 10.0198 0.214642 9.96694 0.160956C9.91409 0.107271 9.85087 0.0652939 9.78126 0.0376682C9.71164 0.0100426 9.63715 -0.00262735 9.56247 0.000452418H8.43753C8.36285 -0.00262735 8.28836 0.0100426 8.21874 0.0376682C8.14913 0.0652939 8.08591 0.107271 8.03306 0.160956C7.98021 0.214642 7.93888 0.278874 7.91169 0.349593C7.8845 0.420312 7.87202 0.495989 7.87506 0.571849V1.42869H0.562918C0.488261 1.42569 0.413796 1.43841 0.344216 1.46606C0.274637 1.49371 0.211449 1.53569 0.158618 1.58936C0.105786 1.64303 0.0644533 1.70723 0.0372325 1.77792C0.0100116 1.8486 -0.00251069 1.92424 0.000445352 2.00009V2.57148C-0.00258632 2.64734 0.00988577 2.72302 0.0370799 2.79374C0.064274 2.86446 0.105603 2.92868 0.15845 2.98237C0.211297 3.03605 0.274518 3.07803 0.344133 3.10566C0.413747 3.13328 0.488242 3.14596 0.562918 3.14288H7.87506V4.00023C7.8721 4.07607 7.88462 4.15171 7.91184 4.22239C7.93906 4.29308 7.9804 4.35728 8.03323 4.41095C8.08606 4.46462 8.14925 4.5066 8.21883 4.53425C8.28841 4.5619 8.36287 4.57463 8.43753 4.57163H9.56247C9.63713 4.57463 9.71159 4.5619 9.78117 4.53425C9.85075 4.5066 9.91394 4.46462 9.96677 4.41095C10.0196 4.35728 10.0609 4.29308 10.0882 4.22239C10.1154 4.15171 10.1279 4.07607 10.1249 4.00023V3.14288H17.4371C17.5118 3.14596 17.5863 3.13328 17.6559 3.10566C17.7255 3.07803 17.7887 3.03605 17.8416 2.98237C17.8944 2.92868 17.9357 2.86446 17.9629 2.79374C17.9901 2.72302 18.0026 2.64734 17.9996 2.57148V2.00009C18.0025 1.92424 17.99 1.8486 17.9628 1.77792C17.9355 1.70723 17.8942 1.64303 17.8414 1.58936C17.7886 1.53569 17.7254 1.49371 17.6558 1.46606C17.5862 1.43841 17.5117 1.42569 17.4371 1.42869H10.1249ZM5.62517 12.8566V11.9998C5.6282 11.9239 5.61573 11.8483 5.58853 11.7775C5.56134 11.7068 5.52001 11.6426 5.46716 11.5889C5.41432 11.5352 5.35109 11.4932 5.28148 11.4656C5.21187 11.438 5.13737 11.4253 5.0627 11.4284H3.93775C3.86307 11.4253 3.78858 11.438 3.71897 11.4656C3.64935 11.4932 3.58613 11.5352 3.53328 11.5889C3.48044 11.6426 3.43911 11.7068 3.41191 11.7775C3.38472 11.8483 3.37225 11.9239 3.37528 11.9998V12.8566H0.562918C0.488261 12.8536 0.413796 12.8664 0.344216 12.894C0.274637 12.9217 0.211449 12.9636 0.158618 13.0173C0.105786 13.071 0.0644533 13.1352 0.0372325 13.2059C0.0100116 13.2765 -0.00251069 13.3522 0.000445352 13.428V13.9994C-0.00258632 14.0753 0.00988577 14.151 0.0370799 14.2217C0.064274 14.2924 0.105603 14.3566 0.15845 14.4103C0.211297 14.464 0.274518 14.506 0.344133 14.5336C0.413747 14.5612 0.488242 14.5739 0.562918 14.5708H3.37528V15.4282C3.37232 15.504 3.38484 15.5797 3.41207 15.6503C3.43929 15.721 3.48062 15.7852 3.53345 15.8389C3.58628 15.8925 3.64947 15.9345 3.71905 15.9622C3.78863 15.9899 3.86309 16.0026 3.93775 15.9996H5.0627C5.13735 16.0026 5.21181 15.9899 5.28139 15.9622C5.35097 15.9345 5.41416 15.8925 5.46699 15.8389C5.51983 15.7852 5.56115 15.721 5.58837 15.6503C5.61559 15.5797 5.62812 15.504 5.62517 15.4282V14.5708H17.4371C17.5118 14.5739 17.5863 14.5612 17.6559 14.5336C17.7255 14.506 17.7887 14.464 17.8416 14.4103C17.8944 14.3566 17.9357 14.2924 17.9629 14.2217C17.9901 14.151 18.0026 14.0753 17.9996 13.9994V13.428C18.0025 13.3522 17.99 13.2765 17.9628 13.2059C17.9355 13.1352 17.8942 13.071 17.8414 13.0173C17.7886 12.9636 17.7254 12.9217 17.6558 12.894C17.5862 12.8664 17.5117 12.8536 17.4371 12.8566H5.62517ZM14.6247 7.14265V6.28582C14.6278 6.20996 14.6153 6.13428 14.5881 6.06356C14.5609 5.99284 14.5196 5.92861 14.4667 5.87493C14.4139 5.82124 14.3506 5.77926 14.281 5.75164C14.2114 5.72401 14.1369 5.71134 14.0622 5.71442H12.9373C12.8626 5.71134 12.7881 5.72401 12.7185 5.75164C12.6489 5.77926 12.5857 5.82124 12.5328 5.87493C12.48 5.92861 12.4387 5.99284 12.4115 6.06356C12.3843 6.13428 12.3718 6.20996 12.3748 6.28582V7.14265H0.562918C0.488261 7.13965 0.413796 7.15239 0.344216 7.18004C0.274637 7.20769 0.211449 7.24967 0.158618 7.30334C0.105786 7.35701 0.0644533 7.4212 0.0372325 7.49189C0.0100116 7.56257 -0.00251069 7.63821 0.000445352 7.71405V8.28545C-0.00258632 8.36131 0.00988577 8.43698 0.0370799 8.5077C0.064274 8.57842 0.105603 8.64265 0.15845 8.69634C0.211297 8.75002 0.274518 8.792 0.344133 8.81963C0.413747 8.84725 0.488242 8.85992 0.562918 8.85684H12.3748V9.7142C12.3719 9.79004 12.3844 9.86568 12.4116 9.93637C12.4388 10.007 12.4802 10.0712 12.533 10.1249C12.5858 10.1786 12.649 10.2206 12.7186 10.2482C12.7882 10.2759 12.8626 10.2886 12.9373 10.2856H14.0622C14.1369 10.2886 14.2114 10.2759 14.2809 10.2482C14.3505 10.2206 14.4137 10.1786 14.4665 10.1249C14.5194 10.0712 14.5607 10.007 14.5879 9.93637C14.6151 9.86568 14.6277 9.79004 14.6247 9.7142V8.85684H17.4371C17.5118 8.85992 17.5863 8.84725 17.6559 8.81963C17.7255 8.792 17.7887 8.75002 17.8416 8.69634C17.8944 8.64265 17.9357 8.57842 17.9629 8.5077C17.9901 8.43698 18.0026 8.36131 17.9996 8.28545V7.71405C18.0025 7.63821 17.99 7.56257 17.9628 7.49189C17.9355 7.4212 17.8942 7.35701 17.8414 7.30334C17.7886 7.24967 17.7254 7.20769 17.6558 7.18004C17.5862 7.15239 17.5117 7.13965 17.4371 7.14265H14.6247Z" fill="#0BACF0"/>
</svg>
