<svg width="41" height="32" viewBox="0 0 41 32" fill="none" xmlns="http://www.w3.org/2000/svg"><path fill-rule="evenodd" clip-rule="evenodd" d="M3.37503 7.94298e-06C2.93127 -0.00197762 2.49149 0.0839702 2.08112 0.252877C1.67075 0.421783 1.29793 0.670314 0.984134 0.984108C0.67034 1.2979 0.421809 1.67072 0.252902 2.08109C0.0839959 2.49146 -0.00195193 2.93124 3.36332e-05 3.37501V28.125C-0.00195193 28.5688 0.0839959 29.0086 0.252902 29.4189C0.421809 29.8293 0.67034 30.2021 0.984134 30.5159C1.29793 30.8297 1.67075 31.0782 2.08112 31.2471C2.49149 31.416 2.93127 31.502 3.37503 31.5H37.125C37.5688 31.502 38.0086 31.416 38.4189 31.2471C38.8293 31.0782 39.2021 30.8297 39.5159 30.5159C39.8297 30.2021 40.0783 29.8293 40.2472 29.4189C40.4161 29.0086 40.502 28.5688 40.5 28.125V3.37501C40.5039 2.78159 40.3459 2.19833 40.043 1.688C39.745 1.17893 39.3211 0.755043 38.812 0.457009C38.3017 0.154149 37.7185 -0.0038495 37.125 7.94298e-06H3.37503ZM36.703 3.37501C36.7604 3.36682 36.8188 3.37208 36.8737 3.39039C36.9287 3.4087 36.9786 3.43956 37.0195 3.48051C37.0605 3.52145 37.0913 3.57139 37.1097 3.62632C37.128 3.68125 37.1332 3.73968 37.125 3.797V6.75001H3.37503V3.797C3.36684 3.73968 3.3721 3.68125 3.39041 3.62632C3.40873 3.57139 3.43959 3.52145 3.48053 3.48051C3.52148 3.43956 3.57141 3.4087 3.62635 3.39039C3.68128 3.37208 3.73971 3.36682 3.79703 3.37501H36.7H36.703ZM3.80002 28.125C3.7427 28.1332 3.68427 28.1279 3.62934 28.1096C3.5744 28.0913 3.52447 28.0605 3.48352 28.0195C3.44258 27.9786 3.41175 27.9286 3.39344 27.8737C3.37512 27.8188 3.36984 27.7603 3.37802 27.703V15.75H37.128V27.703C37.1362 27.7603 37.131 27.8188 37.1126 27.8737C37.0943 27.9286 37.0635 27.9786 37.0225 28.0195C36.9816 28.0605 36.9317 28.0913 36.8767 28.1096C36.8218 28.1279 36.7634 28.1332 36.706 28.125H3.80002ZM12.659 20.25H7.59702C7.48237 20.2336 7.36549 20.2442 7.25562 20.2808C7.14575 20.3174 7.04591 20.3791 6.96402 20.461C6.88213 20.5429 6.82044 20.6427 6.78382 20.7526C6.74719 20.8625 6.73665 20.9794 6.75302 21.094V23.906C6.73665 24.0207 6.74719 24.1375 6.78382 24.2474C6.82044 24.3573 6.88213 24.4571 6.96402 24.539C7.04591 24.6209 7.14575 24.6826 7.25562 24.7192C7.36549 24.7558 7.48237 24.7664 7.59702 24.75H12.659C12.7737 24.7664 12.8906 24.7558 13.0004 24.7192C13.1103 24.6826 13.2101 24.6209 13.292 24.539C13.3739 24.4571 13.4356 24.3573 13.4723 24.2474C13.5089 24.1375 13.5194 24.0207 13.503 23.906V21.094C13.5194 20.9794 13.5089 20.8625 13.4723 20.7526C13.4356 20.6427 13.3739 20.5429 13.292 20.461C13.2101 20.3791 13.1103 20.3174 13.0004 20.2808C12.8906 20.2442 12.7737 20.2336 12.659 20.25ZM26.159 20.25H16.597C16.4824 20.2336 16.3655 20.2442 16.2556 20.2808C16.1457 20.3174 16.0459 20.3791 15.964 20.461C15.8821 20.5429 15.8204 20.6427 15.7838 20.7526C15.7472 20.8625 15.7366 20.9794 15.753 21.094V23.906C15.7366 24.0207 15.7472 24.1375 15.7838 24.2474C15.8204 24.3573 15.8821 24.4571 15.964 24.539C16.0459 24.6209 16.1457 24.6826 16.2556 24.7192C16.3655 24.7558 16.4824 24.7664 16.597 24.75H26.159C26.2737 24.7664 26.3906 24.7558 26.5004 24.7192C26.6103 24.6826 26.7101 24.6209 26.792 24.539C26.8739 24.4571 26.9356 24.3573 26.9723 24.2474C27.0089 24.1375 27.0194 24.0207 27.003 23.906V21.094C27.0194 20.9794 27.0089 20.8625 26.9723 20.7526C26.9356 20.6427 26.8739 20.5429 26.792 20.461C26.7101 20.3791 26.6103 20.3174 26.5004 20.2808C26.3906 20.2442 26.2737 20.2336 26.159 20.25Z" fill="black"/></svg>
