<svg width="24" height="22" viewBox="0 0 24 22" fill="none" xmlns="http://www.w3.org/2000/svg">
<path fill-rule="evenodd" clip-rule="evenodd" d="M16.6663 15.0389V19.9375H1.99998V4.81271H12.0833C12.1219 4.81388 12.1602 4.80684 12.196 4.79201C12.2318 4.77718 12.2642 4.7549 12.2913 4.72655L13.6246 3.35157C13.6767 3.30487 13.713 3.24216 13.728 3.17265C13.7431 3.10314 13.7361 3.03047 13.7082 2.96534C13.689 2.90156 13.6502 2.846 13.5975 2.80716C13.5449 2.76831 13.4813 2.74832 13.4166 2.75024H1.99998C1.73701 2.74903 1.47641 2.80155 1.23324 2.90477C0.99006 3.00799 0.769116 3.15986 0.583168 3.35163C0.397221 3.54339 0.249955 3.77122 0.149865 4.022C0.0497743 4.27277 -0.00115667 4.54152 1.99303e-05 4.81271V19.9375C-0.00115667 20.2087 0.0497743 20.4774 0.149865 20.7282C0.249955 20.979 0.397221 21.2068 0.583168 21.3986C0.769116 21.5904 0.99006 21.7422 1.23324 21.8454C1.47641 21.9487 1.73701 22.0012 1.99998 22H16.6663C16.9293 22.0012 17.1899 21.9487 17.4331 21.8454C17.6762 21.7422 17.8972 21.5904 18.0831 21.3986C18.2691 21.2068 18.4163 20.979 18.5164 20.7282C18.6165 20.4774 18.6674 20.2087 18.6663 19.9375V13.7073C18.6707 13.6357 18.6536 13.5645 18.6172 13.5034C18.5808 13.4423 18.527 13.3943 18.463 13.366C18.3991 13.3377 18.3283 13.3305 18.2603 13.3455C18.1922 13.3604 18.1304 13.3967 18.0832 13.4494L16.7499 14.8244C16.7224 14.8523 16.7008 14.8858 16.6864 14.9227C16.672 14.9596 16.6652 14.9992 16.6663 15.0389ZM23.9995 4.36171C24.0057 4.03038 23.946 3.70126 23.8243 3.39459C23.7025 3.08792 23.5211 2.81019 23.2913 2.57852L21.4994 0.730548C21.0329 0.257783 20.4036 -0.00484855 19.7495 0.000275516C19.4315 -0.00469119 19.1159 0.0575403 18.822 0.183133C18.5282 0.308725 18.2625 0.495023 18.0411 0.730548L7.08312 12.0317L6.66832 15.8987C6.64066 16.1652 6.67121 16.4348 6.75774 16.6875C6.84426 16.9403 6.98457 17.1698 7.16835 17.3594C7.35214 17.5489 7.57474 17.6936 7.81983 17.7828C8.06492 17.872 8.32628 17.9036 8.58472 17.875L12.3346 17.4473L23.2931 6.14676C23.5229 5.91475 23.704 5.63666 23.8255 5.32965C23.947 5.02265 24.0062 4.69323 23.9995 4.36171ZM11.4167 15.4685L8.70798 15.7698L9.00012 12.9764L16.7499 4.98443L19.1664 7.47651L11.4167 15.4685ZM21.8745 4.68377L20.5827 6.01597L18.1661 3.52389L19.458 2.19169C19.4963 2.14466 19.5441 2.10684 19.5981 2.08089C19.6521 2.05495 19.711 2.04151 19.7705 2.04151C19.8301 2.04151 19.889 2.05495 19.943 2.08089C19.997 2.10684 20.0448 2.14466 20.0831 2.19169L21.8745 4.03906C21.9201 4.07858 21.9568 4.12791 21.9819 4.18359C22.0071 4.23928 22.0201 4.29998 22.0201 4.36141C22.0201 4.42285 22.0071 4.48353 21.9819 4.53922C21.9568 4.5949 21.9201 4.64425 21.8745 4.68377Z" fill="white"/>
</svg>
