<svg width="18" height="20" viewBox="0 0 18 20" fill="none" xmlns="http://www.w3.org/2000/svg">
<path fill-rule="evenodd" clip-rule="evenodd" d="M14.1428 2.50364V0.472947C14.1522 0.409267 14.1462 0.344363 14.1253 0.283337C14.1043 0.222312 14.0691 0.166842 14.0223 0.121357C13.9755 0.0758708 13.9184 0.0416219 13.8557 0.0212799C13.7929 0.000937851 13.7261 -0.0049372 13.6605 0.0041597H12.0537C11.9882 -0.0049372 11.9214 0.000937851 11.8586 0.0212799C11.7958 0.0416219 11.7388 0.0758708 11.692 0.121357C11.6452 0.166842 11.6099 0.222312 11.589 0.283337C11.5681 0.344363 11.5621 0.409267 11.5714 0.472947V2.50364H6.42858V0.472947C6.43794 0.409267 6.43191 0.344363 6.41098 0.283337C6.39005 0.222312 6.3548 0.166842 6.30801 0.121357C6.26121 0.0758708 6.20416 0.0416219 6.14138 0.0212799C6.0786 0.000937851 6.01179 -0.0049372 5.94628 0.0041597H4.33944C4.27392 -0.0049372 4.20713 0.000937851 4.14435 0.0212799C4.08157 0.0416219 4.02452 0.0758708 3.97772 0.121357C3.93093 0.166842 3.89566 0.222312 3.87473 0.283337C3.8538 0.344363 3.8478 0.409267 3.85715 0.472947V2.50364H1.92859C1.67501 2.50253 1.42371 2.55027 1.18921 2.64409C0.954711 2.73791 0.741654 2.87597 0.562344 3.05026C0.383033 3.22456 0.241016 3.43164 0.144498 3.65957C0.0479801 3.88751 -0.00111538 4.13176 1.92256e-05 4.37825V18.1254C-0.00111538 18.3719 0.0479801 18.6161 0.144498 18.8441C0.241016 19.072 0.383033 19.2791 0.562344 19.4534C0.741654 19.6277 0.954711 19.7657 1.18921 19.8595C1.42371 19.9533 1.67501 20.0011 1.92859 20H16.0714C16.325 20.0011 16.5763 19.9533 16.8108 19.8595C17.0453 19.7657 17.2583 19.6277 17.4376 19.4534C17.6169 19.2791 17.759 19.072 17.8555 18.8441C17.952 18.6161 18.0011 18.3719 18 18.1254V4.37825C18.0011 4.13176 17.952 3.88751 17.8555 3.65957C17.759 3.43164 17.6169 3.22456 17.4376 3.05026C17.2583 2.87597 17.0453 2.73791 16.8108 2.64409C16.5763 2.55027 16.325 2.50253 16.0714 2.50364H14.1428ZM2.16973 18.1254C2.13697 18.1299 2.10357 18.127 2.07218 18.1168C2.04078 18.1067 2.01227 18.0895 1.98887 18.0668C1.96547 18.044 1.94784 18.0163 1.93738 17.9858C1.92691 17.9553 1.92391 17.9228 1.92859 17.891V6.25285H16.0714V17.891C16.0761 17.9228 16.0731 17.9553 16.0626 17.9858C16.0521 18.0163 16.0345 18.044 16.0111 18.0668C15.9877 18.0895 15.9592 18.1067 15.9278 18.1168C15.8964 18.127 15.863 18.1299 15.8303 18.1254H2.16973Z" fill="#2A2A2A"/>
</svg>
