<svg width="17" height="20" viewBox="0 0 17 20" fill="none" xmlns="http://www.w3.org/2000/svg">
<path fill-rule="evenodd" clip-rule="evenodd" d="M11.0817 16.2511C11.1435 16.2601 11.2065 16.2542 11.2658 16.2338C11.325 16.2134 11.3788 16.1791 11.4229 16.1336C11.467 16.0881 11.5003 16.0327 11.52 15.9717C11.5398 15.9107 11.5455 15.8458 11.5366 15.7822V7.34444C11.5455 7.28082 11.5398 7.21595 11.5201 7.15498C11.5003 7.094 11.4671 7.03861 11.4229 6.99317C11.3788 6.94772 11.325 6.91347 11.2657 6.89315C11.2065 6.87284 11.1435 6.86699 11.0817 6.8761H10.1723C10.1104 6.86702 10.0474 6.87287 9.98815 6.89319C9.9289 6.9135 9.87506 6.94774 9.83088 6.99317C9.78669 7.03859 9.75338 7.09398 9.73357 7.15494C9.71376 7.21591 9.70801 7.28079 9.71675 7.34444V15.7805C9.70803 15.8442 9.7138 15.9091 9.7336 15.9701C9.75341 16.0311 9.78671 16.0865 9.83088 16.132C9.87505 16.1774 9.92888 16.2117 9.98812 16.2321C10.0474 16.2525 10.1104 16.2584 10.1723 16.2494H11.0833L11.0817 16.2511ZM13.2826 3.1261L11.9921 0.899437C11.8769 0.728022 11.7361 0.576357 11.575 0.449998C11.4028 0.309642 11.2108 0.197227 11.0056 0.116662C10.8116 0.0405326 10.606 0.00101663 10.3984 0H6.60373C6.28174 0.00536935 5.96709 0.0997797 5.69272 0.273336C5.42184 0.425378 5.18831 0.639158 5.00999 0.898335L3.71956 3.125H0.607625C0.527036 3.12171 0.446647 3.13563 0.371538 3.16587C0.296429 3.19612 0.22822 3.24204 0.171191 3.30074C0.114161 3.35945 0.069552 3.42968 0.0401681 3.50699C0.0107842 3.58431 -0.00273315 3.66704 0.000457787 3.75V4.375C-0.00257072 4.45791 0.0110562 4.54058 0.0404975 4.61781C0.0699388 4.69505 0.114557 4.76521 0.171553 4.82388C0.228549 4.88255 0.2967 4.92847 0.371735 4.95878C0.446771 4.98909 0.527078 5.00311 0.607625 5H1.21316V18.125C1.21231 18.3715 1.25885 18.6157 1.35008 18.8436C1.44132 19.0714 1.57545 19.2785 1.74476 19.4528C1.91408 19.6271 2.11522 19.7651 2.3366 19.859C2.55798 19.953 2.79522 20.0009 3.03467 20H13.9637C14.2032 20.001 14.4405 19.9532 14.6619 19.8593C14.8834 19.7655 15.0846 19.6274 15.2539 19.4531C15.4233 19.2788 15.5574 19.0717 15.6486 18.8437C15.7398 18.6158 15.7862 18.3715 15.7852 18.125V5.00278H16.3924C16.4729 5.00606 16.5533 4.99215 16.6284 4.9619C16.7035 4.93165 16.7718 4.88572 16.8288 4.82701C16.8858 4.76831 16.9304 4.6981 16.9598 4.62078C16.9892 4.54347 17.0027 4.46073 16.9995 4.37778V3.75278C17.0028 3.6698 16.9893 3.58702 16.96 3.50967C16.9306 3.43232 16.886 3.36206 16.829 3.30334C16.7719 3.24462 16.7037 3.1987 16.6285 3.16848C16.5534 3.13827 16.473 3.12441 16.3924 3.12778H13.281L13.2826 3.1261ZM6.71761 1.8761H10.2845C10.3233 1.87696 10.3612 1.88817 10.3945 1.90862C10.4278 1.92907 10.4553 1.95807 10.4745 1.99278L11.1572 3.1261H5.84491L6.52764 1.99278C6.54675 1.95803 6.57431 1.92901 6.60762 1.90855C6.64093 1.88809 6.67883 1.8769 6.71761 1.8761ZM3.0363 18.1261V5.00278H13.9653V18.1278H3.0363V18.1261ZM6.83149 16.2511C6.89332 16.2601 6.95635 16.2542 7.01558 16.2338C7.0748 16.2134 7.12861 16.1791 7.17274 16.1336C7.21687 16.0881 7.25013 16.0327 7.26987 15.9717C7.2896 15.9107 7.29529 15.8458 7.28647 15.7822V7.34444C7.29531 7.28082 7.28964 7.21595 7.2699 7.15498C7.25016 7.094 7.21689 7.03861 7.17274 6.99317C7.12859 6.94772 7.07478 6.91347 7.01555 6.89315C6.95631 6.87284 6.89329 6.86699 6.83149 6.8761H5.92047C5.85865 6.86702 5.79562 6.87287 5.73637 6.89319C5.67712 6.9135 5.62328 6.94774 5.57909 6.99317C5.5349 7.03859 5.50159 7.09398 5.48178 7.15494C5.46197 7.21591 5.45622 7.28079 5.46497 7.34444V15.7805C5.45624 15.8442 5.46201 15.9091 5.48181 15.9701C5.50162 16.0311 5.53492 16.0865 5.57909 16.132C5.62326 16.1774 5.67709 16.2117 5.73633 16.2321C5.79558 16.2525 5.85862 16.2584 5.92047 16.2494H6.83149V16.2511Z" fill="#9D0000"/>
</svg>
