<svg width="19" height="19" viewBox="0 0 19 19" fill="none" xmlns="http://www.w3.org/2000/svg">
<path fill-rule="evenodd" clip-rule="evenodd" d="M18.7577 2.13946C18.8321 2.0916 18.8932 2.02586 18.9355 1.94826C18.9778 1.87066 19 1.7837 19 1.69531C19 1.60692 18.9778 1.51994 18.9355 1.44234C18.8932 1.36474 18.8321 1.29901 18.7577 1.25116L17.7483 0.242262C17.7005 0.167948 17.6348 0.106829 17.5572 0.0645039C17.4796 0.0221787 17.3926 0 17.3042 0C17.2158 0 17.1288 0.0221787 17.0512 0.0645039C16.9737 0.106829 16.9079 0.167948 16.8601 0.242262L9.49972 7.56204L2.13993 0.242262C2.09207 0.167948 2.02635 0.106829 1.94875 0.0645039C1.87116 0.0221787 1.78418 0 1.6958 0C1.60741 0 1.52045 0.0221787 1.44286 0.0645039C1.36526 0.106829 1.29952 0.167948 1.25167 0.242262L0.242252 1.25116C0.16794 1.29901 0.106825 1.36474 0.0645013 1.44234C0.0221779 1.51994 0 1.60692 0 1.69531C0 1.7837 0.0221779 1.87066 0.0645013 1.94826C0.106825 2.02586 0.16794 2.0916 0.242252 2.13946L7.56185 9.5L0.242252 16.8605C0.16794 16.9084 0.106825 16.9741 0.0645012 17.0517C0.0221778 17.1293 0 17.2163 0 17.3047C0 17.3931 0.0221778 17.4801 0.0645012 17.5577C0.106825 17.6353 0.16794 17.701 0.242252 17.7488L1.25167 18.7577C1.29952 18.8321 1.36526 18.8932 1.44286 18.9355C1.52045 18.9778 1.60741 19 1.6958 19C1.78418 19 1.87116 18.9778 1.94875 18.9355C2.02635 18.8932 2.09207 18.8321 2.13993 18.7577L9.49972 11.438L16.8601 18.7577C16.9079 18.8321 16.9737 18.8932 17.0512 18.9355C17.1288 18.9778 17.2158 19 17.3042 19C17.3926 19 17.4796 18.9778 17.5572 18.9355C17.6348 18.8932 17.7005 18.8321 17.7483 18.7577L18.7577 17.7488C18.8321 17.701 18.8932 17.6353 18.9355 17.5577C18.9778 17.4801 19 17.3931 19 17.3047C19 17.2163 18.9778 17.1293 18.9355 17.0517C18.8932 16.9741 18.8321 16.9084 18.7577 16.8605L11.4405 9.5L18.7577 2.13946Z" fill="black"/>
</svg>
