<?xml version="1.0" standalone="no"?>
<!DOCTYPE svg PUBLIC "-//W3C//DTD SVG 20010904//EN"
 "http://www.w3.org/TR/2001/REC-SVG-20010904/DTD/svg10.dtd">
<svg version="1.0" xmlns="http://www.w3.org/2000/svg"
 width="72.000000pt" height="65.000000pt" viewBox="0 0 72.000000 65.000000"
 preserveAspectRatio="xMidYMid meet">

<g transform="translate(0.000000,65.000000) scale(0.100000,-0.100000)"
fill="#000000" stroke="none">
<path d="M154 580 c-71 -22 -122 -120 -110 -214 13 -112 109 -231 236 -295 60
-29 63 -30 98 -15 109 45 217 148 251 239 75 201 -79 359 -251 258 -33 -19
-33 -19 -73 4 -48 26 -108 36 -151 23z m134 -61 l61 -30 47 27 c31 19 61 27
90 27 107 0 158 -138 95 -261 -39 -77 -180 -192 -236 -192 -31 0 -123 57 -172
107 -56 58 -83 112 -90 178 -10 92 48 174 123 175 11 0 48 -14 82 -31z"/>
</g>
</svg>
