<svg width="30" height="19" viewBox="0 0 30 19" fill="none" xmlns="http://www.w3.org/2000/svg">
<path fill-rule="evenodd" clip-rule="evenodd" d="M2.4338 18.5062C2.53149 18.6551 2.66299 18.777 2.81675 18.8612C2.97051 18.9455 3.14186 18.9896 3.31589 18.9896C3.48991 18.9896 3.66131 18.9455 3.81507 18.8612C3.96883 18.777 4.10028 18.6551 4.19798 18.5062L12.2955 9.80693C15.4468 6.54909 14.4989 6.51128 17.6927 9.81303L25.7887 18.5123C25.8864 18.6625 26.0183 18.7855 26.1727 18.8706C26.3272 18.9556 26.4995 19.0001 26.6745 19.0001C26.8495 19.0001 27.0219 18.9556 27.1763 18.8706C27.3308 18.7855 27.4627 18.6625 27.5603 18.5123L29.5326 16.365C29.6753 16.2754 29.7932 16.1494 29.8751 15.9991C29.957 15.8487 30 15.679 30 15.5065C30 15.3339 29.957 15.1643 29.8751 15.0139C29.7932 14.8636 29.6753 14.7375 29.5326 14.648L15.8297 0.483402C15.732 0.334519 15.6005 0.212652 15.4468 0.128401C15.293 0.0441491 15.1216 8.45698e-05 14.9476 8.4585e-05C14.7736 8.46002e-05 14.6022 0.0441491 14.4484 0.128401C14.2947 0.212652 14.1632 0.334519 14.0655 0.483402L0.467378 14.648C0.324694 14.7375 0.206752 14.8636 0.124886 15.014C0.0430204 15.1643 -1.19281e-07 15.3339 -1.04196e-07 15.5065C-8.91113e-08 15.679 0.0430205 15.8487 0.124886 15.9991C0.206752 16.1494 0.324694 16.2754 0.467378 16.365L2.4338 18.5062Z" fill="#868686"/>
</svg>
