<svg width="24" height="18" viewBox="0 0 24 18" fill="none" xmlns="http://www.w3.org/2000/svg">
<path fill-rule="evenodd" clip-rule="evenodd" d="M22.9642 16.8832C22.7645 17.0888 22.5247 17.2513 22.2597 17.3605C21.9948 17.4698 21.7102 17.5236 21.4236 17.5185H2.5739C2.28784 17.5195 2.00441 17.4639 1.73995 17.3548C1.47549 17.2458 1.23523 17.0855 1.03303 16.8831C0.830823 16.6808 0.670669 16.4404 0.561801 16.1759C0.452933 15.9113 0.397502 15.6279 0.398707 15.3418V5.45074C0.549466 5.57213 0.783646 5.77631 1.10124 6.06327C1.33621 6.28422 1.58603 6.48881 1.84896 6.67561C2.55871 7.15979 3.63466 7.85922 5.07681 8.7739C6.51896 9.68858 7.58757 10.388 8.28263 10.8722C9.76276 11.9156 11.0013 12.4373 11.9983 12.4373C12.9952 12.4373 14.2337 11.9156 15.7137 10.8722C16.5142 10.3279 17.6584 9.57934 19.1462 8.62656C20.6341 7.67377 21.6347 7.03105 22.1481 6.6984C22.6914 6.35781 23.1802 5.93719 23.598 5.45074V15.3418C23.6031 15.6284 23.5495 15.913 23.4405 16.178C23.3315 16.4431 23.1694 16.6831 22.9642 16.8832ZM22.885 4.00979C22.4609 4.55899 21.9523 5.03752 21.3784 5.42757L15.3292 9.37447C15.2839 9.40498 15.1555 9.49194 14.944 9.63536C14.7324 9.77878 14.5742 9.8846 14.4693 9.95283C14.3633 10.0209 14.2047 10.1192 13.9935 10.2477C13.7822 10.3762 13.605 10.4745 13.4618 10.5428C13.318 10.6107 13.1556 10.6825 12.9746 10.7581C12.8097 10.8289 12.6392 10.8861 12.465 10.929C12.1599 11.0047 11.841 11.0047 11.5359 10.929C11.3616 10.8861 11.1912 10.8289 11.0263 10.7581C10.845 10.6821 10.6826 10.6104 10.5391 10.5428C10.357 10.4534 10.1796 10.3549 10.0074 10.2477C9.79567 10.1196 9.63744 10.0213 9.53276 9.95283C9.42808 9.88435 9.26947 9.77853 9.05694 9.63536L8.67168 9.37447C8.08042 8.98181 7.10124 8.35441 5.73415 7.49226C4.36706 6.6301 3.32864 5.9572 2.6189 5.47352C2.03405 5.07088 1.51772 4.57686 1.08966 4.01036C0.629025 3.41277 0.398707 2.83435 0.398707 2.27511C0.397326 1.98897 0.452622 1.70539 0.561404 1.44074C0.670186 1.17608 0.830302 0.935587 1.03251 0.733132C1.23472 0.530677 1.47502 0.370272 1.73954 0.261166C2.00406 0.152061 2.28757 0.0964179 2.57371 0.0974491H21.4234C21.7139 0.0908721 22.0026 0.146125 22.2701 0.25955C22.5377 0.372975 22.7781 0.541981 22.9754 0.75536C23.1785 0.966083 23.3381 1.21477 23.445 1.48721C23.5518 1.75964 23.604 2.05048 23.5984 2.34308C23.5985 2.85701 23.3607 3.41219 22.885 4.00979Z" fill="#3B60C4"/>
</svg>
