<svg width="6" height="11" viewBox="0 0 6 11" fill="none" xmlns="http://www.w3.org/2000/svg">
<path fill-rule="evenodd" clip-rule="evenodd" d="M3.00008 11C2.49377 11 2.08338 10.5833 2.08338 10.0692V3.17782L1.56487 3.70432C1.20692 4.06778 0.626559 4.06778 0.268461 3.70432C-0.089487 3.34087 -0.089487 2.75157 0.268461 2.38797L2.3518 0.272565C2.39645 0.227124 2.44481 0.187457 2.49562 0.153342C2.54468 0.120526 2.59607 0.0929017 2.64907 0.0705901C2.7572 0.0251428 2.87566 0 3.00006 0C3.12434 0 3.24281 0.0251438 3.3508 0.0705901C3.45904 0.116039 3.5603 0.183327 3.64819 0.272565L5.73154 2.38797C6.08949 2.75154 6.08949 3.34084 5.73154 3.70432C5.37359 4.06781 4.79323 4.06778 4.43513 3.70432L3.91674 3.17782V10.0692C3.91674 10.5833 3.5064 11 3.00008 11Z" fill="#0BACF0"/>
</svg>
