<svg width="26" height="20" viewBox="0 0 26 20" fill="none" xmlns="http://www.w3.org/2000/svg">
<path fill-rule="evenodd" clip-rule="evenodd" d="M2.16668 2.13544e-05C1.8818 -0.00123932 1.59948 0.0533306 1.33603 0.160573C1.07259 0.267814 0.833226 0.425592 0.631779 0.624826C0.430331 0.82406 0.27079 1.06081 0.162357 1.32136C0.0539232 1.58191 -0.00125309 1.86112 2.15916e-05 2.14287V17.8571C-0.00125309 18.1389 0.0539232 18.4181 0.162357 18.6786C0.27079 18.9392 0.430331 19.1759 0.631779 19.3752C0.833226 19.5744 1.07259 19.7322 1.33603 19.8394C1.59948 19.9467 1.8818 20.0012 2.16668 20H23.8333C24.1182 20.0012 24.4005 19.9467 24.664 19.8394C24.9274 19.7322 25.1668 19.5744 25.3682 19.3752C25.5697 19.1759 25.7292 18.9392 25.8376 18.6786C25.9461 18.4181 26.0013 18.1389 26 17.8571V2.14287C26.0013 1.86112 25.9461 1.58191 25.8376 1.32136C25.7292 1.06081 25.5697 0.82406 25.3682 0.624826C25.1668 0.425592 24.9274 0.267814 24.664 0.160573C24.4005 0.0533306 24.1182 -0.00123932 23.8333 2.13544e-05H2.16668ZM13.6773 17.8571C13.7192 17.5315 13.7342 17.203 13.7222 16.8749C13.723 16.5242 13.6443 16.1777 13.492 15.861C13.3397 15.5442 13.1176 15.2652 12.8421 15.0444C12.2484 14.535 11.4837 14.2633 10.6979 14.2825C10.4362 14.3131 10.1788 14.3729 9.93072 14.4609C9.10518 14.6988 8.22816 14.6988 7.40263 14.4609C7.15452 14.3731 6.89717 14.3132 6.63547 14.2825C5.84967 14.2631 5.08492 14.5349 4.49127 15.0444C4.21571 15.2652 3.99362 15.5442 3.84132 15.861C3.68901 16.1777 3.61036 16.5242 3.61113 16.8749C3.59877 17.203 3.6138 17.5315 3.65607 17.8571H2.16668V5.00001H23.8333V17.8571H13.6773ZM21.3059 14.2857C21.3548 14.2922 21.4046 14.2874 21.4513 14.2718C21.4981 14.2562 21.5406 14.2301 21.5755 14.1955C21.6104 14.161 21.6368 14.119 21.6526 14.0728C21.6684 14.0265 21.6732 13.9773 21.6667 13.9289V13.214C21.6732 13.1656 21.6684 13.1163 21.6526 13.0701C21.6368 13.0238 21.6104 12.9818 21.5755 12.9473C21.5406 12.9128 21.4981 12.8867 21.4513 12.871C21.4046 12.8554 21.3548 12.8507 21.3059 12.8571H16.2497C16.2007 12.8507 16.151 12.8554 16.1042 12.871C16.0574 12.8867 16.015 12.9128 15.9801 12.9473C15.9451 12.9818 15.9188 13.0238 15.903 13.0701C15.8871 13.1163 15.8823 13.1656 15.8889 13.214V13.9289C15.8823 13.9773 15.8871 14.0265 15.903 14.0728C15.9188 14.119 15.9451 14.161 15.9801 14.1955C16.015 14.2301 16.0574 14.2562 16.1042 14.2718C16.151 14.2874 16.2007 14.2922 16.2497 14.2857H21.3059ZM21.3059 11.4286C21.3548 11.4351 21.4046 11.4303 21.4513 11.4147C21.4981 11.399 21.5406 11.3729 21.5755 11.3384C21.6104 11.3039 21.6368 11.2619 21.6526 11.2156C21.6684 11.1694 21.6732 11.1201 21.6667 11.0717V10.3568C21.6732 10.3084 21.6684 10.2592 21.6526 10.2129C21.6368 10.1667 21.6104 10.1247 21.5755 10.0902C21.5406 10.0557 21.4981 10.0296 21.4513 10.0139C21.4046 9.99827 21.3548 9.99351 21.3059 10H16.2497C16.2007 9.99351 16.151 9.99827 16.1042 10.0139C16.0574 10.0296 16.015 10.0557 15.9801 10.0902C15.9451 10.1247 15.9188 10.1667 15.903 10.2129C15.8871 10.2592 15.8823 10.3084 15.8889 10.3568V11.0717C15.8823 11.1201 15.8871 11.1694 15.903 11.2156C15.9188 11.2619 15.9451 11.3039 15.9801 11.3384C16.015 11.3729 16.0574 11.399 16.1042 11.4147C16.151 11.4303 16.2007 11.4351 16.2497 11.4286H21.3059ZM21.3059 8.57143C21.3548 8.57792 21.4046 8.57316 21.4513 8.55752C21.4981 8.54188 21.5406 8.51578 21.5755 8.48125C21.6104 8.44673 21.6368 8.40474 21.6526 8.35849C21.6684 8.31224 21.6732 8.26299 21.6667 8.2146V7.4997C21.6732 7.45131 21.6684 7.40206 21.6526 7.35581C21.6368 7.30956 21.6104 7.26756 21.5755 7.23304C21.5406 7.19852 21.4981 7.17241 21.4513 7.15678C21.4046 7.14114 21.3548 7.13638 21.3059 7.14286H16.2497C16.2007 7.13638 16.151 7.14114 16.1042 7.15678C16.0574 7.17241 16.015 7.19852 15.9801 7.23304C15.9451 7.26756 15.9188 7.30956 15.903 7.35581C15.8871 7.40206 15.8823 7.45131 15.8889 7.4997V8.2146C15.8823 8.26299 15.8871 8.31224 15.903 8.35849C15.9188 8.40474 15.9451 8.44673 15.9801 8.48125C16.015 8.51578 16.0574 8.54188 16.1042 8.55752C16.151 8.57316 16.2007 8.57792 16.2497 8.57143H21.3059ZM11.5556 10C11.5649 9.32809 11.3377 8.67389 10.913 8.14938C10.4883 7.62487 9.89244 7.26266 9.22745 7.1248C8.56246 6.98695 7.8697 7.08202 7.26777 7.39371C6.66584 7.70539 6.19219 8.21431 5.92789 8.83336C5.66359 9.45241 5.6251 10.1431 5.81899 10.7871C6.01289 11.4311 6.42711 11.9885 6.99075 12.3637C7.55439 12.7389 8.23239 12.9087 8.90867 12.844C9.58495 12.7793 10.2175 12.484 10.6979 12.0089C10.9718 11.7496 11.1893 11.4376 11.3368 11.0922C11.4843 10.7467 11.5587 10.375 11.5556 10Z" fill="#2A2A2A"/>
</svg>
