<svg xmlns="http://www.w3.org/2000/svg" width="199.593" height="177.593" viewBox="0 0 199.593 177.593">
  <defs>
    <style>
      .cls-1 {
        fill-rule: evenodd;
      }
    </style>
  </defs>
  <path id="start" class="cls-1" d="M340.717,449.7q0.051,21.473,39.633,67.771a5.193,5.193,0,0,0,8.31-.02q39.363-46.488,39.312-67.958a43.628,43.628,0,0,0-87.255.207h0Zm29.085-.069a14.783,14.783,0,1,1,4.352,10.2A13.968,13.968,0,0,1,369.8,449.626Zm-83.016,35.515a11.167,11.167,0,0,0-2.062,6.237l0.2,86.562a5.13,5.13,0,0,0,.7,2.595,5.564,5.564,0,0,0,1.736,1.9,7.722,7.722,0,0,0,2.426,1.033,3.939,3.939,0,0,0,2.769-.352l47.73-21.927L340.1,480.513a88.08,88.08,0,0,1-7.31-16.257l-41.164,16.718A10.246,10.246,0,0,0,286.786,485.141Zm84.926,39.617q-11.46-13.818-20.492-26.613l0.149,63.017,66.532,22-0.2-85.177q-8.978,12.835-20.365,26.71a16.884,16.884,0,0,1-25.622.061h0Zm57.033-41.339,0.236,99.719,48.429-19.5a10.7,10.7,0,0,0,3.457-2.432,11.839,11.839,0,0,0,2.588-3.815,10.783,10.783,0,0,0,.855-4.157l-0.2-86.562a5.083,5.083,0,0,0-1.22-3.459,6.372,6.372,0,0,0-2.775-1.9,5.706,5.706,0,0,0-3.635.182Z" transform="translate(-284.719 -405.969)"/>
</svg>
