<svg width="25" height="20" viewBox="0 0 25 20" fill="none" xmlns="http://www.w3.org/2000/svg">
<path fill-rule="evenodd" clip-rule="evenodd" d="M23.7495 14.375V9.84389C23.7562 9.47336 23.6869 9.1054 23.5458 8.76273C23.4046 8.42007 23.1947 8.10998 22.929 7.85166L19.6479 4.57056C19.3896 4.30484 19.0796 4.09492 18.7369 3.95378C18.3942 3.81265 18.0263 3.74329 17.6558 3.75H16.2497V2.18778C16.2463 1.60858 16.0148 1.05405 15.6052 0.644489C15.1956 0.234926 14.6411 0.00335354 14.0619 0H2.18774C1.60855 0.00335354 1.05403 0.234926 0.644476 0.644489C0.234921 1.05405 0.00335347 1.60858 0 2.18778V14.0622C0.00335347 14.6414 0.234921 15.1959 0.644476 15.6055C1.05403 16.0151 1.60855 16.2466 2.18774 16.25H2.49995C2.49995 17.2446 2.89503 18.1984 3.59828 18.9017C4.30153 19.6049 5.25533 20 6.24988 20C7.24442 20 8.19822 19.6049 8.90147 18.9017C9.60472 18.1984 9.9998 17.2446 9.9998 16.25H14.9997C14.9997 17.2446 15.3948 18.1984 16.098 18.9017C16.8013 19.6049 17.7551 20 18.7496 20C19.7442 20 20.698 19.6049 21.4012 18.9017C22.1045 18.1984 22.4996 17.2446 22.4996 16.25H24.3745C24.4575 16.2534 24.5403 16.2395 24.6176 16.2093C24.695 16.1791 24.7652 16.1332 24.8239 16.0744C24.8827 16.0157 24.9286 15.9455 24.9588 15.8681C24.989 15.7908 25.0029 15.708 24.9995 15.625V15C25.0029 14.917 24.989 14.8342 24.9588 14.7569C24.9286 14.6795 24.8827 14.6093 24.8239 14.5506C24.7652 14.4918 24.695 14.4459 24.6176 14.4157C24.5403 14.3855 24.4575 14.3716 24.3745 14.375H23.7495ZM4.37491 16.25C4.37687 15.8185 4.52825 15.401 4.8033 15.0685C5.07836 14.7361 5.46011 14.5092 5.8836 14.4264C6.30708 14.3437 6.74616 14.4102 7.12612 14.6147C7.50609 14.8192 7.80348 15.149 7.96769 15.548C8.13191 15.9471 8.15281 16.3907 8.02685 16.8034C7.90088 17.2161 7.63582 17.5724 7.27677 17.8117C6.91772 18.051 6.48684 18.1586 6.05745 18.116C5.62806 18.0735 5.22667 17.8835 4.92157 17.5783C4.74452 17.406 4.60467 17.1993 4.51065 16.9708C4.41662 16.7423 4.37043 16.497 4.37491 16.25ZM9.49203 14.375C9.16075 13.8098 8.69002 13.3391 8.12484 13.0078C7.55594 12.6752 6.90883 12.5 6.24988 12.5C5.59092 12.5 4.94381 12.6752 4.37491 13.0078C3.80949 13.3388 3.33868 13.8096 3.00772 14.375H2.18774C2.1453 14.3808 2.1021 14.3767 2.06151 14.363C2.02093 14.3493 1.98406 14.3265 1.95377 14.2962C1.92349 14.2659 1.90062 14.229 1.88695 14.1884C1.87328 14.1478 1.86917 14.1047 1.87496 14.0622V2.18778C1.86917 2.14535 1.87328 2.10214 1.88695 2.06156C1.90062 2.02097 1.92349 1.9841 1.95377 1.95381C1.98406 1.92353 2.02093 1.90066 2.06151 1.88699C2.1021 1.87332 2.1453 1.86921 2.18774 1.875H14.0619C14.1044 1.86921 14.1476 1.87332 14.1882 1.88699C14.2287 1.90066 14.2656 1.92353 14.2959 1.95381C14.3262 1.9841 14.3491 2.02097 14.3627 2.06156C14.3764 2.10214 14.3805 2.14535 14.3747 2.18778V14.375H9.49203ZM17.6558 5.625C17.7796 5.62271 17.9027 5.64578 18.0173 5.69278C18.132 5.73979 18.2358 5.80974 18.3224 5.89834L21.1735 8.75H16.2497V5.625H17.6558ZM16.8747 16.25C16.8766 15.8185 17.028 15.401 17.3031 15.0685C17.5781 14.7361 17.9599 14.5092 18.3833 14.4264C18.8068 14.3437 19.2459 14.4102 19.6259 14.6147C20.0058 14.8192 20.3032 15.149 20.4674 15.548C20.6317 15.9471 20.6526 16.3907 20.5266 16.8034C20.4006 17.2161 20.1356 17.5724 19.7765 17.8117C19.4175 18.051 18.9866 18.1586 18.5572 18.116C18.1278 18.0735 17.7264 17.8835 17.4213 17.5783C17.2443 17.406 17.1044 17.1993 17.0104 16.9708C16.9164 16.7423 16.8702 16.497 16.8747 16.25ZM18.7496 12.5C17.8225 12.4961 16.9286 12.8453 16.2497 13.4767V10.625H21.8746V14.1806C21.545 13.6528 21.0833 13.2203 20.5352 12.9257C19.9871 12.6311 19.3716 12.4848 18.7496 12.5011V12.5Z" fill="#2A2A2A"/>
</svg>
