<svg width="25" height="20" viewBox="0 0 25 20" fill="none" xmlns="http://www.w3.org/2000/svg">
<path fill-rule="evenodd" clip-rule="evenodd" d="M23.7497 14.375V9.84389C23.7564 9.47336 23.687 9.10538 23.5459 8.76272C23.4048 8.42005 23.1949 8.10998 22.9292 7.85166L19.6485 4.57055C19.3902 4.30483 19.0801 4.09493 18.7375 3.95379C18.3949 3.81265 18.027 3.74329 17.6565 3.75H16.2505V2.18777C16.2472 1.60857 16.0156 1.05406 15.6061 0.644497C15.1966 0.234934 14.6422 0.00335354 14.063 0H4.68969C4.11056 0.00335354 3.55609 0.234934 3.14658 0.644497C2.73706 1.05406 2.50552 1.60857 2.50217 2.18777V3.75H0.314646C0.272311 3.74432 0.229239 3.74849 0.188776 3.76217C0.148313 3.77586 0.111553 3.7987 0.0813497 3.82891C0.0511468 3.85911 0.0283163 3.89586 0.0146343 3.93633C0.0009523 3.97679 -0.00321252 4.01989 0.00246263 4.06223V4.68777C-0.00321252 4.73011 0.0009523 4.77321 0.0146343 4.81367C0.0283163 4.85414 0.0511468 4.89089 0.0813497 4.9211C0.111553 4.9513 0.148313 4.97414 0.188776 4.98783C0.229239 5.00151 0.272311 5.00568 0.314646 5H9.6891C9.73143 5.00568 9.7745 5.00151 9.81497 4.98783C9.85543 4.97414 9.89219 4.9513 9.92239 4.9211C9.9526 4.89089 9.97543 4.85414 9.98911 4.81367C10.0028 4.77321 10.007 4.73011 10.0013 4.68777V4.06223C10.007 4.01989 10.0028 3.97679 9.98911 3.93633C9.97543 3.89586 9.9526 3.85911 9.92239 3.82891C9.89219 3.7987 9.85543 3.77586 9.81497 3.76217C9.7745 3.74849 9.73143 3.74432 9.6891 3.75H4.37695V2.18777C4.37116 2.14534 4.37526 2.10215 4.38893 2.06156C4.4026 2.02098 4.42547 1.98409 4.45575 1.9538C4.48603 1.92352 4.5229 1.90064 4.56348 1.88697C4.60406 1.8733 4.64726 1.86921 4.68969 1.875H14.063C14.1054 1.86921 14.1486 1.8733 14.1892 1.88697C14.2298 1.90064 14.2667 1.92352 14.297 1.9538C14.3272 1.98409 14.3501 2.02098 14.3638 2.06156C14.3774 2.10215 14.3816 2.14534 14.3758 2.18777V14.375H9.49356C9.16231 13.8098 8.69162 13.3391 8.1265 13.0078C7.55944 12.671 6.91121 12.4954 6.25172 12.5C5.59311 12.5021 4.94661 12.6772 4.37695 13.0078V11.25H2.50217V16.25C2.50217 17.2446 2.89721 18.1984 3.60039 18.9016C4.30357 19.6049 5.25728 20 6.25172 20C7.24617 20 8.19988 19.6049 8.90306 18.9016C9.60623 18.1984 10.0013 17.2446 10.0013 16.25H15.0007C15.0007 17.2446 15.3957 18.1984 16.0989 18.9016C16.8021 19.6049 17.7558 20 18.7502 20C19.7447 20 20.6984 19.6049 21.4016 18.9016C22.1048 18.1984 22.4998 17.2446 22.4998 16.25H24.3746C24.4575 16.2534 24.5403 16.2395 24.6177 16.2093C24.695 16.1791 24.7652 16.1331 24.824 16.0744C24.8827 16.0157 24.9286 15.9454 24.9588 15.8681C24.989 15.7907 25.0029 15.708 24.9995 15.625V15C25.0029 14.917 24.989 14.8343 24.9588 14.7569C24.9286 14.6796 24.8827 14.6093 24.824 14.5506C24.7652 14.4919 24.695 14.4459 24.6177 14.4157C24.5403 14.3855 24.4575 14.3716 24.3746 14.375H23.7497ZM4.37695 16.25C4.3789 15.8185 4.53026 15.401 4.80529 15.0685C5.08032 14.7361 5.46203 14.5091 5.88548 14.4264C6.30893 14.3437 6.74795 14.4102 7.12788 14.6147C7.50781 14.8192 7.80517 15.149 7.96937 15.548C8.13357 15.9471 8.15447 16.3907 8.02852 16.8034C7.90256 17.2161 7.63754 17.5724 7.27852 17.8117C6.9195 18.051 6.48867 18.1586 6.05932 18.116C5.62997 18.0735 5.22862 17.8835 4.92354 17.5783C4.74651 17.406 4.60668 17.1993 4.51266 16.9708C4.41865 16.7423 4.37246 16.497 4.37695 16.25ZM17.6565 5.625C17.7804 5.62271 17.9034 5.64578 18.018 5.69278C18.1327 5.73979 18.2365 5.80974 18.3231 5.89834L21.1739 8.75H16.2505V5.625H17.6565ZM16.8755 16.25C16.8774 15.8185 17.0288 15.401 17.3038 15.0685C17.5788 14.7361 17.9606 14.5091 18.384 14.4264C18.8074 14.3437 19.2465 14.4102 19.6264 14.6147C20.0063 14.8192 20.3037 15.149 20.4679 15.548C20.6321 15.9471 20.653 16.3907 20.527 16.8034C20.4011 17.2161 20.1361 17.5724 19.777 17.8117C19.418 18.051 18.9872 18.1586 18.5578 18.116C18.1285 18.0735 17.7271 17.8835 17.4221 17.5783C17.245 17.406 17.1052 17.1993 17.0112 16.9708C16.9172 16.7423 16.871 16.497 16.8755 16.25ZM18.7502 12.5C17.8232 12.4961 16.9294 12.8453 16.2505 13.4767V10.625H21.8749V14.1806C21.5453 13.6528 21.0837 13.2202 20.5356 12.9257C19.9876 12.6311 19.3722 12.4848 18.7502 12.5011V12.5ZM10.0013 9.06223C10.007 9.01989 10.0028 8.97679 9.98911 8.93633C9.97543 8.89586 9.9526 8.85911 9.92239 8.82891C9.89219 8.7987 9.85543 8.77586 9.81497 8.76217C9.7745 8.74849 9.73143 8.74432 9.6891 8.75H0.314646C0.272311 8.74432 0.229239 8.74849 0.188776 8.76217C0.148313 8.77586 0.111553 8.7987 0.0813497 8.82891C0.0511468 8.85911 0.0283163 8.89586 0.0146343 8.93633C0.0009523 8.97679 -0.00321252 9.01989 0.00246263 9.06223V9.68777C-0.00321252 9.73011 0.0009523 9.77321 0.0146343 9.81367C0.0283163 9.85414 0.0511468 9.89089 0.0813497 9.9211C0.111553 9.9513 0.148313 9.97414 0.188776 9.98783C0.229239 10.0015 0.272311 10.0057 0.314646 10H9.6891C9.73143 10.0057 9.7745 10.0015 9.81497 9.98783C9.85543 9.97414 9.89219 9.9513 9.92239 9.9211C9.9526 9.89089 9.97543 9.85414 9.98911 9.81367C10.0028 9.77321 10.007 9.73011 10.0013 9.68777V9.06223ZM11.2511 7.18777V6.56223C11.2568 6.51989 11.2526 6.47679 11.239 6.43633C11.2253 6.39586 11.2024 6.35911 11.1722 6.32891C11.142 6.2987 11.1053 6.27586 11.0648 6.26217C11.0244 6.24849 10.9813 6.24432 10.9389 6.25H1.5645C1.52216 6.24432 1.47909 6.24849 1.43863 6.26217C1.39817 6.27586 1.3614 6.2987 1.3312 6.32891C1.301 6.35911 1.27817 6.39586 1.26449 6.43633C1.2508 6.47679 1.24664 6.51989 1.25231 6.56223V7.18777C1.24664 7.23011 1.2508 7.27321 1.26449 7.31367C1.27817 7.35414 1.301 7.39089 1.3312 7.4211C1.3614 7.4513 1.39817 7.47414 1.43863 7.48783C1.47909 7.50151 1.52216 7.50568 1.5645 7.5H10.9389C10.9813 7.50568 11.0244 7.50151 11.0648 7.48783C11.1053 7.47414 11.142 7.4513 11.1722 7.4211C11.2024 7.39089 11.2253 7.35414 11.239 7.31367C11.2526 7.27321 11.2568 7.23011 11.2511 7.18777Z" fill="#2A2A2A"/>
</svg>
