<svg width="19" height="20" viewBox="0 0 19 20" fill="none" xmlns="http://www.w3.org/2000/svg">
<path fill-rule="evenodd" clip-rule="evenodd" d="M18.4934 8.51118C18.6834 8.41384 18.8345 8.25226 18.9209 8.05398C19.0072 7.8557 19.0235 7.633 18.9668 7.42387C18.5077 5.73287 17.624 4.19332 16.4031 2.95734C16.2646 2.79261 16.0718 2.68531 15.8611 2.65568C15.6503 2.62606 15.4363 2.67616 15.2593 2.79653L14.0363 3.52102C13.6235 3.2306 13.1882 2.97491 12.7348 2.75648V1.3075C12.7323 1.087 12.6557 0.874062 12.5177 0.704331C12.3954 0.533052 12.2226 0.406124 12.0246 0.34208C10.3713 -0.114027 8.62897 -0.114027 6.97571 0.34208C6.76201 0.386432 6.57168 0.509208 6.44078 0.687137C6.30989 0.865067 6.24752 1.0858 6.26549 1.3075V2.75648C5.81193 2.97466 5.37665 3.23036 4.964 3.52102L3.74105 2.79653C3.56405 2.67616 3.34997 2.62606 3.13923 2.65568C2.92849 2.68531 2.73568 2.79261 2.59719 2.95734C1.37579 4.19295 0.49204 5.73263 0.0334755 7.42387C-0.0234819 7.633 -0.00739603 7.85583 0.0789805 8.05419C0.165357 8.25255 0.316647 8.41409 0.506946 8.51118L1.72934 9.23568V10.7653L0.506946 11.4893C0.316794 11.5865 0.165638 11.7481 0.0792843 11.9464C-0.00706902 12.1447 -0.0232605 12.3674 0.0334755 12.5766C0.491895 14.2679 1.37567 15.8076 2.59719 17.0431C2.73568 17.2078 2.92849 17.3151 3.13923 17.3448C3.34997 17.3744 3.56405 17.3243 3.74105 17.2039L4.964 16.4794C5.37665 16.7701 5.81193 17.0258 6.26549 17.244V18.6924C6.26759 18.9131 6.34428 19.1263 6.4826 19.2961C6.60503 19.4673 6.77776 19.5942 6.97571 19.6584C8.62905 20.1139 10.3713 20.1139 12.0246 19.6584C12.2383 19.6138 12.4285 19.4909 12.5594 19.3129C12.6903 19.1349 12.7527 18.9141 12.7348 18.6924V17.244C13.1882 17.0255 13.6235 16.7698 14.0363 16.4794L15.2593 17.2039C15.4363 17.3243 15.6503 17.3744 15.8611 17.3448C16.0718 17.3151 16.2646 17.2078 16.4031 17.0431C17.6243 15.8073 18.508 14.2677 18.9668 12.5766C19.0233 12.3674 19.0071 12.1448 18.9207 11.9465C18.8344 11.7483 18.6834 11.5867 18.4934 11.4893L17.271 10.7653C17.2968 10.256 17.2968 9.74561 17.271 9.23625L18.4934 8.51118ZM16.9159 12.7763C16.5988 13.6371 16.1457 14.4392 15.5745 15.1506L13.8388 14.1446C13.39 14.5207 13.0482 14.7956 12.8133 14.9692C12.579 15.1425 12.3278 15.2909 12.0639 15.4121C11.8021 15.5331 11.3946 15.7008 10.8415 15.9152V17.9267C9.95422 18.0877 9.04608 18.0877 8.15883 17.9267V15.9157C7.61156 15.7177 7.07797 15.4824 6.56169 15.2113C6.06723 14.8944 5.59826 14.5379 5.15922 14.1451L3.42353 15.1512C2.85216 14.4399 2.39903 13.6378 2.08221 12.7769L3.8179 11.7714C3.50224 10.613 3.50224 9.38863 3.8179 8.23019L2.08221 7.22415C2.39914 6.36344 2.85226 5.56156 3.42353 4.8504L5.15922 5.85644C5.59859 5.46393 6.06752 5.10726 6.56169 4.78973C7.07824 4.51937 7.61179 4.28423 8.15883 4.08585V2.07376C9.04608 1.91277 9.95422 1.91277 10.8415 2.07376V4.08585C11.3935 4.30102 11.8009 4.46869 12.0639 4.58887C12.3276 4.71031 12.5787 4.85851 12.8133 5.03123C13.0501 5.20634 13.3919 5.48141 13.8388 5.85644L15.5745 4.8504C16.1456 5.56171 16.5987 6.36356 16.9159 7.22415L15.1802 8.23019C15.4958 9.38863 15.4958 10.613 15.1802 11.7714L16.9159 12.7763ZM5.71348 10.0002C5.71701 10.8897 6.02252 11.7504 6.57803 12.4359C7.13355 13.1214 7.90476 13.5895 8.76042 13.7603C9.61609 13.9312 10.5034 13.7944 11.2713 13.3731C12.0392 12.9519 12.6403 12.2722 12.9723 11.4498C13.3044 10.6273 13.3468 9.71297 13.0924 8.86222C12.8381 8.01148 12.3026 7.27692 11.5771 6.78353C10.8517 6.29014 9.98103 6.0684 9.11336 6.15604C8.24569 6.24367 7.43459 6.63528 6.81807 7.26422C6.46041 7.61904 6.17788 8.04489 5.98789 8.51547C5.79791 8.98605 5.70451 9.49138 5.71348 10.0002ZM7.60682 10.0002C7.60861 9.55557 7.76137 9.12527 8.03912 8.78257C8.31686 8.43986 8.70243 8.20591 9.13022 8.12052C9.558 8.03513 10.0016 8.10359 10.3855 8.31423C10.7693 8.52487 11.0698 8.86469 11.2358 9.27586C11.4017 9.68704 11.4229 10.1442 11.2957 10.5695C11.1685 10.9948 10.9007 11.362 10.538 11.6086C10.1753 11.8552 9.74001 11.966 9.30624 11.9221C8.87247 11.8782 8.467 11.6824 8.15883 11.3679C7.98011 11.1905 7.83893 10.9776 7.74399 10.7424C7.64905 10.5071 7.60237 10.2546 7.60682 10.0002Z" fill="#2A2A2A"/>
</svg>
