<svg width="49" height="49" viewBox="0 0 49 49" fill="none" xmlns="http://www.w3.org/2000/svg">
<path fill-rule="evenodd" clip-rule="evenodd" d="M18.1977 46.189C19.0488 45.9369 19.8754 45.6086 20.6677 45.208C21.9456 44.5511 23.2413 43.5 23.2413 43.5L24.319 44.8492C24.319 44.8492 22.7898 46.0639 21.5389 46.7073C20.719 47.1206 19.8653 47.4629 18.9872 47.7302L18.1977 46.189ZM25.1058 41.2442C25.6749 40.518 26.1585 39.7284 26.547 38.8911C26.9128 38.0496 27.1874 37.1713 27.366 36.2711L28.9389 36.7025C28.9389 36.7025 28.6723 38.4002 28.1011 39.6525C27.6807 40.5366 27.1719 41.3758 26.5825 42.1571L25.1058 41.2442ZM28.0873 33.3868C28.0873 33.3868 29.0096 31.6492 29.9109 30.5147C30.5053 29.7933 31.1746 29.1375 31.9076 28.5582L32.9722 29.8302C32.3361 30.3722 31.7543 30.9751 31.2351 31.6304C30.6495 32.3924 30.1447 33.2135 29.7291 34.0804L28.0873 33.3868ZM35.3556 27.4787C36.2748 27.2902 37.1788 27.0337 38.0602 26.7114C38.8526 26.4125 39.6225 26.057 40.364 25.6476L41.2685 26.9778C40.4585 27.5127 39.5963 27.9635 38.6951 28.3233C37.4112 28.8142 35.5875 29.0978 35.5875 29.0978L35.3556 27.4787ZM40.9294 0C43.0699 0 45.1227 0.851962 46.6362 2.36846C48.1497 3.88497 49 5.94179 49 8.08644C49 13.6122 40.9294 22.4303 40.9294 22.4303C40.9294 22.4303 32.8588 13.5461 32.8588 8.08644C32.8588 5.94179 33.7091 3.88497 35.2226 2.36846C36.7362 0.851962 38.789 0 40.9294 0ZM40.9294 5.96857C41.3475 5.96857 41.7561 6.09278 42.1037 6.32549C42.4513 6.55821 42.7223 6.88898 42.8822 7.27597C43.0422 7.66296 43.0841 8.08879 43.0025 8.49962C42.921 8.91045 42.7197 9.28782 42.424 9.58401C42.1284 9.8802 41.7518 10.0819 41.3418 10.1636C40.9318 10.2453 40.5068 10.2034 40.1205 10.0431C39.7343 9.88281 39.4042 9.61136 39.1719 9.26307C38.9397 8.91479 38.8157 8.50532 38.8157 8.08644C38.8157 7.52475 39.0384 6.98606 39.4348 6.58888C39.8312 6.1917 40.3688 5.96857 40.9294 5.96857ZM12.202 16.4617C15.4381 16.4617 18.5417 17.7498 20.8301 20.0426C23.1184 22.3354 24.4039 25.4451 24.4039 28.6876C24.4039 38.2885 12.202 49 12.202 49C12.202 49 0 38.2885 0 28.6876C0 25.4451 1.28556 22.3354 3.57387 20.0426C5.86218 17.7498 8.9658 16.4617 12.202 16.4617ZM12.25 22.334C15.6725 22.334 18.4471 25.1786 18.4471 28.6876C18.4471 32.1967 15.6725 35.0413 12.25 35.0413C8.82749 35.0413 6.05294 32.1967 6.05294 28.6876C6.05294 25.1786 8.82749 22.334 12.25 22.334Z" fill="black"/>
</svg>
