<svg width="24" height="18" viewBox="0 0 24 18" fill="none" xmlns="http://www.w3.org/2000/svg">
<path fill-rule="evenodd" clip-rule="evenodd" d="M2.25002 2.24221e-05C1.9542 -0.00121238 1.66105 0.0561284 1.38751 0.168764C1.11397 0.281399 0.865446 0.447093 0.656268 0.656271C0.447091 0.865449 0.281397 1.11397 0.168761 1.38751C0.0561256 1.66105 -0.00121528 1.9542 1.95265e-05 2.25002V15.75C-0.00103775 16.0458 0.0564289 16.3388 0.169127 16.6123C0.281826 16.8857 0.447513 17.1342 0.656655 17.3433C0.865797 17.5525 1.11425 17.7182 1.38771 17.8309C1.66117 17.9436 1.95425 18.001 2.25002 18H21.75C22.0458 18.0012 22.3389 17.9439 22.6125 17.8312C22.886 17.7186 23.1345 17.5529 23.3437 17.3437C23.5529 17.1345 23.7186 16.886 23.8312 16.6125C23.9439 16.3389 24.0012 16.0458 24 15.75V2.25002C24.0013 1.95417 23.944 1.66099 23.8314 1.38741C23.7188 1.11383 23.5531 0.865263 23.3439 0.656067C23.1347 0.446872 22.8862 0.281205 22.6126 0.168601C22.339 0.0559972 22.0458 -0.00130128 21.75 2.24221e-05H2.25002ZM21.75 4.17134C20.6558 5.04645 18.5464 6.70267 15.422 9.14C15.2242 9.35746 15.0043 9.55384 14.766 9.72599C14.451 9.99295 14.1224 10.2433 13.7813 10.476C13.5627 10.6169 13.2738 10.7811 12.9146 10.9687C12.645 11.152 12.3264 11.25 12.0003 11.25C11.6742 11.25 11.3557 11.152 11.086 10.9687C10.7269 10.7807 10.438 10.6164 10.2193 10.476C9.87803 10.2436 9.54935 9.99328 9.23466 9.72599C8.99616 9.55408 8.77629 9.35767 8.57866 9.14C5.45333 6.70267 3.34379 5.04645 2.25002 4.17134V2.25002H21.75V4.17134ZM2.25002 7.03067C3.34379 7.90622 4.98445 9.2031 7.172 10.9213C7.40856 11.0883 7.63557 11.2683 7.852 11.4606C8.24222 11.7886 8.54689 12.0309 8.766 12.1873C8.98511 12.3438 9.28977 12.5469 9.68 12.7967C10.0414 13.034 10.4365 13.2156 10.852 13.3353C11.2253 13.4428 11.6116 13.4982 12 13.5C12.3811 13.4992 12.76 13.4438 13.1253 13.3353C13.5352 13.2112 13.9287 13.0381 14.2973 12.82C14.7027 12.5853 15.016 12.3906 15.2347 12.234C15.4533 12.0773 15.7573 11.828 16.1487 11.484C16.3635 11.2825 16.5905 11.0946 16.8286 10.9213C19.0153 9.20355 20.6558 7.90666 21.75 7.03067V15.75H2.25002V7.02867V7.03067Z" fill="white"/>
</svg>
