<svg width="18" height="18" viewBox="0 0 18 18" fill="none" xmlns="http://www.w3.org/2000/svg">
<path fill-rule="evenodd" clip-rule="evenodd" d="M0.00122078 9.0169C0.00512658 11.0982 0.730253 13.1139 2.05314 14.7207C3.37603 16.3275 5.2149 17.4261 7.25667 17.8294C9.29843 18.2327 11.4169 17.9159 13.2513 16.9328C15.0857 15.9497 16.5227 14.3611 17.3177 12.4376C18.1126 10.514 18.2163 8.37441 17.6111 6.38299C17.006 4.39158 15.7293 2.67149 13.9986 1.51557C12.2678 0.359656 10.19 -0.160624 8.11875 0.0433266C6.04755 0.247277 4.11106 1.16284 2.63898 2.63414C1.78642 3.46124 1.11248 4.45437 0.658794 5.55219C0.205108 6.65 -0.0186884 7.82919 0.00122078 9.0169ZM1.74679 9.0169C1.74904 7.33671 2.33362 5.70924 3.40098 4.41169C4.46833 3.11414 5.95245 2.22675 7.60058 1.90063C9.24871 1.57451 10.9589 1.82984 12.4399 2.62314C13.921 3.41643 15.0812 4.69863 15.7231 6.25136C16.365 7.8041 16.4488 9.53133 15.9602 11.1389C15.4717 12.7465 14.441 14.135 13.0437 15.068C11.6464 16.0009 9.96899 16.4206 8.29703 16.2556C6.62507 16.0906 5.06202 15.351 3.87407 14.1629C3.18682 13.4959 2.64351 12.6952 2.27764 11.8102C1.91177 10.9251 1.7311 9.97448 1.74679 9.0169ZM11.8928 12.3991L12.5471 11.4536C12.5886 11.4109 12.6201 11.3594 12.6392 11.3029C12.6583 11.2465 12.6647 11.1865 12.6577 11.1274C12.6508 11.0682 12.6308 11.0113 12.5991 10.9608C12.5674 10.9103 12.525 10.8675 12.4747 10.8355L10.0381 9.08982V3.92517C10.0466 3.86589 10.0412 3.80544 10.0222 3.74863C10.0033 3.69182 9.97138 3.64021 9.92901 3.59789C9.88664 3.55556 9.83499 3.52369 9.77816 3.50482C9.72133 3.48594 9.66088 3.48058 9.60162 3.48914H8.4379C8.37865 3.48069 8.31825 3.48614 8.26147 3.50506C8.20469 3.52397 8.15308 3.55583 8.11073 3.59812C8.06839 3.64042 8.03648 3.692 8.0175 3.74876C7.99852 3.80552 7.99299 3.86591 8.00137 3.92517V9.88999C8.00104 9.96042 8.01736 10.0299 8.049 10.0928C8.08064 10.1558 8.12671 10.2103 8.18343 10.2521L11.2743 12.5067C11.3187 12.5488 11.3724 12.5799 11.4311 12.5975C11.4897 12.6151 11.5517 12.6188 11.612 12.6082C11.6723 12.5976 11.7293 12.573 11.7784 12.5364C11.8276 12.4999 11.8674 12.4523 11.8949 12.3976L11.8928 12.3991Z" fill="#868686"/>
</svg>
