<svg width="18" height="14" viewBox="0 0 18 14" fill="none" xmlns="http://www.w3.org/2000/svg">
<path fill-rule="evenodd" clip-rule="evenodd" d="M17.8731 7.14109C17.7826 7.21625 17.6669 7.25532 17.5487 7.25063H15.6236V9.14322C15.6282 9.25988 15.5885 9.37403 15.5122 9.46325C15.4773 9.50367 15.4338 9.53589 15.3847 9.55754C15.3356 9.5792 15.2822 9.58974 15.2285 9.58839H14.8334C14.7796 9.5898 14.7262 9.57928 14.677 9.55763C14.6279 9.53597 14.5843 9.50373 14.5494 9.46325C14.4732 9.37397 14.4336 9.25983 14.4384 9.14322V7.25063H12.5255C12.4073 7.25532 12.2916 7.21625 12.2011 7.14109C12.1601 7.10671 12.1273 7.06369 12.1053 7.01519C12.0833 6.96669 12.0726 6.91394 12.0739 6.86081V6.47099C12.0726 6.41793 12.0833 6.36525 12.1054 6.31682C12.1274 6.26838 12.1601 6.22542 12.2011 6.1911C12.2916 6.1158 12.4072 6.07659 12.5255 6.08117H14.4384V4.18664C14.4336 4.07003 14.4732 3.95588 14.5494 3.8666C14.5842 3.82608 14.6278 3.79377 14.677 3.77205C14.7261 3.75033 14.7796 3.73975 14.8334 3.74108H15.2285C15.2823 3.73978 15.3357 3.75038 15.3848 3.7721C15.4338 3.79382 15.4774 3.82611 15.5122 3.8666C15.5885 3.95583 15.6282 4.06998 15.6236 4.18664V6.08117H17.5487C17.6669 6.07659 17.7826 6.1158 17.8731 6.1911C17.914 6.22546 17.9467 6.26843 17.9686 6.31686C17.9906 6.36529 18.0012 6.41796 17.9999 6.47099V6.86081C18.0013 6.91391 17.9906 6.96665 17.9687 7.01516C17.9468 7.06366 17.9141 7.10669 17.8731 7.14109ZM12.4445 12.6843C12.4452 12.8573 12.4112 13.0287 12.3445 13.1887C12.2777 13.3486 12.1796 13.4939 12.0556 13.6163C11.9316 13.7386 11.7844 13.8354 11.6223 13.9013C11.4602 13.9672 11.2865 14.0007 11.1112 14H1.33335C1.15803 14.0008 0.984295 13.9673 0.822173 13.9014C0.660051 13.8356 0.512763 13.7387 0.388795 13.6164C0.264827 13.494 0.166641 13.3487 0.0999123 13.1887C0.0331837 13.0288 -0.000771136 12.8573 1.32872e-05 12.6843V11.9717C0.00622852 10.9995 0.400398 10.0689 1.09712 9.38141C1.79384 8.69393 2.737 8.30499 3.72229 8.29886C4.08733 8.32294 4.44723 8.39679 4.79173 8.51832C5.72244 8.81043 6.72207 8.81043 7.65278 8.51832C7.99724 8.39668 8.35716 8.32283 8.72221 8.29886C9.70744 8.30519 10.6505 8.69419 11.3472 9.38162C12.0438 10.0691 12.4381 10.9996 12.4445 11.9717V12.6843ZM11.1112 11.9717C11.1034 11.349 10.8492 10.7538 10.4028 10.3134C9.95651 9.873 9.35338 9.62219 8.72221 9.6145C8.4267 9.67192 8.13458 9.74518 7.84715 9.83397C6.78398 10.1261 5.66013 10.1261 4.59696 9.83397C4.30965 9.74521 4.01767 9.67195 3.72229 9.6145C3.09113 9.62219 2.488 9.873 2.04166 10.3134C1.59532 10.7538 1.34114 11.349 1.33335 11.9717V12.6843H11.1112V11.9717ZM6.22225 7.86031C5.3015 7.85645 4.41053 7.53794 3.70094 6.95896C2.99136 6.37998 2.50698 5.5763 2.33022 4.68466C2.15346 3.79301 2.29524 2.86848 2.73143 2.06835C3.16762 1.26822 3.87129 0.64191 4.72271 0.295999C5.57413 -0.0499125 6.52071 -0.0940712 7.4014 0.171039C8.2821 0.436149 9.0425 0.994161 9.55325 1.75012C10.064 2.50607 10.2935 3.41328 10.2028 4.3174C10.1121 5.22153 9.70671 6.06672 9.05564 6.70917C8.68812 7.08187 8.24709 7.3763 7.75977 7.57429C7.27245 7.77227 6.74918 7.86962 6.22225 7.86031ZM8.11105 2.04964C7.67374 1.61461 7.09698 1.3428 6.47921 1.28058C5.86144 1.21835 5.24094 1.36958 4.72356 1.70844C4.20619 2.04731 3.82401 2.55282 3.64224 3.13872C3.46047 3.72463 3.49038 4.35462 3.72685 4.92119C3.96333 5.48777 4.39172 5.95582 4.93893 6.24549C5.48614 6.53515 6.11826 6.62848 6.72743 6.50955C7.3366 6.39062 7.88507 6.0668 8.27926 5.59334C8.67345 5.11988 8.88893 4.52612 8.88893 3.91338C8.89508 3.56678 8.82924 3.22261 8.69546 2.90208C8.56168 2.58155 8.36279 2.29144 8.11105 2.04964Z" fill="#0BACF0"/>
</svg>
