<svg width="24" height="16" viewBox="0 0 24 16" fill="none" xmlns="http://www.w3.org/2000/svg">
<path fill-rule="evenodd" clip-rule="evenodd" d="M10.7091 3.54246C10.8996 3.8873 11.0001 4.27459 11.0013 4.66855C10.9972 5.28631 10.7501 5.87762 10.3133 6.31446C9.8766 6.75129 9.28543 6.99849 8.66781 7.00252C8.27388 7.00176 7.88655 6.90124 7.54195 6.71033C7.42997 7.13184 7.3738 7.56622 7.37487 8.00236C7.38049 8.76462 7.57351 9.51379 7.93693 10.1838C8.30034 10.8539 8.82296 11.4242 9.45875 11.8445C10.0945 12.2648 10.824 12.5222 11.5827 12.594C12.3414 12.6658 13.1061 12.5499 13.8095 12.2563C14.5128 11.9627 15.1331 11.5006 15.6157 10.9106C16.0983 10.3206 16.4284 9.62098 16.5769 8.87331C16.7254 8.12563 16.6876 7.35291 16.4671 6.62326C16.2465 5.8936 15.8498 5.22942 15.312 4.68929C14.8816 4.24932 14.3657 3.90217 13.796 3.66925C13.2263 3.43634 12.615 3.32259 11.9997 3.33502C11.5607 3.33434 11.1244 3.40478 10.708 3.54364L10.7091 3.54246ZM18.9586 2.02105C16.8779 0.700953 14.4648 0 12.0009 0C9.53696 0 7.12384 0.700953 5.04319 2.02105C2.95867 3.33893 1.26144 5.18685 0.125027 7.3759C0.0424923 7.57402 0 7.78655 0 8.00118C0 8.21582 0.0424923 8.42833 0.125027 8.62645C0.882062 10.0713 1.88276 11.3745 3.08303 12.4789C4.28405 13.5805 5.67444 14.4558 7.18702 15.0623C9.09356 15.8312 11.156 16.134 13.203 15.9456C15.2501 15.7572 17.2226 15.083 18.9568 13.9789C21.0413 12.6611 22.7386 10.8131 23.875 8.62409C23.9575 8.42596 24 8.21345 24 7.99882C24 7.78418 23.9575 7.57165 23.875 7.37353C22.7385 5.18574 21.0419 3.33874 18.9586 2.02105ZM8.0634 13.273C6.80269 12.7891 5.63875 12.0833 4.62663 11.1892C3.59767 10.2852 2.73719 9.20581 2.08519 8.00118C3.06523 6.18943 4.51053 4.67181 6.27214 3.6047C7.99881 2.55529 9.98045 2.00031 12.0009 2.00031C14.0213 2.00031 16.003 2.55529 17.7297 3.6047C19.491 4.67215 20.9362 6.18969 21.9166 8.00118C20.9365 9.81294 19.4913 11.3306 17.7297 12.3977C16.2921 13.2718 14.6736 13.8052 12.9981 13.9569C11.3225 14.1087 9.63454 13.8747 8.0634 13.273Z" fill="white"/>
</svg>
