<svg width="18" height="20" viewBox="0 0 18 20" fill="none" xmlns="http://www.w3.org/2000/svg">
<path fill-rule="evenodd" clip-rule="evenodd" d="M18 18.1205C18.001 18.3676 17.9519 18.6125 17.8553 18.841C17.7588 19.0694 17.6168 19.2771 17.4375 19.4518C17.2582 19.6265 17.0452 19.7649 16.8107 19.859C16.5762 19.9531 16.325 20.001 16.0714 20H1.92859C1.67501 20.0011 1.42371 19.9532 1.18921 19.8592C0.954711 19.7651 0.741672 19.6267 0.562361 19.4519C0.383051 19.2772 0.241033 19.0696 0.144515 18.8411C0.0479976 18.6125 -0.00111539 18.3676 1.92189e-05 18.1205V17.1025C0.00900906 15.7136 0.579143 14.3841 1.5869 13.402C2.59465 12.4199 3.95886 11.8643 5.38401 11.8555C5.91201 11.8899 6.43257 11.9954 6.93086 12.169C8.27706 12.5863 9.72295 12.5863 11.0691 12.169C11.5674 11.9953 12.088 11.8898 12.616 11.8555C14.0411 11.8646 15.4051 12.4203 16.4128 13.4023C17.4205 14.3844 17.9907 15.7137 18 17.1025V18.1205ZM16.0714 17.1025C16.0602 16.2128 15.6925 15.3626 15.0469 14.7335C14.4013 14.1043 13.5289 13.746 12.616 13.735C12.1886 13.817 11.766 13.9217 11.3503 14.0485C9.81249 14.4658 8.18693 14.4658 6.64914 14.0485C6.23358 13.9217 5.81124 13.8171 5.38401 13.735C4.47107 13.746 3.5987 14.1043 2.9531 14.7335C2.30751 15.3626 1.93985 16.2128 1.92859 17.1025V18.1205H16.0714V17.1025ZM9 11.229C7.6682 11.2235 6.37948 10.7685 5.35312 9.94137C4.32676 9.11426 3.62615 7.96615 3.37048 6.69237C3.11481 5.41858 3.31988 4.09782 3.9508 2.95478C4.58172 1.81174 5.59952 0.917014 6.83103 0.422855C8.06253 -0.0713036 9.43169 -0.134388 10.7055 0.244342C11.9794 0.623071 13.0793 1.42023 13.818 2.50017C14.5568 3.58011 14.8888 4.87611 14.7576 6.16772C14.6263 7.45933 14.04 8.66674 13.0983 9.58453C12.5667 10.117 11.9288 10.5376 11.2239 10.8204C10.519 11.1032 9.76216 11.2423 9 11.229ZM11.732 2.92806C11.0995 2.30659 10.2652 1.91829 9.37167 1.8294C8.47811 1.74051 7.58061 1.95654 6.83226 2.44063C6.08392 2.92473 5.53113 3.64688 5.26821 4.48389C5.0053 5.32089 5.04856 6.22088 5.3906 7.03028C5.73264 7.83967 6.35227 8.50831 7.14377 8.92212C7.93527 9.33593 8.84958 9.46926 9.7307 9.29936C10.6118 9.12945 11.4051 8.66685 11.9753 7.99048C12.5455 7.31411 12.8571 6.46589 12.8571 5.59054C12.866 5.0954 12.7708 4.60373 12.5773 4.14583C12.3838 3.68793 12.0961 3.27349 11.732 2.92806Z" fill="white"/>
</svg>
