<svg width="20" height="31" viewBox="0 0 20 31" fill="none" xmlns="http://www.w3.org/2000/svg">
<path fill-rule="evenodd" clip-rule="evenodd" d="M0.993759 2.9338C0.844876 3.03149 0.723011 3.16299 0.63876 3.31675C0.554508 3.47051 0.510443 3.64186 0.510443 3.81589C0.510443 3.98991 0.554508 4.16131 0.63876 4.31507C0.723011 4.46883 0.844876 4.60028 0.993759 4.69798L9.69307 12.7955C12.9509 15.9468 12.9887 14.9989 9.68697 18.1927L0.987657 26.2887C0.837511 26.3864 0.714504 26.5183 0.629444 26.6727C0.544384 26.8272 0.499917 26.9995 0.499917 27.1745C0.499917 27.3495 0.544384 27.5219 0.629444 27.6763C0.714504 27.8308 0.837511 27.9627 0.987657 28.0603L3.13503 30.0326C3.22456 30.1753 3.35056 30.2932 3.50093 30.3751C3.6513 30.457 3.82097 30.5 3.99352 30.5C4.16607 30.5 4.33568 30.457 4.48605 30.3751C4.63642 30.2932 4.76247 30.1753 4.852 30.0326L19.0166 16.3297C19.1655 16.232 19.2873 16.1005 19.3716 15.9468C19.4559 15.793 19.4999 15.6216 19.4999 15.4476C19.4999 15.2736 19.4559 15.1022 19.3716 14.9484C19.2873 14.7947 19.1655 14.6632 19.0166 14.5655L4.852 0.967378C4.76247 0.824694 4.63642 0.706753 4.48605 0.624887C4.33568 0.543021 4.16607 0.5 3.99352 0.5C3.82097 0.5 3.6513 0.543021 3.50093 0.624887C3.35056 0.706753 3.22456 0.824694 3.13503 0.967378L0.993759 2.9338Z" fill="#868686"/>
</svg>
