<svg width="24" height="24" viewBox="0 0 24 24" fill="none" xmlns="http://www.w3.org/2000/svg">
<path fill-rule="evenodd" clip-rule="evenodd" d="M5.78753 21.9494C8.25865 23.4079 11.1775 23.9134 13.9952 23.3707C16.8129 22.828 19.3352 21.2746 21.0878 19.0025C22.8404 16.7304 23.7024 13.8963 23.5119 11.0331C23.3213 8.17 22.0912 5.47515 20.0529 3.4554C18.0147 1.43565 15.3087 0.230194 12.4439 0.0657418C9.57919 -0.0987107 6.75305 0.789176 4.49706 2.56241C2.24106 4.33564 0.710667 6.87203 0.193698 9.69455C-0.323271 12.5171 0.208811 15.4312 1.68987 17.8889L0 23.5823L5.78753 21.9494ZM5.9062 19.537C7.87943 21.009 10.3378 21.6772 12.7847 21.4064C15.2316 21.1357 17.4845 19.9463 19.0882 18.0785C20.6918 16.2107 21.5268 13.8038 21.4243 11.3442C21.3218 8.88451 20.2894 6.55545 18.5359 4.8276C16.7823 3.09974 14.4383 2.10191 11.9774 2.03571C9.51648 1.96952 7.12219 2.8399 5.27829 4.47099C3.43438 6.10209 2.27835 8.37228 2.04376 10.8229C1.80917 13.2735 2.51352 15.7217 4.01449 17.673L2.8481 20.7342L5.9062 19.537ZM8.92405 13.1392H9.3038L10.443 14.6582C10.443 14.6582 12 14.003 13.1013 12.9494C13.8092 12.2314 14.3873 11.3963 14.8101 10.481L13.2911 9.1519V8.77215L14.4304 6.3038H15.9494C17.1046 6.52139 18.7785 10.3101 14.8101 14.2785C10.8418 18.2468 6.90209 17.2876 6.26582 15.7975V14.4684L8.92405 13.1392Z" fill="#00D33B"/>
</svg>
