<svg width="20" height="31" viewBox="0 0 20 31" fill="none" xmlns="http://www.w3.org/2000/svg">
<path fill-rule="evenodd" clip-rule="evenodd" d="M19.0062 28.0662C19.1551 27.9685 19.277 27.837 19.3612 27.6833C19.4455 27.5295 19.4896 27.3581 19.4896 27.1841C19.4896 27.0101 19.4455 26.8387 19.3612 26.6849C19.277 26.5312 19.1551 26.3997 19.0062 26.302L10.3069 18.2045C7.04909 15.0532 7.01127 16.0011 10.313 12.8073L19.0123 4.71127C19.1625 4.61362 19.2855 4.48175 19.3706 4.32728C19.4556 4.17282 19.5001 4.0005 19.5001 3.82548C19.5001 3.65047 19.4556 3.47815 19.3706 3.32369C19.2855 3.16922 19.1625 3.03735 19.0123 2.9397L16.865 0.967378C16.7754 0.824694 16.6494 0.706752 16.4991 0.624886C16.3487 0.543021 16.179 0.5 16.0065 0.5C15.8339 0.5 15.6643 0.543021 15.5139 0.624886C15.3636 0.706752 15.2375 0.824694 15.148 0.967378L0.983401 14.6703C0.834518 14.768 0.712651 14.8995 0.6284 15.0532C0.544148 15.207 0.500083 15.3784 0.500083 15.5524C0.500083 15.7264 0.544148 15.8978 0.6284 16.0516C0.712651 16.2053 0.834518 16.3368 0.983401 16.4345L15.148 30.0326C15.2375 30.1753 15.3636 30.2932 15.5139 30.3751C15.6643 30.457 15.8339 30.5 16.0065 30.5C16.179 30.5 16.3487 30.457 16.4991 30.3751C16.6494 30.2932 16.7754 30.1753 16.865 30.0326L19.0062 28.0662Z" fill="#868686"/>
</svg>
