<svg width="26" height="20" viewBox="0 0 26 20" fill="none" xmlns="http://www.w3.org/2000/svg">
<path fill-rule="evenodd" clip-rule="evenodd" d="M5.85028 15.6251V0.625479C5.85379 0.542504 5.83937 0.45973 5.80795 0.382379C5.77652 0.305028 5.72877 0.234772 5.6677 0.176051C5.60663 0.117331 5.53357 0.0714173 5.45313 0.0412009C5.37269 0.0109845 5.2866 -0.00287375 5.20031 0.000494848H0.650489C0.564196 -0.00287375 0.478112 0.0109845 0.397668 0.0412009C0.317224 0.0714173 0.244168 0.117331 0.1831 0.176051C0.122031 0.234772 0.0742729 0.305028 0.0428483 0.382379C0.0114237 0.45973 -0.00298866 0.542504 0.000514634 0.625479V1.25046C-0.00298866 1.33344 0.0114237 1.41621 0.0428483 1.49356C0.0742729 1.57092 0.122031 1.64117 0.1831 1.69989C0.244168 1.75861 0.317224 1.80453 0.397668 1.83474C0.478112 1.86496 0.564196 1.87882 0.650489 1.87545H3.90036V16.8751C3.89686 16.9581 3.91127 17.0408 3.94269 17.1182C3.97412 17.1955 4.02188 17.2658 4.08295 17.3245C4.14401 17.3832 4.21707 17.4291 4.29751 17.4594C4.37796 17.4896 4.46404 17.5034 4.55033 17.5001H6.62216C6.54245 17.6996 6.50114 17.9113 6.50026 18.125C6.50026 18.6223 6.70569 19.0992 7.07137 19.4508C7.43706 19.8025 7.93303 20 8.45018 20C8.96733 20 9.46331 19.8025 9.82899 19.4508C10.1947 19.0992 10.4001 18.6223 10.4001 18.125C10.3992 17.9113 10.3579 17.6996 10.2782 17.5001H18.3217C18.242 17.6996 18.2007 17.9113 18.1998 18.125C18.1998 18.6223 18.4052 19.0992 18.7709 19.4508C19.1366 19.8025 19.6326 20 20.1497 20C20.6669 20 21.1628 19.8025 21.5285 19.4508C21.8942 19.0992 22.0996 18.6223 22.0996 18.125C22.0988 17.9113 22.0574 17.6996 21.9777 17.5001H25.3495C25.4358 17.5034 25.5219 17.4896 25.6023 17.4594C25.6828 17.4291 25.7558 17.3832 25.8169 17.3245C25.878 17.2658 25.9257 17.1955 25.9572 17.1182C25.9886 17.0408 26.003 16.9581 25.9995 16.8751V16.2501C26.003 16.1671 25.9886 16.0843 25.9572 16.007C25.9257 15.9296 25.878 15.8594 25.8169 15.8007C25.7558 15.7419 25.6828 15.696 25.6023 15.6658C25.5219 15.6356 25.4358 15.6217 25.3495 15.6251H5.85028ZM22.0996 13.7502C22.443 13.7457 22.7709 13.6126 23.0137 13.3791C23.2565 13.1457 23.395 12.8303 23.3996 12.5002V5.00037C23.395 4.67024 23.2565 4.35489 23.0137 4.12144C22.7709 3.88798 22.443 3.75486 22.0996 3.7504H19.4997V1.87545C19.5009 1.62892 19.4512 1.3846 19.3536 1.15662C19.2561 0.928647 19.1125 0.721529 18.9312 0.547204C18.7499 0.372878 18.5345 0.234808 18.2974 0.140974C18.0603 0.0471394 17.8062 -0.000608217 17.5498 0.000494848H13.65C13.3936 -0.000608217 13.1395 0.0471394 12.9024 0.140974C12.6653 0.234808 12.4499 0.372878 12.2686 0.547204C12.0873 0.721529 11.9437 0.928647 11.8461 1.15662C11.7486 1.3846 11.6989 1.62892 11.7001 1.87545V3.7504H9.10015C8.75683 3.75486 8.42887 3.88798 8.18608 4.12144C7.94329 4.35489 7.80484 4.67024 7.80021 5.00037V12.5002C7.80484 12.8303 7.94329 13.1457 8.18608 13.3791C8.42887 13.6126 8.75683 13.7457 9.10015 13.7502H22.0996ZM21.4497 5.62536V11.8752H19.4997V5.62536H21.4497ZM17.5498 1.87545V3.7504H13.65V1.87545H17.5498ZM17.5498 5.62536V11.8752H13.65V5.62536H17.5498ZM11.7001 5.62536V11.8752H9.75013V5.62536H11.7001Z" fill="#2A2A2A"/>
</svg>
