<svg width="27" height="20" viewBox="0 0 27 20" fill="none" xmlns="http://www.w3.org/2000/svg">
<path fill-rule="evenodd" clip-rule="evenodd" d="M10.7064 6.39505L15.1889 10.8214L19.8289 6.23876L18.2473 4.72849C18.0623 4.56044 17.9369 4.33817 17.8895 4.0944C17.8421 3.85064 17.8752 3.59827 17.984 3.37451C18.0636 3.13656 18.2202 2.93111 18.4298 2.78987C18.6393 2.64863 18.8901 2.57948 19.1435 2.59308H24.4682C24.5802 2.58859 24.692 2.60707 24.7964 2.64735C24.9008 2.68764 24.9956 2.74886 25.0749 2.82715C25.1542 2.90544 25.2162 2.99911 25.257 3.10224C25.2978 3.20537 25.3165 3.31573 25.3119 3.42636V8.68528C25.3256 8.93545 25.2555 9.18311 25.1125 9.39005C24.9695 9.59699 24.7615 9.75173 24.5207 9.83038C24.2941 9.9377 24.0386 9.97038 23.7918 9.92358C23.5451 9.87677 23.32 9.75298 23.1498 9.57041L21.6206 8.00754L15.7671 13.7886C15.6996 13.8774 15.612 13.9495 15.5114 13.9991C15.4108 14.0487 15.2999 14.0746 15.1874 14.0746C15.075 14.0746 14.964 14.0487 14.8634 13.9991C14.7628 13.9495 14.6753 13.8774 14.6077 13.7886L10.1267 9.36374L7.3848 12.0717C7.31715 12.1605 7.22954 12.2326 7.12886 12.2822C7.02819 12.3318 6.91721 12.3576 6.8047 12.3576C6.69219 12.3576 6.58121 12.3318 6.48054 12.2822C6.37987 12.2326 6.29225 12.1605 6.22461 12.0717L5.59164 11.4466C5.5016 11.3799 5.42852 11.2933 5.37819 11.1939C5.32785 11.0945 5.30165 10.9848 5.30165 10.8736C5.30165 10.7625 5.32785 10.6528 5.37819 10.5534C5.42852 10.454 5.5016 10.3674 5.59164 10.3007L9.54695 6.39505C9.61424 6.30586 9.70168 6.23344 9.80233 6.18354C9.90298 6.13365 10.014 6.10766 10.1267 6.10766C10.2393 6.10766 10.3503 6.13365 10.451 6.18354C10.5516 6.23344 10.6391 6.30586 10.7064 6.39505ZM2.53179 17.4995V0.833938C2.53634 0.723309 2.51763 0.612948 2.47684 0.509818C2.43605 0.406687 2.37406 0.313016 2.29479 0.234725C2.21551 0.156434 2.12068 0.0952192 2.01626 0.0549323C1.91184 0.0146453 1.8001 -0.00383152 1.68808 0.00065977H0.844376C0.732362 -0.00383152 0.62062 0.0146453 0.516199 0.0549323C0.411777 0.0952192 0.316946 0.156434 0.237675 0.234725C0.158404 0.313016 0.096411 0.406687 0.0556198 0.509818C0.0148286 0.612948 -0.00387947 0.723309 0.000668028 0.833938V18.3328C0.00668471 18.7729 0.186394 19.1934 0.501551 19.5046C0.816708 19.8159 1.24243 19.9934 1.68808 19.9993H26.1556C26.2676 20.0038 26.3794 19.9854 26.4838 19.9451C26.5882 19.9048 26.6831 19.8436 26.7623 19.7653C26.8416 19.687 26.9036 19.5933 26.9444 19.4902C26.9852 19.3871 27.0039 19.2767 26.9993 19.1661V18.3328C27.0039 18.2222 26.9852 18.1118 26.9444 18.0087C26.9036 17.9055 26.8416 17.8119 26.7623 17.7336C26.6831 17.6553 26.5882 17.5941 26.4838 17.5538C26.3794 17.5135 26.2676 17.495 26.1556 17.4995H2.53179Z" fill="#2A2A2A"/>
</svg>
