<?xml version="1.0" standalone="no"?>
<!DOCTYPE svg PUBLIC "-//W3C//DTD SVG 20010904//EN"
 "http://www.w3.org/TR/2001/REC-SVG-20010904/DTD/svg10.dtd">
<svg version="1.0" xmlns="http://www.w3.org/2000/svg"
 width="72.000000pt" height="70.000000pt" viewBox="0 0 72.000000 70.000000"
 preserveAspectRatio="xMidYMid meet">

<g transform="translate(0.000000,70.000000) scale(0.100000,-0.100000)"
fill="#000000" stroke="none">
<path d="M307 629 c-22 -13 -47 -68 -47 -103 0 -24 -3 -25 -67 -28 l-68 -3
-37 -220 c-21 -121 -36 -226 -33 -232 6 -19 594 -19 600 -1 3 7 -12 112 -33
233 l-37 220 -67 3 c-65 3 -68 4 -68 28 0 37 -25 91 -48 103 -26 14 -71 14
-95 0z m87 -51 c9 -12 16 -35 16 -50 0 -27 -2 -28 -55 -28 -53 0 -55 1 -55 28
0 38 26 72 55 72 13 0 31 -10 39 -22z m-132 -185 c2 -54 6 -68 20 -71 14 -3
18 7 20 65 l3 68 50 0 50 0 3 -68 c2 -58 6 -68 20 -65 14 3 18 17 20 71 l3 67
49 0 c43 0 50 -3 55 -22 11 -48 55 -327 55 -347 0 -21 -2 -21 -255 -21 -253 0
-255 0 -255 21 0 20 44 299 55 347 5 19 12 22 55 22 l49 0 3 -67z"/>
</g>
</svg>
