<svg width="18" height="14" viewBox="0 0 18 14" fill="none" xmlns="http://www.w3.org/2000/svg">
<path fill-rule="evenodd" clip-rule="evenodd" d="M17.0152 12.9757C17.3338 12.6543 17.5856 12.2687 17.7548 11.8426C17.9241 11.4164 18.0074 10.9588 17.9995 10.4981V3.50194C18.0013 3.04205 17.9152 2.58634 17.7463 2.1611C17.5773 1.73586 17.3289 1.3495 17.0152 1.02431C16.7015 0.699116 16.3288 0.441523 15.9186 0.266384C15.5085 0.091246 15.0689 0.00203389 14.6253 0.00388457H11.673C11.6157 -0.00460294 11.5572 0.000862736 11.5023 0.0198421C11.4474 0.0388214 11.3975 0.0707917 11.3566 0.113231C11.3156 0.155669 11.2848 0.207407 11.2665 0.264344C11.2482 0.321282 11.2429 0.381854 11.2511 0.441268V1.31553C11.2429 1.37494 11.2482 1.43552 11.2665 1.49245C11.2848 1.54939 11.3156 1.60113 11.3566 1.64357C11.3975 1.68601 11.4474 1.71798 11.5023 1.73696C11.5572 1.75594 11.6157 1.7614 11.673 1.75291H14.6253C14.8471 1.75195 15.0669 1.79654 15.272 1.8841C15.4771 1.97166 15.6635 2.10044 15.8203 2.26305C15.9772 2.42565 16.1014 2.61886 16.1858 2.83149C16.2703 3.04413 16.3133 3.27199 16.3124 3.50194V10.4981C16.3133 10.728 16.2703 10.9559 16.1858 11.1685C16.1014 11.3811 15.9772 11.5743 15.8203 11.737C15.6635 11.8996 15.4771 12.0283 15.272 12.1159C15.0669 12.2035 14.8471 12.248 14.6253 12.2471H11.673C11.6157 12.2386 11.5572 12.2441 11.5023 12.263C11.4474 12.282 11.3975 12.314 11.3566 12.3564C11.3156 12.3989 11.2848 12.4506 11.2665 12.5075C11.2482 12.5645 11.2429 12.6251 11.2511 12.6845V13.5587C11.2429 13.6181 11.2482 13.6787 11.2665 13.7357C11.2848 13.7926 11.3156 13.8443 11.3566 13.8868C11.3975 13.9292 11.4474 13.9612 11.5023 13.9802C11.5572 13.9991 11.6157 14.0046 11.673 13.9961H14.6253C15.0698 14.0043 15.5111 13.918 15.9222 13.7425C16.3332 13.567 16.7052 13.306 17.0152 12.9757ZM5.20552 1.42488C5.15634 1.45915 5.11604 1.50545 5.08818 1.55967C5.06032 1.61389 5.04575 1.67438 5.04575 1.73582C5.04575 1.79725 5.06032 1.85774 5.08818 1.91197C5.11604 1.96619 5.15634 2.01248 5.20552 2.04676L9.17958 6.05527H0.425644C0.368334 6.04678 0.309906 6.05224 0.254985 6.07122C0.200063 6.0902 0.150157 6.12217 0.109221 6.16461C0.0682852 6.20705 0.0374468 6.25879 0.0191395 6.31573C0.000832189 6.37266 -0.00443996 6.43324 0.00374703 6.49265V7.51254C-0.00443996 7.57195 0.000832189 7.63252 0.0191395 7.68946C0.0374468 7.7464 0.0682852 7.79814 0.109221 7.84058C0.150157 7.88301 0.200063 7.91498 0.254985 7.93396C0.309906 7.95294 0.368334 7.95841 0.425644 7.94992H9.17958L5.20801 11.9584C5.15925 11.9927 5.11933 12.0389 5.09173 12.0929C5.06413 12.1468 5.04971 12.207 5.04971 12.2681C5.04971 12.3292 5.06413 12.3893 5.09173 12.4433C5.11933 12.4973 5.15925 12.5434 5.20801 12.5777L5.87585 13.2701C5.90893 13.3206 5.95345 13.362 6.00551 13.3906C6.05758 13.4192 6.11561 13.4342 6.17453 13.4342C6.23346 13.4342 6.29149 13.4192 6.34355 13.3906C6.39562 13.362 6.44014 13.3206 6.47322 13.2701L12.2378 7.29435C12.2869 7.26 12.3271 7.21368 12.3549 7.15946C12.3827 7.10525 12.3972 7.0448 12.3972 6.98341C12.3972 6.92202 12.3827 6.86158 12.3549 6.80737C12.3271 6.75316 12.2869 6.70684 12.2378 6.67248L6.47322 0.696762C6.43562 0.650981 6.38829 0.614867 6.33495 0.591259C6.28161 0.567652 6.22372 0.557188 6.16582 0.560704C6.10793 0.56422 6.0516 0.581616 6.00129 0.611518C5.95097 0.64142 5.90804 0.683024 5.87585 0.733042L5.20552 1.42488Z" fill="#0BACF0"/>
</svg>
