<svg width="20" height="20" viewBox="0 0 20 20" fill="none" xmlns="http://www.w3.org/2000/svg">
<path fill-rule="evenodd" clip-rule="evenodd" d="M6.56239 10C6.55505 10.804 6.82716 11.5855 7.33222 12.2111C7.83729 12.8366 8.54394 13.2673 9.33138 13.4296C10.1188 13.5918 10.9382 13.4755 11.6494 13.1006C12.3606 12.7257 12.9195 12.1154 13.2306 11.374C13.5417 10.6326 13.5856 9.80622 13.3549 9.03605C13.1241 8.26588 12.6331 7.59976 11.9656 7.15154C11.2981 6.70333 10.4957 6.50084 9.69551 6.57871C8.8953 6.65658 8.14698 7.00996 7.57846 7.57845C7.2525 7.89114 6.99415 8.26738 6.81939 8.68389C6.64462 9.1004 6.55715 9.54834 6.56239 10ZM8.43786 10C8.44405 9.64648 8.57223 9.30596 8.8007 9.03612C9.02917 8.76627 9.34387 8.58368 9.69152 8.51926C10.0392 8.45484 10.3984 8.51256 10.7084 8.68264C11.0184 8.85271 11.2601 9.12469 11.3925 9.45252C11.5249 9.78035 11.54 10.1439 11.4352 10.4815C11.3303 10.8192 11.112 11.1103 10.8171 11.3054C10.5223 11.5006 10.1691 11.5878 9.81728 11.5524C9.46548 11.517 9.13674 11.3611 8.88672 11.1111C8.74017 10.9662 8.62476 10.7929 8.54758 10.6019C8.47039 10.4108 8.43306 10.206 8.43786 10ZM17.4213 9.06227C17.216 7.41426 16.4669 5.88179 15.2925 4.70746C14.1182 3.53313 12.5857 2.78401 10.9377 2.57869V0.625463C10.941 0.542462 10.9271 0.459685 10.8968 0.382334C10.8665 0.304984 10.8206 0.234739 10.7618 0.176029C10.703 0.117319 10.6328 0.0714087 10.5554 0.0411985C10.478 0.0109883 10.3952 -0.00286981 10.3122 0.00049343H9.68779C9.6048 -0.00286981 9.522 0.0109883 9.44462 0.0411985C9.36725 0.0714087 9.29696 0.117319 9.2382 0.176029C9.17944 0.234739 9.13347 0.304984 9.10319 0.382334C9.07291 0.459685 9.05898 0.542462 9.06227 0.625463V2.57869C7.41425 2.78401 5.88179 3.53313 4.70746 4.70746C3.53313 5.88179 2.78402 7.41426 2.5787 9.06227H0.625463C0.542462 9.05899 0.459676 9.0729 0.382326 9.10318C0.304975 9.13346 0.234739 9.17944 0.176029 9.2382C0.117319 9.29696 0.0714087 9.36725 0.0411985 9.44462C0.0109883 9.522 -0.00286981 9.60479 0.00049343 9.68779V10.3122C-0.00286981 10.3952 0.0109883 10.478 0.0411985 10.5554C0.0714087 10.6328 0.117319 10.703 0.176029 10.7618C0.234739 10.8206 0.304975 10.8665 0.382326 10.8968C0.459676 10.9271 0.542462 10.941 0.625463 10.9377H2.5787C2.78402 12.5857 3.53313 14.1182 4.70746 15.2925C5.88179 16.4669 7.41425 17.216 9.06227 17.4213V19.3745C9.05898 19.4575 9.07291 19.5403 9.10319 19.6177C9.13347 19.695 9.17944 19.7653 9.2382 19.824C9.29696 19.8827 9.36725 19.9286 9.44462 19.9588C9.522 19.989 9.6048 20.0029 9.68779 19.9995H10.3122C10.3952 20.0029 10.478 19.989 10.5554 19.9588C10.6328 19.9286 10.703 19.8827 10.7618 19.824C10.8206 19.7653 10.8665 19.695 10.8968 19.6177C10.9271 19.5403 10.941 19.4575 10.9377 19.3745V17.4213C12.5857 17.216 14.1182 16.4669 15.2925 15.2925C16.4669 14.1182 17.216 12.5857 17.4213 10.9377H19.3745C19.4575 10.941 19.5403 10.9271 19.6177 10.8968C19.695 10.8665 19.7653 10.8206 19.824 10.7618C19.8827 10.703 19.9286 10.6328 19.9588 10.5554C19.989 10.478 20.0029 10.3952 19.9995 10.3122V9.68779C20.0029 9.60479 19.989 9.522 19.9588 9.44462C19.9286 9.36725 19.8827 9.29696 19.824 9.2382C19.7653 9.17944 19.695 9.13346 19.6177 9.10318C19.5403 9.0729 19.4575 9.05899 19.3745 9.06227H17.4213ZM4.37528 10C4.38077 8.70525 4.83469 7.4524 5.65978 6.45459C6.48488 5.45679 7.63019 4.77567 8.90086 4.52711C10.1715 4.27856 11.4891 4.47792 12.6293 5.09129C13.7696 5.70465 14.6621 6.69413 15.1551 7.89137C15.648 9.08862 15.711 10.4197 15.3331 11.6581C14.9553 12.8965 14.1601 13.9658 13.0828 14.684C12.0055 15.4022 10.7127 15.7249 9.42422 15.5974C8.13576 15.4698 6.9313 14.8998 6.01575 13.9842C5.48467 13.4674 5.06512 12.8472 4.78297 12.162C4.50083 11.4767 4.36208 10.7409 4.37528 10Z" fill="#2A2A2A"/>
</svg>
