<svg width="32" height="32" viewBox="0 0 32 32" fill="none" xmlns="http://www.w3.org/2000/svg">
<path fill-rule="evenodd" clip-rule="evenodd" d="M24.609 0.984008C24.2989 0.665535 23.9269 0.413936 23.5158 0.244705C23.1048 0.0754737 22.6635 -0.00779779 22.219 1.46955e-05H3.37503C2.93127 -0.00197087 2.49149 0.083977 2.08112 0.252883C1.67075 0.42179 1.29793 0.670306 0.984134 0.9841C0.67034 1.29789 0.421809 1.67074 0.252902 2.08112C0.0839959 2.49149 -0.00195193 2.93125 3.36332e-05 3.37501V28.125C-0.00195193 28.5688 0.0839959 29.0085 0.252902 29.4189C0.421809 29.8293 0.67034 30.2021 0.984134 30.5159C1.29793 30.8297 1.67075 31.0782 2.08112 31.2471C2.49149 31.4161 2.93127 31.502 3.37503 31.5H28.125C28.5688 31.502 29.0086 31.4161 29.4189 31.2471C29.8293 31.0782 30.2021 30.8297 30.5159 30.5159C30.8297 30.2021 31.0783 29.8293 31.2472 29.4189C31.4161 29.0085 31.502 28.5688 31.5 28.125V9.28102C31.5078 8.83658 31.4246 8.39523 31.2553 7.98419C31.0861 7.57315 30.8345 7.20113 30.516 6.89102L24.609 0.984008ZM19.125 9.00001H10.125V3.37501H19.125V9.00001ZM3.80002 28.125C3.7427 28.1332 3.68427 28.1279 3.62934 28.1096C3.5744 28.0913 3.52447 28.0605 3.48352 28.0195C3.44258 27.9786 3.41175 27.9287 3.39344 27.8737C3.37512 27.8188 3.36984 27.7603 3.37802 27.703V3.79701C3.36984 3.73969 3.37512 3.68125 3.39344 3.62631C3.41175 3.57138 3.44258 3.52146 3.48352 3.48051C3.52447 3.43957 3.5744 3.40872 3.62934 3.39041C3.68427 3.3721 3.7427 3.36683 3.80002 3.37501H6.75302V10.688C6.7521 10.9099 6.79513 11.1298 6.87964 11.3349C6.96416 11.5401 7.08848 11.7265 7.24543 11.8833C7.40237 12.0402 7.58883 12.1644 7.79404 12.2488C7.99925 12.3332 8.21916 12.3761 8.44104 12.375H20.815C21.0367 12.3757 21.2562 12.3325 21.4611 12.2479C21.666 12.1633 21.8521 12.0391 22.0087 11.8823C22.1653 11.7255 22.2894 11.5392 22.3737 11.3342C22.458 11.1293 22.501 10.9096 22.5 10.688V3.65602L27.984 9.14102C28.0253 9.17591 28.0591 9.21878 28.0833 9.26707C28.1075 9.31537 28.1217 9.36808 28.125 9.42201V27.703C28.1332 27.7603 28.128 27.8188 28.1097 27.8737C28.0913 27.9287 28.0605 27.9786 28.0195 28.0195C27.9786 28.0605 27.9287 28.0913 27.8737 28.1096C27.8188 28.1279 27.7604 28.1332 27.703 28.125H3.80002ZM9.56504 20.25C9.55182 21.6972 10.0417 23.1041 10.9508 24.2301C11.86 25.3561 13.132 26.1315 14.5495 26.4236C15.9669 26.7156 17.4419 26.5063 18.7221 25.8314C20.0024 25.1565 21.0084 24.0578 21.5684 22.7233C22.1284 21.3888 22.2074 19.9012 21.7921 18.5148C21.3767 17.1284 20.4928 15.9294 19.2913 15.1225C18.0898 14.3157 16.6454 13.9512 15.2049 14.0914C13.7645 14.2316 12.4174 14.8677 11.394 15.891C10.8068 16.4536 10.3411 17.1308 10.026 17.8806C9.71092 18.6303 9.55301 19.4368 9.56205 20.25H9.56504ZM12.941 20.25C12.9522 19.6136 13.1829 19.0007 13.5942 18.515C14.0054 18.0292 14.5719 17.7005 15.1978 17.5846C15.8236 17.4686 16.4702 17.5725 17.0282 17.8786C17.5862 18.1848 18.0212 18.6744 18.2596 19.2645C18.4981 19.8546 18.5252 20.509 18.3365 21.1169C18.1477 21.7247 17.7547 22.2486 17.2239 22.5999C16.6932 22.9512 16.0574 23.1082 15.4241 23.0445C14.7908 22.9807 14.1991 22.7001 13.749 22.25C13.4847 21.9895 13.2764 21.6777 13.1369 21.3338C12.9975 20.9899 12.9298 20.6211 12.938 20.25H12.941Z" fill="black"/>
</svg>
