<svg width="18" height="18" viewBox="0 0 18 18" fill="none" xmlns="http://www.w3.org/2000/svg">
<path fill-rule="evenodd" clip-rule="evenodd" d="M0.00119836 9.0156C0.0048063 11.0971 0.729721 13.1129 2.05251 14.7199C3.3753 16.3269 5.21418 17.4258 7.25603 17.8293C9.29788 18.2328 11.4164 17.916 13.251 16.9329C15.0856 15.9498 16.5227 14.3612 17.3177 12.4376C18.1126 10.5139 18.2163 8.37419 17.611 6.38269C17.0058 4.39118 15.729 2.67106 13.998 1.51521C12.2671 0.359353 10.1891 -0.160762 8.11778 0.0434218C6.04649 0.247606 4.11 1.16347 2.63805 2.63506C1.78593 3.46199 1.11232 4.45479 0.658805 5.5522C0.205287 6.6496 -0.0185199 7.82833 0.00119836 9.0156ZM14.7246 13.4872L4.54589 3.30775C5.89982 2.17748 7.63968 1.61708 9.39872 1.74467C11.1939 1.84264 12.8898 2.59994 14.1611 3.87132C15.4324 5.1427 16.1896 6.83867 16.2876 8.63401C16.4152 10.3932 15.8548 12.1331 14.7246 13.4872ZM3.30967 4.54198L13.4884 14.7214C12.1346 15.8518 10.3946 16.4123 8.63558 16.2845C6.84036 16.1865 5.1445 15.4292 3.8732 14.1578C2.60189 12.8864 1.84465 11.1905 1.74669 9.39513C1.61861 7.63592 2.17903 5.89576 3.30967 4.54198Z" fill="white"/>
</svg>
