<svg width="21" height="20" viewBox="0 0 21 20" fill="none" xmlns="http://www.w3.org/2000/svg">
<path fill-rule="evenodd" clip-rule="evenodd" d="M15.4222 11.4006C15.4172 10.2296 15.02 9.09651 14.2981 8.1941C13.5763 7.2917 12.5743 6.67572 11.4626 6.45097C10.351 6.22622 9.19835 6.40659 8.20083 6.96137C7.20331 7.51615 6.42252 8.41108 5.99126 9.49392C5.56001 10.5768 5.50492 11.7806 5.83541 12.9007C6.16589 14.0208 6.86151 14.9879 7.80394 15.6376C8.74636 16.2872 9.87738 16.5792 11.0046 16.4639C12.1318 16.3486 13.1855 15.8332 13.9866 15.0052C14.4511 14.5375 14.8182 13.9764 15.0651 13.3565C15.312 12.7366 15.4335 12.0709 15.4222 11.4006ZM13.4534 11.4006C13.4506 12.1034 13.2123 12.7835 12.7792 13.3251C12.3461 13.8668 11.7448 14.2366 11.0777 14.3715C10.4106 14.5065 9.7188 14.3984 9.1201 14.0655C8.52141 13.7327 8.05277 13.1956 7.79388 12.5458C7.535 11.896 7.50186 11.1735 7.70014 10.5013C7.89841 9.82907 8.31584 9.24862 8.8814 8.85871C9.44696 8.4688 10.1257 8.29351 10.8022 8.36266C11.4787 8.43181 12.1111 8.74113 12.5918 9.23799C12.8707 9.51854 13.091 9.85516 13.2391 10.2271C13.3873 10.5991 13.4602 10.9984 13.4534 11.4006ZM9.80291 10.68C9.8933 10.5838 10.0018 10.5079 10.1217 10.4569C10.2416 10.4058 10.3704 10.3808 10.5 10.3832C10.674 10.3832 10.841 10.3118 10.964 10.1845C11.0871 10.0573 11.1562 9.88472 11.1562 9.70478C11.1562 9.52484 11.0871 9.35226 10.964 9.22503C10.841 9.09779 10.674 9.02631 10.5 9.02631C9.89204 9.03011 9.31002 9.28148 8.88012 9.72593C8.45022 10.1704 8.20709 10.7721 8.20341 11.4006C8.20341 11.5806 8.27255 11.7531 8.39562 11.8804C8.51869 12.0076 8.68561 12.0791 8.85966 12.0791C9.03371 12.0791 9.20063 12.0076 9.3237 11.8804C9.44678 11.7531 9.51591 11.5806 9.51591 11.4006C9.51349 11.2666 9.53772 11.1335 9.58708 11.0095C9.63645 10.8855 9.70991 10.7734 9.80291 10.68ZM19.0312 5.25225V17.4646H1.96877V5.25225H6.93175L7.91582 2.5384H13.0842L14.0682 5.25225H19.0312ZM7.91582 0.503008C7.64739 0.502015 7.3818 0.559763 7.13649 0.672468C6.89636 0.781729 6.68024 0.940342 6.50125 1.13865C6.322 1.3384 6.17629 1.56771 6.07016 1.81712L5.57842 3.21686H1.96877C1.7099 3.21566 1.45337 3.26749 1.21398 3.36935C0.974601 3.47122 0.757105 3.6211 0.574059 3.81034C0.391013 3.99958 0.246037 4.22443 0.147508 4.47192C0.0489797 4.7194 -0.00113862 4.98463 1.96261e-05 5.25225V17.4646C-0.00106083 17.7322 0.0491124 17.9974 0.147668 18.2448C0.246225 18.4923 0.391207 18.7171 0.574237 18.9063C0.757268 19.0955 0.974726 19.2454 1.21407 19.3473C1.45342 19.4492 1.70992 19.5011 1.96877 19.5H19.0312C19.2901 19.5011 19.5466 19.4492 19.7859 19.3473C20.0253 19.2454 20.2427 19.0955 20.4257 18.9063C20.6088 18.7171 20.7538 18.4923 20.8523 18.2448C20.9509 17.9974 21.0011 17.7322 21 17.4646V5.25225C21.0011 4.98463 20.951 4.7194 20.8525 4.47192C20.7539 4.22443 20.609 3.99958 20.4259 3.81034C20.2429 3.6211 20.0254 3.47122 19.786 3.36935C19.5466 3.26749 19.2901 3.21566 19.0312 3.21686H15.4222L14.8476 1.60543C14.7434 1.26857 14.5336 0.977237 14.2513 0.777557C13.969 0.577877 13.6303 0.481264 13.2889 0.503008H7.91582Z" fill="white"/>
</svg>
