<svg xmlns="http://www.w3.org/2000/svg" width="25.375" height="25.188" viewBox="0 0 25.375 25.188">
  <defs>
    <style>
      .cls-1 {
        fill: #00bae9;
        fill-rule: evenodd;
      }
    </style>
  </defs>
  <path id="aang" class="cls-1" d="M272.692,285.446a12.692,12.692,0,0,1-2.185-25.2V270.9h-3.831a0.516,0.516,0,0,0-.5.325,0.549,0.549,0,0,0,.085.6l6.072,6.562a0.56,0.56,0,0,0,.41.171,0.542,0.542,0,0,0,.394-0.171l5.986-6.562a0.549,0.549,0,0,0,.085-0.6,0.5,0.5,0,0,0-.5-0.325h-3.831V260.252A12.692,12.692,0,0,1,272.692,285.446Z" transform="translate(-260 -260.25)"/>
</svg>
