<svg width="28" height="20" viewBox="0 0 28 20" fill="none" xmlns="http://www.w3.org/2000/svg">
<path fill-rule="evenodd" clip-rule="evenodd" d="M1.4 0C1.03025 0.00509374 0.677045 0.157236 0.415568 0.424049C0.154091 0.690862 0.00499186 1.05128 0 1.42857V18.5714C0.00499186 18.9487 0.154091 19.3091 0.415568 19.5759C0.677045 19.8427 1.03025 19.9949 1.4 20H26.6C26.9698 19.9949 27.323 19.8427 27.5844 19.5759C27.8459 19.3091 27.995 18.9487 28 18.5714V1.42857C27.995 1.05128 27.8459 0.690862 27.5844 0.424049C27.323 0.157236 26.9698 0.00509374 26.6 0H1.4ZM2.1 17.8571V2.14286H25.9V17.8571H2.1ZM16.4503 12.8571C16.4977 12.8636 16.546 12.8589 16.5913 12.8432C16.6366 12.8276 16.6778 12.8015 16.7116 12.767C16.7455 12.7324 16.771 12.6904 16.7864 12.6442C16.8017 12.5979 16.8064 12.5487 16.8 12.5003V11.0717C16.8065 11.0233 16.8019 10.974 16.7866 10.9277C16.7713 10.8813 16.7458 10.8393 16.7119 10.8047C16.6781 10.7701 16.6369 10.7439 16.5915 10.7282C16.5461 10.7126 16.4978 10.7078 16.4503 10.7143H12.9497C12.9022 10.7078 12.8539 10.7126 12.8085 10.7282C12.7631 10.7439 12.7219 10.7701 12.6881 10.8047C12.6542 10.8393 12.6287 10.8813 12.6134 10.9277C12.5981 10.974 12.5935 11.0233 12.6 11.0717V12.5003C12.5936 12.5487 12.5983 12.5979 12.6136 12.6442C12.629 12.6904 12.6545 12.7324 12.6884 12.767C12.7222 12.8015 12.7634 12.8276 12.8087 12.8432C12.854 12.8589 12.9023 12.8636 12.9497 12.8571H16.4503ZM19.9497 10.7143C19.9022 10.7078 19.8539 10.7126 19.8085 10.7282C19.7631 10.7439 19.7219 10.7701 19.6881 10.8047C19.6542 10.8393 19.6287 10.8813 19.6134 10.9277C19.5981 10.974 19.5935 11.0233 19.6 11.0717V12.5003C19.5936 12.5487 19.5983 12.5979 19.6136 12.6442C19.629 12.6904 19.6545 12.7324 19.6884 12.767C19.7222 12.8015 19.7634 12.8276 19.8087 12.8432C19.854 12.8589 19.9023 12.8636 19.9497 12.8571H23.4503C23.4977 12.8636 23.546 12.8589 23.5913 12.8432C23.6366 12.8276 23.6778 12.8015 23.7116 12.767C23.7455 12.7324 23.771 12.6904 23.7864 12.6442C23.8017 12.5979 23.8064 12.5487 23.8 12.5003V11.0717C23.8065 11.0233 23.8019 10.974 23.7866 10.9277C23.7713 10.8813 23.7458 10.8393 23.7119 10.8047C23.6781 10.7701 23.6369 10.7439 23.5915 10.7282C23.5461 10.7126 23.4978 10.7078 23.4503 10.7143H19.9497ZM23.4503 9.28571C23.4978 9.29222 23.5461 9.28744 23.5915 9.27176C23.6369 9.25609 23.6781 9.22994 23.7119 9.19534C23.7458 9.16075 23.7713 9.11867 23.7866 9.07234C23.8019 9.02601 23.8065 8.9767 23.8 8.92826V7.49969C23.8064 7.4513 23.8017 7.40207 23.7864 7.35582C23.771 7.30957 23.7455 7.26756 23.7116 7.23303C23.6778 7.19851 23.6366 7.17241 23.5913 7.15677C23.546 7.14113 23.4977 7.13637 23.4503 7.14286H12.9497C12.9023 7.13637 12.854 7.14113 12.8087 7.15677C12.7634 7.17241 12.7222 7.19851 12.6884 7.23303C12.6545 7.26756 12.629 7.30957 12.6136 7.35582C12.5983 7.40207 12.5936 7.4513 12.6 7.49969V8.92826C12.5935 8.9767 12.5981 9.02601 12.6134 9.07234C12.6287 9.11867 12.6542 9.16075 12.6881 9.19534C12.7219 9.22994 12.7631 9.25609 12.8085 9.27176C12.8539 9.28744 12.9022 9.29222 12.9497 9.28571H23.4503ZM9.87218 10.1505C10.0827 9.93253 10.2469 9.6727 10.3547 9.38717C10.4625 9.10163 10.5115 8.7965 10.4988 8.49078C10.5118 8.18637 10.4629 7.88253 10.3551 7.59839C10.2472 7.31426 10.0828 7.05602 9.87218 6.84001C9.6581 6.63158 9.40524 6.46906 9.12854 6.36207C8.85184 6.25509 8.55693 6.2058 8.26124 6.21714H5.6112C5.58533 6.2133 5.55893 6.21569 5.53412 6.22409C5.5093 6.2325 5.48675 6.24671 5.46827 6.26558C5.44978 6.28444 5.43586 6.30745 5.42762 6.33278C5.41938 6.3581 5.41705 6.38502 5.4208 6.41142V9.9092H4.59511C4.54461 9.9092 4.49618 9.9297 4.46048 9.96613C4.42477 10.0026 4.40471 10.052 4.40471 10.1035V10.5892C4.40471 10.6407 4.42477 10.6901 4.46048 10.7266C4.49618 10.763 4.54461 10.7835 4.59511 10.7835H5.4208V11.3968H4.59511C4.56923 11.393 4.54284 11.3954 4.51802 11.4038C4.49321 11.4122 4.47066 11.4264 4.45217 11.4453C4.43368 11.4641 4.41976 11.4871 4.41152 11.5125C4.40329 11.5378 4.40095 11.5647 4.40471 11.5911V11.9797C4.40095 12.0061 4.40329 12.033 4.41152 12.0583C4.41976 12.0837 4.43368 12.1067 4.45217 12.1255C4.47066 12.1444 4.49321 12.1586 4.51802 12.167C4.54284 12.1754 4.56923 12.1778 4.59511 12.174H5.4208V13.2756C5.41705 13.302 5.41938 13.3289 5.42762 13.3542C5.43586 13.3795 5.44978 13.4026 5.46827 13.4214C5.48675 13.4403 5.5093 13.4545 5.53412 13.4629C5.55893 13.4713 5.58533 13.4737 5.6112 13.4699H6.24586C6.27174 13.4737 6.29813 13.4713 6.32295 13.4629C6.34776 13.4545 6.37031 13.4403 6.3888 13.4214C6.40729 13.4026 6.42122 13.3795 6.42946 13.3542C6.4377 13.3289 6.44002 13.302 6.43626 13.2756V12.174H9.29289C9.31876 12.1778 9.34516 12.1754 9.36997 12.167C9.39479 12.1586 9.41734 12.1444 9.43583 12.1255C9.45431 12.1067 9.46823 12.0837 9.47647 12.0583C9.48471 12.033 9.48705 12.0061 9.48329 11.9797V11.5911C9.48705 11.5647 9.48471 11.5378 9.47647 11.5125C9.46823 11.4871 9.45431 11.4641 9.43583 11.4453C9.41734 11.4264 9.39479 11.4122 9.36997 11.4038C9.34516 11.3954 9.31876 11.393 9.29289 11.3968H6.43626V10.7816H8.26124C8.5576 10.7928 8.85312 10.7426 9.12997 10.6342C9.40683 10.5257 9.6593 10.3612 9.87218 10.1505ZM8.11813 7.10602C8.30019 7.09576 8.48242 7.12271 8.65413 7.18529C8.82583 7.24788 8.98357 7.34483 9.11805 7.47047C9.24374 7.60455 9.34103 7.76359 9.40387 7.93771C9.4667 8.11183 9.49374 8.29729 9.48329 8.48253C9.49359 8.67334 9.46582 8.86433 9.40165 9.04386C9.33747 9.22339 9.23824 9.38775 9.10996 9.52699C8.97606 9.65694 8.81763 9.75772 8.64434 9.82321C8.47105 9.8887 8.28651 9.91752 8.10195 9.90792H6.43565V7.10602H8.11564H8.11813Z" fill="#2A2A2A"/>
</svg>
