<svg width="17" height="17" viewBox="0 0 17 17" fill="none" xmlns="http://www.w3.org/2000/svg">
<path fill-rule="evenodd" clip-rule="evenodd" d="M12.5473 11.2875C12.518 11.2464 12.4791 11.2132 12.434 11.1907C12.3889 11.1682 12.339 11.1571 12.2886 11.1583H11.8365C12.9806 9.83861 13.5678 8.12641 13.4746 6.38232C13.3814 4.63823 12.615 2.99837 11.3368 1.80809C10.0586 0.617801 8.36843 -0.0300121 6.62213 0.00106885C4.87583 0.0321498 3.20974 0.739703 1.97472 1.97472C0.739703 3.20974 0.0321498 4.87583 0.00106885 6.62213C-0.0300121 8.36843 0.617801 10.0586 1.80809 11.3368C2.99837 12.615 4.63823 13.3814 6.38232 13.4746C8.12641 13.5678 9.83861 12.9806 11.1583 11.8365V12.2886C11.1614 12.3382 11.1745 12.3866 11.1966 12.4311C11.2188 12.4755 11.2497 12.515 11.2875 12.5473L15.1965 16.4564C15.2269 16.5012 15.2678 16.5379 15.3157 16.5632C15.3636 16.5886 15.4169 16.6019 15.4711 16.6019C15.5252 16.6019 15.5786 16.5886 15.6264 16.5632C15.6743 16.5379 15.7152 16.5012 15.7456 16.4564L16.4564 15.7456C16.5012 15.7152 16.5379 15.6743 16.5632 15.6264C16.5886 15.5786 16.6019 15.5252 16.6019 15.4711C16.6019 15.4169 16.5886 15.3636 16.5632 15.3157C16.5379 15.2678 16.5012 15.2269 16.4564 15.1965L12.5473 11.2875ZM1.59562 6.76454C1.592 5.5644 2.00485 4.40017 2.76376 3.47044C3.52267 2.54072 4.58062 1.90307 5.75717 1.66627C6.93372 1.42947 8.15597 1.60819 9.21547 2.17193C10.275 2.73568 11.1061 3.64952 11.567 4.75761C12.028 5.8657 12.0902 7.0994 11.7431 8.24826C11.396 9.39712 10.6611 10.39 9.66377 11.0575C8.66639 11.725 7.46833 12.0258 6.27392 11.9087C5.07951 11.7915 3.96276 11.2636 3.11413 10.4149C2.62502 9.94252 2.23793 9.37487 1.97675 8.74702C1.71558 8.11917 1.58587 7.44447 1.59562 6.76454Z" fill="#2A2A2A"/>
</svg>
