<svg width="25" height="22" viewBox="0 0 25 22" fill="none" xmlns="http://www.w3.org/2000/svg">
<path fill-rule="evenodd" clip-rule="evenodd" d="M23.3283 7.26556C23.2883 7.19566 23.2307 7.13644 23.1609 7.09321C23.0911 7.04998 23.0111 7.0241 22.9283 7.01793C22.8395 7.01176 22.7504 7.02249 22.6659 7.04951C22.5815 7.07652 22.5035 7.11928 22.4363 7.17534L21.6363 7.94C21.5442 8.05641 21.4947 8.19883 21.4957 8.34504C21.4958 8.43694 21.5118 8.52819 21.543 8.61507C22.0096 9.32932 22.2535 10.1569 22.2456 10.9999C22.2442 12.2404 21.7302 13.4297 20.8164 14.3068C19.9026 15.184 18.6635 15.6773 17.3712 15.6787H6.91821L9.4961 13.2043C9.56113 13.1619 9.61438 13.105 9.65119 13.0383C9.68799 12.9717 9.70723 12.8974 9.70723 12.8219C9.70723 12.7465 9.68799 12.6722 9.65119 12.6056C9.61438 12.539 9.56113 12.482 9.4961 12.4396L8.74613 11.7198C8.70201 11.6573 8.64265 11.6062 8.57322 11.5709C8.50379 11.5356 8.42641 11.5171 8.34783 11.5171C8.26924 11.5171 8.19184 11.5356 8.12241 11.5709C8.05298 11.6062 7.99362 11.6573 7.9495 11.7198L3.075 16.3986C3.01057 16.4361 2.95731 16.4889 2.92034 16.552C2.88338 16.615 2.86395 16.6861 2.86395 16.7585C2.86395 16.8308 2.88338 16.902 2.92034 16.965C2.95731 17.028 3.01057 17.0809 3.075 17.1184L7.9495 21.7978C7.99372 21.8601 8.05311 21.9111 8.12253 21.9464C8.19195 21.9816 8.2693 22 8.34783 22C8.42635 22 8.50368 21.9816 8.5731 21.9464C8.64252 21.9111 8.70191 21.8601 8.74613 21.7978L9.4961 21.078C9.56168 21.0357 9.61543 20.9785 9.65259 20.9116C9.68974 20.8446 9.70917 20.7699 9.70917 20.6941C9.70917 20.6182 9.68974 20.5435 9.65259 20.4766C9.61543 20.4096 9.56168 20.3525 9.4961 20.3101L6.9222 17.8383H17.3752C18.3108 17.8386 19.2374 17.662 20.102 17.3184C20.9665 16.9749 21.752 16.4712 22.4137 15.8361C23.0753 15.2011 23.6001 14.4471 23.958 13.6172C24.3159 12.7874 24.4999 11.898 24.4996 10.9999C24.515 9.66959 24.1063 8.36656 23.3283 7.26556ZM2.75035 10.9999C2.75229 9.7594 3.26654 8.57026 4.18039 7.6931C5.09424 6.81593 6.33312 6.32233 7.6255 6.32047H18.0785L15.4999 8.79488C15.4343 8.8372 15.3806 8.89436 15.3434 8.96131C15.3063 9.02826 15.2868 9.10295 15.2868 9.17881C15.2868 9.25467 15.3063 9.32936 15.3434 9.39631C15.3806 9.46326 15.4343 9.5204 15.4999 9.56272L16.2499 10.2826C16.2941 10.3454 16.3537 10.3969 16.4234 10.4324C16.4931 10.468 16.5709 10.4866 16.6499 10.4866C16.7288 10.4866 16.8066 10.468 16.8763 10.4324C16.9461 10.3969 17.0057 10.3454 17.0499 10.2826L21.9243 5.60316C21.9888 5.56562 22.042 5.5128 22.079 5.44975C22.116 5.38671 22.1354 5.31557 22.1354 5.24323C22.1354 5.17088 22.116 5.09977 22.079 5.03672C22.042 4.97368 21.9888 4.92083 21.9243 4.8833L17.0499 0.204493C17.0058 0.141541 16.9462 0.0899687 16.8765 0.0543061C16.8067 0.0186436 16.7289 0 16.6499 0C16.5708 0 16.493 0.0186436 16.4233 0.0543061C16.3535 0.0899687 16.294 0.141541 16.2499 0.204493L15.4999 0.924356C15.4349 0.9667 15.3816 1.02369 15.3448 1.09034C15.308 1.15699 15.2888 1.23126 15.2888 1.30669C15.2888 1.38211 15.308 1.45641 15.3448 1.52305C15.3816 1.5897 15.4349 1.64667 15.4999 1.68902L18.0785 4.16343H7.6255C6.6897 4.16301 5.76299 4.33961 4.89834 4.68316C4.03369 5.0267 3.24804 5.53045 2.58633 6.16559C1.92462 6.80074 1.3998 7.55484 1.04189 8.38478C0.683976 9.21472 0.499987 10.1042 0.500425 11.0025C0.484914 12.3329 0.89387 13.636 1.67238 14.7368C1.71216 14.8068 1.76964 14.8662 1.83953 14.9093C1.90942 14.9525 1.98948 14.9781 2.07237 14.9838C2.16115 14.9902 2.25037 14.9795 2.33483 14.9525C2.4193 14.9255 2.49732 14.8826 2.56436 14.8264L3.361 14.0617C3.45369 13.9456 3.5032 13.803 3.50166 13.6567C3.50113 13.5649 3.48538 13.4737 3.45499 13.3866C2.98791 12.6728 2.74384 11.8454 2.75169 11.0025L2.75035 10.9999Z" fill="white"/>
</svg>
