<svg xmlns="http://www.w3.org/2000/svg" width="174.75" height="177.282" viewBox="0 0 174.75 177.282">
  <defs>
    <style>
      .cls-1 {
        fill-rule: evenodd;
      }
    </style>
  </defs>
  <path id="finish" class="cls-1" d="M622.141,511A117.551,117.551,0,0,1,636,514.947q8.658,2.925,11.781,3.607l-0.056-23.545a116.126,116.126,0,0,1-13.859-3.949q-8.665-2.916-11.781-3.607Zm36.918-55.142q-9.009.021-27.022-6t-30.311-5.987a68.855,68.855,0,0,0-23.708,4.211,16.729,16.729,0,0,0,1.365-8.313,18.306,18.306,0,0,0-2.964-8.823,19.988,19.988,0,0,0-6.767-6.389,20.612,20.612,0,0,0-9.009-2.749,18.475,18.475,0,0,0-14.183,5.4,18.765,18.765,0,0,0-5.853,14.037,18.525,18.525,0,0,0,8.347,15.907l0.318,133.652a8.275,8.275,0,0,0,8.329,8.29l5.54-.013a8.276,8.276,0,0,0,8.291-8.33l-0.078-32.547a100.325,100.325,0,0,1,39.454-7.711q8.652-.021,26.849,5.822t30.656,5.814q21.815-.053,42.209-14.3a10.062,10.062,0,0,0,4.826-9.014l-0.2-84.138a10.2,10.2,0,0,0-5.216-9.336,11.125,11.125,0,0,0-10.735-.667q-23.524,11.141-40.138,11.175h0ZM571.312,540.2l-0.058-24.237a98.084,98.084,0,0,1,25.607-6.293l0.06,24.929a94.027,94.027,0,0,0-25.609,5.6h0ZM673,495.988l0.058,24.584a65.072,65.072,0,0,0,25.6-9.064l0.058,24.238q-12.795,8.34-25.6,9.755l-0.059-24.929a59.664,59.664,0,0,1-25.281-2.018l0.056,23.545q-21.83-6.87-25.64-7.557L622.141,511a89.617,89.617,0,0,0-25.28-1.325L596.8,485.435q-9.694,1.411-25.605,7.332l-0.058-24.237q19.022-7.317,25.605-7.678l0.058,24.583a59.853,59.853,0,0,1,25.281,2.018l-0.056-23.545q21.482,6.879,25.64,7.556l0.056,23.545a62.775,62.775,0,0,0,25.279.979l-0.059-24.93a111.593,111.593,0,0,0,25.6-8.024l0.059,24.583q-16.263,6.969-25.6,8.371h0Z" transform="translate(-540.594 -421.812)"/>
</svg>
