<svg width="28" height="20" viewBox="0 0 28 20" fill="none" xmlns="http://www.w3.org/2000/svg">
<path fill-rule="evenodd" clip-rule="evenodd" d="M25.1998 5.75667C25.1953 4.77331 24.8563 3.82188 24.2402 3.06424C23.6242 2.30659 22.7692 1.78951 21.8208 1.60098C20.8723 1.41244 19.889 1.5641 19.038 2.03013C18.1871 2.49617 17.5211 3.2478 17.1533 4.15717C16.7855 5.06655 16.7387 6.07749 17.0208 7.01803C17.3029 7.95857 17.8965 8.77063 18.7006 9.31604C19.5047 9.86145 20.4697 10.1065 21.4313 10.0096C22.393 9.91268 23.2919 9.47972 23.9753 8.78439C24.3716 8.39146 24.6847 7.92014 24.8953 7.39943C25.1059 6.87873 25.2095 6.31966 25.1998 5.75667ZM23.0999 5.75667C23.0979 6.24864 22.9284 6.7247 22.6204 7.10386C22.3123 7.48303 21.8847 7.74187 21.4102 7.83635C20.9358 7.93082 20.4438 7.85508 20.018 7.62203C19.5923 7.38897 19.259 7.01301 19.0749 6.55809C18.8909 6.10317 18.8674 5.59741 19.0085 5.12687C19.1496 4.65632 19.4466 4.25005 19.8489 3.9772C20.2511 3.70435 20.7339 3.58177 21.215 3.63031C21.6961 3.67885 22.1458 3.89552 22.4876 4.24345C22.6858 4.43972 22.8425 4.67526 22.9478 4.93553C23.0531 5.19579 23.1048 5.47526 23.0999 5.75667ZM10.3691 11.1435C9.7243 11.3475 9.05324 11.4525 8.37803 11.455C7.71713 11.4546 7.06031 11.3495 6.43118 11.1435C5.93387 10.9951 5.41819 10.9203 4.89995 10.9213C4.10211 10.8816 3.3078 11.0533 2.59467 11.4195C1.88154 11.7857 1.27399 12.334 0.831401 13.0106C0.281967 13.8551 -0.00745505 14.8471 0.000145964 15.8598V17.8631C-0.00100647 18.144 0.0525286 18.4225 0.157651 18.6822C0.262774 18.942 0.417406 19.1781 0.612631 19.3767C0.807856 19.5754 1.0398 19.7327 1.2951 19.8397C1.55039 19.9467 1.82397 20.0012 2.10006 20H14.6996C14.9757 20.0012 15.2493 19.9468 15.5046 19.8399C15.76 19.733 15.9919 19.5756 16.1872 19.3769C16.3824 19.1782 16.5371 18.9422 16.6422 18.6823C16.7472 18.4225 16.8007 18.1441 16.7995 17.8631V15.8598C16.8053 14.8408 16.4996 13.8451 15.9247 13.0106C15.4937 12.3328 14.8946 11.7828 14.1879 11.4159C13.4812 11.0491 12.6919 10.8784 11.8997 10.9213C11.3814 10.9203 10.8658 10.9952 10.3684 11.1435H10.3691ZM2.10318 17.8657V15.8624C2.10098 15.2463 2.29264 14.6457 2.65009 14.1484C2.98883 13.6499 3.46992 13.2693 4.02825 13.0581C4.47843 12.8797 4.97802 12.8797 5.4282 13.0581C7.34991 13.7698 9.45656 13.7698 11.3783 13.0581C11.8285 12.8797 12.328 12.8797 12.7782 13.0581C13.3491 13.2567 13.8407 13.6395 14.1782 14.1484C14.5226 14.651 14.7058 15.2497 14.7027 15.8624V17.8657H2.10318ZM13.3027 5.04438C13.3094 3.88287 12.9196 2.75502 12.2 1.85339C11.4804 0.95177 10.4755 0.332282 9.357 0.100698C8.23848 -0.130885 7.07563 0.0397943 6.06701 0.583598C5.05839 1.1274 4.26654 2.01061 3.82665 3.08243C3.38676 4.15424 3.3261 5.3482 3.65504 6.46045C3.98399 7.57271 4.68212 8.5343 5.63027 9.18103C6.57841 9.82777 7.71775 10.1196 8.85379 10.0066C9.98982 9.89359 11.0521 9.38284 11.8592 8.56153C12.3232 8.10672 12.6907 7.55999 12.9389 6.95507C13.1872 6.35015 13.311 5.69988 13.3027 5.04438ZM11.2028 5.04438C11.2118 5.71442 10.9917 6.3668 10.5801 6.88985C10.1684 7.4129 9.59093 7.77408 8.94643 7.91155C8.30193 8.04902 7.63051 7.95423 7.04712 7.64341C6.46373 7.3326 6.00467 6.82509 5.74851 6.20777C5.49236 5.59045 5.45505 4.90171 5.64297 4.25948C5.83089 3.61724 6.23235 3.06146 6.77863 2.68727C7.32491 2.31308 7.98202 2.14377 8.63747 2.20832C9.29291 2.27287 9.90593 2.56726 10.3716 3.0411C10.6368 3.2997 10.8472 3.61087 10.9898 3.95541C11.1323 4.29996 11.204 4.67057 11.2003 5.04438H11.2028ZM23.9336 11.0099C23.4593 11.0203 22.9884 11.0952 22.5337 11.2328C21.5336 11.5292 20.4712 11.5292 19.4712 11.2328C19.0164 11.0952 18.5456 11.0203 18.0713 11.0099C17.4992 11.0138 16.9337 11.135 16.4087 11.3664C16.6685 11.6246 16.9029 11.9079 17.1087 12.2123C17.2842 12.5077 17.4592 12.8342 17.6338 13.1917C17.7772 13.1622 17.9231 13.1471 18.0694 13.1468C18.4544 13.1853 18.8352 13.2599 19.2068 13.3697C20.3849 13.666 21.6162 13.666 22.7943 13.3697C23.1659 13.2599 23.5467 13.1853 23.9317 13.1468C24.2466 13.1253 24.5616 13.188 24.8454 13.3286C25.1291 13.4692 25.3718 13.6829 25.5494 13.9484C25.7779 14.2895 25.8997 14.6929 25.8991 15.1058V16.4411H18.2V17.8657C18.1997 18.1058 18.1704 18.345 18.1129 18.5779H26.25C26.481 18.5824 26.7105 18.5394 26.9248 18.4515C27.139 18.3636 27.3336 18.2327 27.497 18.0664C27.6603 17.9002 27.7891 17.7021 27.8754 17.4841C27.9618 17.2661 28.0041 17.0326 27.9997 16.7975V15.1513C28.0104 14.2958 27.7664 13.4571 27.2997 12.7454C26.9319 12.1861 26.4288 11.7326 25.8388 11.4285C25.2488 11.1244 24.5918 10.9801 23.9311 11.0093L23.9336 11.0099Z" fill="#2A2A2A"/>
</svg>
