<svg width="30" height="19" viewBox="0 0 30 19" fill="none" xmlns="http://www.w3.org/2000/svg">
<path fill-rule="evenodd" clip-rule="evenodd" d="M27.5662 0.493759C27.4685 0.344875 27.337 0.223011 27.1833 0.138759C27.0295 0.0545077 26.8581 0.0104432 26.6841 0.0104432C26.5101 0.0104432 26.3387 0.0545077 26.1849 0.138759C26.0312 0.223011 25.8997 0.344875 25.802 0.493759L17.7045 9.19307C14.5532 12.4509 15.5011 12.4887 12.3073 9.18697L4.21127 0.487657C4.11362 0.337511 3.98175 0.214504 3.82728 0.129444C3.67282 0.0443843 3.5005 -8.2963e-05 3.32548 -8.2963e-05C3.15047 -8.2963e-05 2.97815 0.0443843 2.82369 0.129444C2.66922 0.214504 2.53735 0.337511 2.4397 0.487657L0.467378 2.63503C0.324694 2.72456 0.206752 2.85056 0.124886 3.00093C0.0430206 3.1513 0 3.32097 0 3.49352C0 3.66607 0.0430206 3.83568 0.124886 3.98605C0.206752 4.13642 0.324694 4.26247 0.467378 4.352L14.1703 18.5166C14.268 18.6655 14.3995 18.7873 14.5532 18.8716C14.707 18.9559 14.8784 18.9999 15.0524 18.9999C15.2264 18.9999 15.3978 18.9559 15.5516 18.8716C15.7053 18.7873 15.8368 18.6655 15.9345 18.5166L29.5326 4.352C29.6753 4.26247 29.7932 4.13642 29.8751 3.98605C29.957 3.83568 30 3.66607 30 3.49352C30 3.32097 29.957 3.1513 29.8751 3.00093C29.7932 2.85056 29.6753 2.72456 29.5326 2.63503L27.5662 0.493759Z" fill="#868686"/>
</svg>
