<svg width="14" height="18" viewBox="0 0 14 18" fill="none" xmlns="http://www.w3.org/2000/svg">
<path fill-rule="evenodd" clip-rule="evenodd" d="M10.4272 0.49225C10.2663 0.333001 10.0733 0.207193 9.86011 0.122581C9.64689 0.0379678 9.41799 -0.00366294 9.18746 0.000252672H1.74998C1.5199 -0.000673417 1.2919 0.0423469 1.07915 0.126822C0.866405 0.211298 0.673113 0.335567 0.510422 0.492448C0.347731 0.649329 0.21886 0.835719 0.131256 1.04087C0.0436524 1.24602 -0.000945197 1.46587 1.5187e-05 1.68773V16.3125C-0.000807123 16.5343 0.0438884 16.7541 0.131541 16.9592C0.219194 17.1643 0.348059 17.3507 0.510722 17.5075C0.673386 17.6644 0.866626 17.7886 1.07931 17.8732C1.292 17.9577 1.51994 18.0008 1.74998 18H12.2498C12.4798 18.0009 12.7078 17.9579 12.9206 17.8734C13.1333 17.789 13.3266 17.6647 13.4893 17.5078C13.652 17.3509 13.7809 17.1645 13.8685 16.9594C13.9561 16.7542 14.0007 16.5344 13.9997 16.3125V4.64069C14.0038 4.41839 13.9606 4.19766 13.8729 3.99206C13.7851 3.78646 13.6547 3.60035 13.4895 3.44521L10.4272 0.49225ZM9.33316 4.50019V1.82823L12.1056 4.5017H9.33471L9.33316 4.50019ZM1.74998 1.68773H7.5832V5.34368C7.58286 5.45461 7.60526 5.56451 7.64912 5.66705C7.69298 5.7696 7.75744 5.86277 7.83878 5.9412C7.92012 6.01964 8.01674 6.0818 8.12308 6.12409C8.22943 6.16639 8.3434 6.18799 8.45843 6.18766H12.2498V16.3125H1.74998V1.68773Z" fill="#868686"/>
</svg>
