<svg width="20" height="20" viewBox="0 0 20 20" fill="none" xmlns="http://www.w3.org/2000/svg">
<path fill-rule="evenodd" clip-rule="evenodd" d="M8.75037 5.66649L9.922 6.83867C9.7921 6.23942 9.79847 5.61865 9.94064 5.0222C10.0828 4.42575 10.3572 3.86885 10.7434 3.39263C11.1297 2.91642 11.618 2.53305 12.1722 2.27084C12.7265 2.00864 13.3326 1.87429 13.9458 1.87772H13.9846L11.7581 4.10431L12.3441 7.65975L15.8996 8.24584L18.1262 6.01925C18.1329 6.56991 18.0292 7.11634 17.8212 7.62625C17.6132 8.13616 17.3051 8.59919 16.9151 8.98804C16.5471 9.32914 16.1246 9.6063 15.6652 9.80802C15.6907 9.83468 15.7174 9.86079 15.7435 9.88634C15.7985 9.92132 15.8507 9.96051 15.8996 10.0036L17.0718 11.2146C17.4989 10.966 17.8927 10.664 18.2434 10.3158C18.9689 9.56684 19.4929 8.64642 19.7667 7.6403C20.0524 6.63998 20.0658 5.58155 19.8056 4.5743C19.7606 4.33829 19.6481 4.12039 19.4818 3.94703C19.3154 3.77368 19.1023 3.65233 18.8684 3.59767C18.6361 3.52772 18.389 3.52355 18.1545 3.58563C17.92 3.64771 17.7073 3.77361 17.5401 3.94932L15.2357 6.25368L13.9858 6.01925L13.7513 4.76929L16.0557 2.46493C16.2403 2.30809 16.3741 2.09994 16.4402 1.8669C16.5063 1.63387 16.5016 1.38645 16.4268 1.15607C16.3684 0.918663 16.2438 0.702732 16.0674 0.533379C15.8911 0.364027 15.6703 0.248224 15.4307 0.199443C14.4178 -0.0609176 13.3548 -0.0542164 12.3453 0.218889C11.3383 0.487293 10.4213 1.01989 9.68923 1.7616C9.31433 2.16587 8.98668 2.61152 8.7126 3.08991L8.75148 3.12878V5.66759L8.75037 5.66649ZM3.20388 18.1272C2.94112 18.1278 2.6841 18.0503 2.46547 17.9046C2.24684 17.7588 2.07646 17.5514 1.97597 17.3086C1.87547 17.0659 1.8494 16.7987 1.90107 16.5411C1.95273 16.2834 2.0798 16.047 2.26613 15.8617L7.50041 10.6247L6.17211 9.29637L0.938395 14.5306C0.337551 15.1315 -1.675e-08 15.9464 0 16.7961C1.675e-08 17.6459 0.337551 18.4608 0.938395 19.0616C1.53924 19.6625 2.35416 20 3.20388 20C4.0536 20 4.86851 19.6625 5.46936 19.0616L9.41368 15.1173C9.02771 14.5082 8.81191 13.8069 8.7887 13.0862L4.14051 17.7344C4.01929 17.8599 3.87366 17.9593 3.71257 18.0264C3.55148 18.0934 3.37836 18.1268 3.20388 18.1244V18.1272ZM15.0002 10.898C14.5675 10.4608 14.0062 10.1734 13.3986 10.078C12.8112 9.96806 12.204 10.0646 11.6797 10.3513L7.50041 6.17147V3.74988L2.50057 0L0.00064424 2.49992L3.75053 7.49976H6.17211L10.352 11.6791C10.0645 12.2031 9.96793 12.8106 10.0787 13.3979C10.1735 14.0058 10.4609 14.5672 10.8986 14.9995L15.469 19.5699C15.6031 19.7084 15.7641 19.818 15.9421 19.8918C16.1201 19.9657 16.3113 20.0023 16.504 19.9994C16.6913 20.0045 16.8774 19.9687 17.0495 19.8946C17.2215 19.8204 17.3753 19.7096 17.5001 19.5699L19.5706 17.4994C19.7065 17.3675 19.8145 17.2096 19.8882 17.0352C19.962 16.8608 20 16.6733 20 16.4839C20 16.2945 19.962 16.1071 19.8882 15.9326C19.8145 15.7582 19.7065 15.6003 19.5706 15.4684L15.0002 10.898Z" fill="#2A2A2A"/>
</svg>
