<svg width="18" height="14" viewBox="0 0 18 14" fill="none" xmlns="http://www.w3.org/2000/svg">
<path fill-rule="evenodd" clip-rule="evenodd" d="M0.983946 1.02428C0.665616 1.34567 0.414131 1.73133 0.24499 2.15746C0.0758489 2.5836 -0.00735702 3.04116 0.000510102 3.50194V10.4981C-0.00127355 10.9579 0.0847151 11.4137 0.25351 11.8389C0.422305 12.2641 0.670569 12.6505 0.983984 12.9757C1.2974 13.3009 1.66977 13.5585 2.0796 13.7336C2.48944 13.9088 2.92864 13.998 3.37187 13.9961H6.32169C6.37896 14.0046 6.43734 13.9991 6.49221 13.9802C6.54709 13.9612 6.59695 13.9292 6.63785 13.8868C6.67875 13.8443 6.70957 13.7926 6.72786 13.7357C6.74615 13.6787 6.75142 13.6181 6.74324 13.5587V12.6845C6.75142 12.6251 6.74615 12.5645 6.72786 12.5075C6.70957 12.4506 6.67875 12.3989 6.63785 12.3564C6.59695 12.314 6.54709 12.282 6.49221 12.263C6.43734 12.2441 6.37896 12.2386 6.32169 12.2471H3.37187C3.15023 12.2481 2.93058 12.2036 2.72562 12.116C2.52066 12.0285 2.33443 11.8997 2.1777 11.7371C2.02098 11.5745 1.89685 11.3813 1.81249 11.1686C1.72813 10.9559 1.6852 10.728 1.68619 10.4981V3.50194C1.6852 3.27197 1.72813 3.04406 1.81249 2.8314C1.89685 2.61873 2.02098 2.42552 2.1777 2.2629C2.33443 2.10029 2.52066 1.97149 2.72562 1.88396C2.93058 1.79643 3.15023 1.75188 3.37187 1.75291H6.32169C6.37896 1.7614 6.43734 1.75594 6.49221 1.73696C6.54709 1.71798 6.59695 1.68601 6.63785 1.64357C6.67875 1.60113 6.70957 1.54939 6.72786 1.49245C6.74615 1.43552 6.75142 1.37494 6.74324 1.31553V0.441268C6.75142 0.381854 6.74615 0.321282 6.72786 0.264344C6.70957 0.207407 6.67875 0.155669 6.63785 0.113231C6.59695 0.0707917 6.54709 0.0388214 6.49221 0.0198421C6.43734 0.000862736 6.37896 -0.00460294 6.32169 0.00388457H3.37187C2.92777 -0.00437038 2.48675 0.0819147 2.07604 0.257417C1.66533 0.43292 1.29365 0.693911 0.983946 1.02428ZM10.8168 1.42488C10.7677 1.45915 10.7275 1.50545 10.6996 1.55967C10.6718 1.61389 10.6572 1.67438 10.6572 1.73582C10.6572 1.79725 10.6718 1.85774 10.6996 1.91197C10.7275 1.96619 10.7677 2.01248 10.8168 2.04676L14.7851 6.05474H6.04099C5.98373 6.04626 5.92535 6.05172 5.87048 6.0707C5.8156 6.08968 5.76574 6.12165 5.72483 6.16409C5.68393 6.20653 5.65312 6.25827 5.63483 6.3152C5.61654 6.37214 5.61127 6.43271 5.61945 6.49213V7.51202C5.61127 7.57143 5.61654 7.632 5.63483 7.68894C5.65312 7.74588 5.68393 7.79762 5.72483 7.84005C5.76574 7.88249 5.8156 7.91446 5.87048 7.93344C5.92535 7.95242 5.98373 7.95789 6.04099 7.9494H14.7851L10.8168 11.9579C10.7681 11.9922 10.7282 12.0384 10.7007 12.0923C10.6731 12.1463 10.6587 12.2065 10.6587 12.2676C10.6587 12.3286 10.6731 12.3888 10.7007 12.4428C10.7282 12.4968 10.7681 12.5429 10.8168 12.5772L11.4841 13.2696C11.5172 13.3201 11.5616 13.3615 11.6137 13.3901C11.6657 13.4187 11.7237 13.4337 11.7826 13.4337C11.8414 13.4337 11.8994 13.4187 11.9514 13.3901C12.0034 13.3615 12.0479 13.3201 12.081 13.2696L17.8408 7.29385C17.8898 7.25949 17.93 7.21317 17.9577 7.15896C17.9855 7.10475 18 7.04429 18 6.9829C18 6.92151 17.9855 6.86106 17.9577 6.80685C17.93 6.75264 17.8898 6.70632 17.8408 6.67196L12.081 0.69624C12.0434 0.65046 11.9961 0.614345 11.9428 0.590737C11.8895 0.56713 11.8317 0.556682 11.7739 0.560198C11.716 0.563714 11.6597 0.581095 11.6094 0.610997C11.5592 0.640899 11.5163 0.682502 11.4841 0.73252L10.8168 1.42488Z" fill="#0BACF0"/>
</svg>
