<svg width="20" height="20" viewBox="0 0 20 20" fill="none" xmlns="http://www.w3.org/2000/svg">
<path fill-rule="evenodd" clip-rule="evenodd" d="M17.0519 2.94481C16.1427 1.99425 15.0468 1.24207 13.8331 0.735539C12.6193 0.229005 11.314 -0.0209503 9.99914 0.00137384C7.4392 0.0064616 4.97808 0.990607 3.11989 2.75222C1.2617 4.51384 0.147063 6.9196 0.00429635 9.47675C0.0006042 9.54687 0.0112547 9.61701 0.0355975 9.68288C0.0599403 9.74874 0.0974686 9.80894 0.145873 9.8598C0.190307 9.90585 0.243819 9.94217 0.303018 9.96646C0.362216 9.99074 0.425805 10.0025 0.489767 10.0009H1.61833C1.68087 10.0125 1.74527 10.0095 1.80644 9.99201C1.86761 9.97451 1.92387 9.94302 1.97079 9.90003C2.01771 9.85704 2.05399 9.80373 2.07678 9.7443C2.09956 9.68487 2.10822 9.62095 2.10208 9.55759C2.20219 7.53357 3.09208 5.62964 4.58045 4.25508C5.29791 3.55681 6.14595 3.00693 7.07604 2.63686C8.00613 2.2668 9.00002 2.08383 10.0009 2.09842C11.0413 2.08345 12.0739 2.27936 13.0366 2.67435C13.9993 3.06934 14.8721 3.65524 15.6024 4.39672L13.386 6.61418C13.3205 6.67856 13.2773 6.76226 13.2629 6.85298C13.2485 6.9437 13.2635 7.03667 13.3057 7.11822C13.3361 7.21033 13.3959 7.28985 13.476 7.34448C13.5561 7.39911 13.652 7.42581 13.7488 7.42043H19.5119C19.5777 7.42982 19.6447 7.42377 19.7076 7.40277C19.7706 7.38177 19.8278 7.34639 19.8748 7.29943C19.9217 7.25247 19.9571 7.19523 19.9781 7.13222C19.999 7.06922 20.0051 7.0022 19.9957 6.93645V1.16717C20.0009 1.07023 19.9741 0.974267 19.9194 0.894069C19.8647 0.81387 19.7852 0.75387 19.6931 0.723324C19.6114 0.681473 19.5185 0.666751 19.4279 0.68129C19.3373 0.695829 19.2537 0.738885 19.1893 0.80419L17.0519 2.94481ZM18.3817 9.99799C18.3191 9.98632 18.2547 9.98935 18.1936 10.0068C18.1324 10.0243 18.0761 10.0558 18.0292 10.0988C17.9823 10.1418 17.946 10.1951 17.9232 10.2546C17.9004 10.314 17.8918 10.3779 17.8979 10.4413C17.7973 12.4652 16.9075 14.3689 15.4196 15.7438C14.7021 16.4421 13.8541 16.9921 12.924 17.3621C11.9939 17.7322 11 17.9151 9.99914 17.9004C8.95873 17.9155 7.92606 17.7196 6.96336 17.3246C6.00066 16.9296 5.12788 16.3437 4.39761 15.6021L6.61403 13.3847C6.67937 13.3202 6.7224 13.2365 6.73684 13.1458C6.75127 13.0551 6.73635 12.9622 6.69427 12.8806C6.66383 12.7886 6.60395 12.7091 6.52387 12.6545C6.4438 12.5999 6.34799 12.5731 6.25122 12.5784H0.488052C0.42234 12.569 0.355338 12.5751 0.292365 12.5961C0.229392 12.6171 0.172171 12.6525 0.125233 12.6994C0.0782958 12.7464 0.0429365 12.8036 0.0219454 12.8666C0.000954188 12.9296 -0.00509086 12.9967 0.00429635 13.0624V18.8288C-0.000883323 18.9258 0.0259373 19.0217 0.0806209 19.1019C0.135305 19.1821 0.214819 19.2421 0.306927 19.2727C0.38859 19.3145 0.48146 19.3292 0.572056 19.3147C0.662651 19.3002 0.746255 19.2571 0.810737 19.1918L2.94636 17.0552C3.85556 18.0058 4.95146 18.758 6.16518 19.2645C7.37891 19.7711 8.68423 20.021 9.99914 19.9986C12.5591 19.9935 15.0202 19.0094 16.8784 17.2478C18.7366 15.4862 19.8512 13.0804 19.994 10.5232C19.9975 10.4531 19.9868 10.383 19.9624 10.3172C19.9381 10.2514 19.9007 10.1911 19.8524 10.1402C19.8078 10.0943 19.7543 10.0582 19.6951 10.0339C19.636 10.0096 19.5724 9.9978 19.5085 9.99915H18.38L18.3817 9.99799Z" fill="white"/>
</svg>
