<svg id="talk" xmlns="http://www.w3.org/2000/svg" xmlns:xlink="http://www.w3.org/1999/xlink" width="128" height="125" viewBox="0 0 128 125">
  <defs>
    <style>
      .cls-1 {
        fill: #00d33b;
      }

      .cls-1, .cls-2, .cls-3 {
        fill-rule: evenodd;
      }

      .cls-2 {
        fill: #0bacf0;
        filter: url(#filter);
      }

      .cls-3 {
        fill: #fff;
        filter: url(#filter-2);
      }
    </style>
    <filter id="filter" x="-9" y="-8" width="133" height="133" filterUnits="userSpaceOnUse">
      <feOffset result="offset" dx="5.734" dy="4.015" in="SourceAlpha"/>
      <feGaussianBlur result="blur" stdDeviation="4"/>
      <feFlood result="flood" flood-opacity="0.3"/>
      <feComposite result="composite" operator="in" in2="blur"/>
      <feBlend result="blend" in="SourceGraphic"/>
    </filter>
    <filter id="filter-2" x="14" y="43" width="81" height="35" filterUnits="userSpaceOnUse">
      <feOffset result="offset" dx="4.096" dy="2.868" in="SourceAlpha"/>
      <feGaussianBlur result="blur" stdDeviation="3.162"/>
      <feFlood result="flood" flood-opacity="0.25"/>
      <feComposite result="composite" operator="in" in2="blur"/>
      <feBlend result="blend" in="SourceGraphic"/>
    </filter>
  </defs>
  <path id="cloud_back" data-name="cloud back" class="cls-1" d="M99.333,122.529A44.987,44.987,0,0,1,85,125c-23.748,0-43-18.8-43-42S61.252,41,85,41s43,18.8,43,42a43.047,43.047,0,0,1-2.529,14.823v22.236c0,1.892-.538,2.47-2.53,2.47H99.333Z"/><path id="cloud" class="cls-2" d="M34,102a52.257,52.257,0,0,0,17,3A51,51,0,1,0,0,54,53.371,53.371,0,0,0,3,72V99c0,2.3.637,3,3,3H34Z"/><path id="dot" class="cls-3" d="M27,49a8,8,0,1,1-8,8A8,8,0,0,1,27,49Zm23,0a8,8,0,1,1-8,8A8,8,0,0,1,50,49Zm23,0a8,8,0,1,1-8,8A8,8,0,0,1,73,49Z"/>
</svg>
