<svg xmlns="http://www.w3.org/2000/svg" xmlns:xlink="http://www.w3.org/1999/xlink"><symbol id="icon-arr-down" viewBox="0 0 30 19"><path fill-rule="evenodd" clip-rule="evenodd" d="M27.566.494a1.08 1.08 0 00-.383-.355 1.038 1.038 0 00-.998 0 1.08 1.08 0 00-.383.355l-8.098 8.7c-3.15 3.257-2.203 3.295-5.397-.007L4.211.487A1.08 1.08 0 003.827.13a1.04 1.04 0 00-1.003 0 1.08 1.08 0 00-.384.359L.467 2.635a.99.99 0 00-.342.366 1.03 1.03 0 000 .985c.082.15.2.276.342.366L14.17 18.517c.098.149.23.27.383.355a1.038 1.038 0 00.999 0 1.08 1.08 0 00.383-.355L29.532 4.352a.99.99 0 00.342-.366 1.03 1.03 0 000-.985.99.99 0 00-.342-.366L27.566.494z"/></symbol><symbol id="icon-arr-left" viewBox="0 0 20 31"><path fill-rule="evenodd" clip-rule="evenodd" d="M19.006 28.066c.15-.098.271-.229.355-.383a1.038 1.038 0 000-.998 1.079 1.079 0 00-.355-.383l-8.7-8.098c-3.257-3.15-3.295-2.203.007-5.397l8.7-8.096c.15-.097.272-.23.358-.384a1.04 1.04 0 000-1.003 1.08 1.08 0 00-.359-.384L16.865.967a.991.991 0 00-.366-.342 1.031 1.031 0 00-.985 0 .99.99 0 00-.366.342L.983 14.67a1.08 1.08 0 00-.355.383 1.038 1.038 0 000 .999c.085.153.207.285.355.383l14.165 13.598a.99.99 0 00.366.342 1.03 1.03 0 00.985 0c.15-.082.276-.2.366-.342l2.141-1.967z"/></symbol><symbol id="icon-arr-right" viewBox="0 0 20 31"><path fill-rule="evenodd" clip-rule="evenodd" d="M.994 2.934c-.15.097-.271.229-.355.383a1.038 1.038 0 000 .998c.084.154.206.285.355.383l8.7 8.098c3.257 3.15 3.295 2.203-.007 5.397l-8.7 8.096c-.15.097-.272.23-.358.384a1.04 1.04 0 000 1.003c.086.155.209.287.359.384l2.147 1.973a.99.99 0 00.366.342 1.03 1.03 0 00.985 0 .99.99 0 00.366-.342L19.017 16.33c.149-.098.27-.23.355-.383a1.038 1.038 0 000-.999 1.08 1.08 0 00-.355-.383L4.852.967a.99.99 0 00-.366-.342 1.03 1.03 0 00-.985 0 .99.99 0 00-.366.342L.994 2.934z"/></symbol><symbol id="icon-arr-up" viewBox="0 0 30 19"><path fill-rule="evenodd" clip-rule="evenodd" d="M2.434 18.506c.097.15.229.271.383.355a1.038 1.038 0 00.998 0c.154-.084.285-.206.383-.355l8.098-8.7c3.15-3.257 2.203-3.295 5.397.007l8.096 8.7c.097.15.23.272.384.358a1.04 1.04 0 001.003 0 1.08 1.08 0 00.384-.359l1.973-2.147a.991.991 0 00.342-.366 1.03 1.03 0 000-.985.99.99 0 00-.342-.366L15.83.483a1.08 1.08 0 00-.383-.355 1.038 1.038 0 00-.999 0 1.08 1.08 0 00-.383.355L.467 14.648a.99.99 0 00-.342.366 1.03 1.03 0 000 .985c.082.15.2.276.342.366l1.967 2.141z"/></symbol><symbol id="icon-cargo" viewBox="0 0 26 20"><path fill-rule="evenodd" clip-rule="evenodd" d="M5.85 15.625v-15a.58.58 0 00-.182-.449A.628.628 0 005.2 0H.65a.648.648 0 00-.467.176.6.6 0 00-.182.45v.624a.58.58 0 00.182.45.628.628 0 00.467.175H3.9v15a.58.58 0 00.183.45.63.63 0 00.467.175h2.072c-.08.2-.12.411-.122.625 0 .497.206.974.571 1.326.366.351.862.549 1.38.549a1.99 1.99 0 001.378-.55c.366-.35.571-.828.571-1.325 0-.214-.042-.425-.122-.625h8.044c-.08.2-.121.411-.122.625 0 .497.205.974.57 1.326.367.351.863.549 1.38.549a1.99 1.99 0 001.379-.55c.365-.35.57-.828.57-1.325a1.7 1.7 0 00-.121-.625h3.371a.649.649 0 00.468-.175.6.6 0 00.183-.45v-.625a.58.58 0 00-.183-.45.627.627 0 00-.468-.175H5.85zM22.1 13.75c.343-.004.67-.137.914-.37.242-.234.381-.55.386-.88V5a1.243 1.243 0 00-.386-.879 1.344 1.344 0 00-.914-.37h-2.6V1.874a1.803 1.803 0 00-.146-.718 1.862 1.862 0 00-.423-.61 1.948 1.948 0 00-.634-.406 2.01 2.01 0 00-.747-.14h-3.9a2.01 2.01 0 00-.748.14 1.948 1.948 0 00-.633.406 1.864 1.864 0 00-.423.61 1.805 1.805 0 00-.146.718V3.75H9.1a1.344 1.344 0 00-.914.371 1.244 1.244 0 00-.386.88v7.5c.005.33.143.645.386.878.243.234.57.367.914.371h13zm-.65-8.125v6.25H19.5v-6.25h1.95zm-3.9-3.75V3.75h-3.9V1.875h3.9zm0 3.75v6.25h-3.9v-6.25h3.9zm-5.85 0v6.25H9.75v-6.25h1.95z"/></symbol><symbol id="icon-carrier" viewBox="0 0 27 20"><path fill-rule="evenodd" clip-rule="evenodd" d="M10.706 6.395l4.483 4.426 4.64-4.582-1.582-1.51a1.155 1.155 0 01-.263-1.354c.08-.238.236-.444.446-.585.21-.141.46-.21.713-.197h5.325a.82.82 0 01.607.234.8.8 0 01.237.6v5.258a1.13 1.13 0 01-.2.705 1.155 1.155 0 01-.591.44 1.187 1.187 0 01-1.371-.26l-1.53-1.562-5.853 5.78a.722.722 0 01-.58.287.733.733 0 01-.58-.286l-4.48-4.425-2.742 2.708a.724.724 0 01-.58.286.734.734 0 01-.58-.286l-.633-.625a.719.719 0 01-.29-.573.709.709 0 01.29-.573l3.955-3.906a.72.72 0 01.58-.287.73.73 0 01.58.287zM2.532 17.5V.834a.793.793 0 00-.237-.6.813.813 0 00-.607-.233H.844a.82.82 0 00-.606.234A.8.8 0 000 .834v17.499c.006.44.185.86.5 1.172.316.31.741.488 1.187.494h24.468a.82.82 0 00.606-.234.8.8 0 00.237-.599v-.833a.791.791 0 00-.237-.6.812.812 0 00-.606-.233H2.532z"/></symbol><symbol id="icon-close" viewBox="0 0 19 19"><path fill-rule="evenodd" clip-rule="evenodd" d="M18.758 2.14a.527.527 0 000-.889L17.748.242a.528.528 0 00-.888 0L9.5 7.562 2.14.242a.528.528 0 00-.888 0l-1.01 1.01a.528.528 0 000 .887L7.562 9.5l-7.32 7.36a.529.529 0 000 .889l1.01 1.009a.527.527 0 00.888 0l7.36-7.32 7.36 7.32a.528.528 0 00.888 0l1.01-1.01a.527.527 0 000-.888L11.44 9.5l7.317-7.36z"/></symbol><symbol id="icon-drivers" viewBox="0 0 25 20"><path fill-rule="evenodd" clip-rule="evenodd" d="M23.75 14.375V9.844a2.71 2.71 0 00-.82-1.992L19.647 4.57a2.71 2.71 0 00-1.991-.821H16.25V2.188A2.2 2.2 0 0014.063 0H4.69a2.2 2.2 0 00-2.188 2.188V3.75H.315a.278.278 0 00-.313.312v.626A.278.278 0 00.315 5h9.374a.278.278 0 00.312-.312v-.626a.277.277 0 00-.312-.312H4.377V2.188a.278.278 0 01.313-.313h9.373a.278.278 0 01.313.313v12.187H9.494a3.83 3.83 0 00-1.367-1.367 3.622 3.622 0 00-1.875-.508 3.759 3.759 0 00-1.875.508V11.25H2.502v5a3.75 3.75 0 107.5 0H15a3.75 3.75 0 107.499 0h1.875a.601.601 0 00.625-.625V15a.6.6 0 00-.625-.625h-.625zM4.377 16.25a1.867 1.867 0 11.547 1.328 1.807 1.807 0 01-.547-1.328zm13.28-10.625a.908.908 0 01.666.273l2.85 2.852h-4.922V5.625h1.405zm-.782 10.625a1.867 1.867 0 11.547 1.328 1.806 1.806 0 01-.547-1.328zm1.875-3.75a3.648 3.648 0 00-2.5.977v-2.852h5.625v3.556a3.573 3.573 0 00-3.125-1.68V12.5zm-8.749-3.438a.277.277 0 00-.312-.312H.315a.278.278 0 00-.313.312v.626A.278.278 0 00.315 10h9.374a.278.278 0 00.312-.312v-.626zm1.25-1.874v-.626a.279.279 0 00-.312-.312H1.565a.278.278 0 00-.313.312v.626a.278.278 0 00.313.312h9.374a.278.278 0 00.312-.312z"/></symbol><symbol id="icon-login" viewBox="0 0 18 14"><path fill-rule="evenodd" clip-rule="evenodd" d="M17.015 12.976c.319-.322.57-.707.74-1.133.17-.427.252-.884.245-1.345V3.502a3.596 3.596 0 00-.254-1.34 3.496 3.496 0 00-.73-1.138 3.355 3.355 0 00-1.097-.758 3.257 3.257 0 00-1.294-.262h-2.952a.36.36 0 00-.316.11.388.388 0 00-.106.327v.875a.4.4 0 00.106.328.37.37 0 00.316.109h2.952c.222-.001.442.044.647.131.205.088.392.216.548.379.157.163.281.356.366.568.084.213.127.441.126.67v6.997c.001.23-.042.458-.126.67a1.747 1.747 0 01-.366.569 1.677 1.677 0 01-.548.379 1.629 1.629 0 01-.647.131h-2.952a.361.361 0 00-.316.11.389.389 0 00-.106.328v.874a.4.4 0 00.106.328.371.371 0 00.316.11h2.952c.445.007.886-.079 1.297-.255a3.251 3.251 0 001.093-.766zM5.205 1.425a.386.386 0 000 .622L9.18 6.055H.426a.36.36 0 00-.317.11.39.39 0 00-.105.328v1.02a.4.4 0 00.105.328.371.371 0 00.317.109H9.18l-3.972 4.008a.385.385 0 000 .62l.668.692c.033.05.077.092.13.12a.35.35 0 00.467-.12l5.765-5.976a.386.386 0 000-.622L6.473.697A.376.376 0 006.166.56a.365.365 0 00-.29.172l-.67.692z"/></symbol><symbol id="icon-logout" viewBox="0 0 18 14"><path fill-rule="evenodd" clip-rule="evenodd" d="M.984 1.024c-.318.322-.57.707-.739 1.133-.17.427-.252.884-.244 1.345v6.996c-.002.46.084.916.253 1.34.168.426.417.813.73 1.138.313.325.686.582 1.096.758.41.175.849.264 1.292.262h2.95a.36.36 0 00.316-.11.39.39 0 00.105-.327v-.874a.4.4 0 00-.105-.329.371.371 0 00-.316-.109h-2.95a1.625 1.625 0 01-.646-.131 1.675 1.675 0 01-.548-.379 1.747 1.747 0 01-.366-.568 1.799 1.799 0 01-.126-.67V3.501c0-.23.042-.458.126-.67.085-.213.209-.406.366-.57.156-.162.343-.29.548-.378.205-.088.424-.132.646-.131h2.95a.36.36 0 00.316-.11.39.39 0 00.105-.327V.44a.4.4 0 00-.105-.328.37.37 0 00-.316-.11h-2.95a3.147 3.147 0 00-1.296.254c-.41.176-.782.437-1.092.767zm9.833.4a.371.371 0 00-.16.312.386.386 0 00.16.31l3.968 4.009H6.041a.36.36 0 00-.316.11.39.39 0 00-.106.327v1.02a.4.4 0 00.106.328.37.37 0 00.316.11h8.744l-3.968 4.008a.385.385 0 000 .62l.667.692c.033.05.078.091.13.12a.35.35 0 00.467-.12l5.76-5.976a.386.386 0 000-.622L12.08.696a.376.376 0 00-.307-.136.365.365 0 00-.29.173l-.667.692z"/></symbol><symbol id="icon-parts" viewBox="0 0 20 20"><path fill-rule="evenodd" clip-rule="evenodd" d="M8.75 5.666L9.922 6.84a4.094 4.094 0 014.024-4.961h.039l-2.227 2.226.586 3.556 3.556.586 2.226-2.227a4.122 4.122 0 01-1.21 2.969 4.5 4.5 0 01-1.25.82c.025.027.051.053.077.078.056.035.108.075.157.118l1.172 1.21c.427-.248.82-.55 1.171-.898a6.176 6.176 0 001.524-2.676c.285-1 .299-2.058.039-3.066a1.242 1.242 0 00-.938-.976 1.312 1.312 0 00-1.328.351l-2.304 2.305-1.25-.235-.235-1.25 2.305-2.304a1.222 1.222 0 00.37-1.309A1.29 1.29 0 0015.432.2a6.048 6.048 0 00-3.086.02A5.848 5.848 0 009.69 1.762c-.375.404-.702.85-.976 1.328l.038.039v2.539-.002zM3.204 18.127a1.326 1.326 0 01-.938-2.265L7.5 10.625 6.172 9.296.938 14.531a3.204 3.204 0 004.531 4.53l3.945-3.944a4.037 4.037 0 01-.625-2.03L4.14 17.733a1.278 1.278 0 01-.937.39v.003zM15 10.898a2.883 2.883 0 00-1.601-.82 2.59 2.59 0 00-1.72.273L7.5 6.171V3.75L2.5 0 0 2.5l3.75 5h2.422l4.18 4.18a2.58 2.58 0 00-.273 1.718c.095.608.382 1.17.82 1.601l4.57 4.57a1.41 1.41 0 001.035.43 1.29 1.29 0 00.996-.43l2.07-2.07a1.414 1.414 0 000-2.03L15 10.897z"/></symbol><symbol id="icon-payment" viewBox="0 0 28 20"><path fill-rule="evenodd" clip-rule="evenodd" d="M1.4 0C1.03.005.677.157.416.424.154.691.005 1.051 0 1.429V18.57c.005.378.154.738.416 1.005.261.267.614.419.984.424h25.2c.37-.005.723-.157.984-.424.262-.267.411-.627.416-1.005V1.43a1.463 1.463 0 00-.416-1.005A1.405 1.405 0 0026.6 0H1.4zm.7 17.857V2.143h23.8v15.714H2.1zm14.35-5a.304.304 0 00.262-.09.32.32 0 00.088-.267v-1.428a.322.322 0 00-.088-.267.31.31 0 00-.262-.09h-3.5a.306.306 0 00-.262.09.318.318 0 00-.088.267V12.5a.324.324 0 00.088.267.31.31 0 00.262.09h3.5zm3.5-2.143a.306.306 0 00-.262.09.318.318 0 00-.088.268V12.5a.324.324 0 00.088.267.31.31 0 00.262.09h3.5a.304.304 0 00.262-.09.32.32 0 00.088-.267v-1.428a.322.322 0 00-.088-.267.31.31 0 00-.262-.09h-3.5zm3.5-1.428a.305.305 0 00.262-.09.318.318 0 00.088-.268V7.5a.323.323 0 00-.088-.267.31.31 0 00-.262-.09h-10.5a.305.305 0 00-.262.09.319.319 0 00-.088.267v1.428a.323.323 0 00.088.267.31.31 0 00.262.09h10.5zm-13.578.864c.21-.217.375-.477.483-.763.107-.285.156-.59.144-.896a2.246 2.246 0 00-.144-.893 2.21 2.21 0 00-.483-.758 2.173 2.173 0 00-1.61-.623h-2.65a.165.165 0 00-.144.049.172.172 0 00-.047.145V9.91h-.826c-.05 0-.099.02-.135.057a.196.196 0 00-.055.138v.485c0 .052.02.101.055.138a.189.189 0 00.135.056h.826v.614h-.826a.165.165 0 00-.143.048.171.171 0 00-.047.146v.389a.175.175 0 00.047.146.167.167 0 00.143.048h.826v1.102a.175.175 0 00.047.145.167.167 0 00.143.049h.635a.165.165 0 00.143-.049.172.172 0 00.047-.145v-1.102h2.857a.165.165 0 00.143-.048.171.171 0 00.047-.146v-.389a.174.174 0 00-.047-.146.167.167 0 00-.143-.048H6.436v-.615h1.825a2.158 2.158 0 001.611-.632zM8.118 7.106a1.344 1.344 0 011 .364 1.356 1.356 0 01.365 1.013 1.438 1.438 0 01-.373 1.044 1.358 1.358 0 01-1.008.38H6.436V7.107h1.682z"/></symbol><symbol id="icon-profile" viewBox="0 0 26 20"><path fill-rule="evenodd" clip-rule="evenodd" d="M2.167 0A2.178 2.178 0 00.632.625 2.132 2.132 0 000 2.143v15.714a2.112 2.112 0 00.632 1.518A2.159 2.159 0 002.167 20h21.666a2.178 2.178 0 001.535-.625A2.131 2.131 0 0026 17.857V2.143a2.111 2.111 0 00-.632-1.518A2.159 2.159 0 0023.833 0H2.167zm11.51 17.857c.042-.325.057-.654.045-.982.001-.35-.078-.697-.23-1.014a2.354 2.354 0 00-.65-.817 3.174 3.174 0 00-2.144-.761c-.262.03-.52.09-.767.178a4.567 4.567 0 01-2.528 0 3.534 3.534 0 00-.768-.178 3.173 3.173 0 00-2.144.761c-.275.221-.497.5-.65.817a2.327 2.327 0 00-.23 1.014c-.012.328.003.657.045.982h-1.49V5h21.667v12.857H13.677zm7.629-3.571a.324.324 0 00.347-.213.315.315 0 00.014-.144v-.715a.315.315 0 00-.216-.343.326.326 0 00-.145-.014H16.25a.326.326 0 00-.27.09.315.315 0 00-.091.267v.715a.313.313 0 00.091.266.32.32 0 00.27.09h5.056zm0-2.857a.324.324 0 00.347-.213.315.315 0 00.014-.144v-.715a.315.315 0 00-.216-.343.324.324 0 00-.145-.014H16.25a.325.325 0 00-.347.213.313.313 0 00-.014.144v.715a.312.312 0 00.091.266.322.322 0 00.27.09h5.056zm0-2.858a.324.324 0 00.347-.213.315.315 0 00.014-.143V7.5a.315.315 0 00-.216-.343.324.324 0 00-.145-.014H16.25a.325.325 0 00-.347.213.313.313 0 00-.014.144v.715a.313.313 0 00.091.266.321.321 0 00.27.09h5.056zM11.556 10a2.877 2.877 0 00-.643-1.85 2.934 2.934 0 00-1.686-1.025 2.958 2.958 0 00-1.96.269 2.91 2.91 0 00-1.34 1.44 2.867 2.867 0 00-.108 1.953 2.9 2.9 0 001.172 1.577 2.955 2.955 0 003.707-.355A2.724 2.724 0 0011.556 10z"/></symbol><symbol id="icon-register" viewBox="0 0 18 14"><path fill-rule="evenodd" clip-rule="evenodd" d="M17.873 7.141a.478.478 0 01-.324.11h-1.925v1.892a.464.464 0 01-.112.32.36.36 0 01-.284.125h-.395a.365.365 0 01-.284-.125.463.463 0 01-.11-.32V7.251h-1.914a.478.478 0 01-.324-.11.357.357 0 01-.127-.28v-.39a.35.35 0 01.127-.28.478.478 0 01.324-.11h1.913V4.187a.463.463 0 01.111-.32.36.36 0 01.284-.126h.396a.365.365 0 01.283.126c.076.089.116.203.112.32V6.08h1.925a.478.478 0 01.324.11.356.356 0 01.127.28v.39a.353.353 0 01-.127.28zm-5.429 5.543a1.297 1.297 0 01-.388.932 1.33 1.33 0 01-.945.384H1.333a1.341 1.341 0 01-.944-.384A1.31 1.31 0 010 12.684v-.712c.006-.973.4-1.903 1.097-2.59a3.771 3.771 0 012.625-1.083c.365.024.725.098 1.07.22a4.78 4.78 0 002.86 0 3.999 3.999 0 011.07-.22 3.772 3.772 0 012.625 1.083 3.673 3.673 0 011.098 2.59v.712zm-1.333-.712a2.371 2.371 0 00-.708-1.659 2.435 2.435 0 00-1.68-.699c-.296.058-.588.131-.876.22a6.136 6.136 0 01-3.25 0 8.39 8.39 0 00-.875-.22 2.435 2.435 0 00-1.68.7c-.447.44-.7 1.035-.709 1.658v.712h9.778v-.712zM6.222 7.86a4.016 4.016 0 01-2.521-.901 3.92 3.92 0 01-1.37-2.274 3.884 3.884 0 01.4-2.617A3.965 3.965 0 014.723.296 4.033 4.033 0 017.4.171c.881.265 1.642.823 2.152 1.58a3.89 3.89 0 01-.497 4.958 3.86 3.86 0 01-1.296.865 3.903 3.903 0 01-1.538.286zm1.89-5.81a2.71 2.71 0 00-3.387-.341 2.65 2.65 0 00-1.083 1.43 2.614 2.614 0 00.085 1.782 2.66 2.66 0 001.212 1.324c.547.29 1.18.383 1.788.265a2.689 2.689 0 001.552-.917c.394-.473.61-1.067.61-1.68A2.51 2.51 0 008.11 2.05z"/></symbol><symbol id="icon-services" viewBox="0 0 19 20"><path fill-rule="evenodd" clip-rule="evenodd" d="M18.493 8.511a.93.93 0 00.428-.457.955.955 0 00.046-.63 10.131 10.131 0 00-2.564-4.467.857.857 0 00-1.144-.16l-1.223.724a9.206 9.206 0 00-1.301-.765V1.308a.974.974 0 00-.217-.604.975.975 0 00-.493-.362 9.486 9.486 0 00-5.05 0 .89.89 0 00-.534.345.922.922 0 00-.176.62v1.45a9.142 9.142 0 00-1.301.764l-1.223-.724a.857.857 0 00-1.144.16A10.118 10.118 0 00.033 7.424a.953.953 0 00.046.63c.086.199.238.36.428.457l1.222.725v1.53l-1.222.723a.929.929 0 00-.428.457.954.954 0 00-.046.63 10.114 10.114 0 002.564 4.467.857.857 0 001.144.16l1.223-.724c.413.291.848.547 1.301.765v1.448a.97.97 0 00.218.604.978.978 0 00.493.362 9.498 9.498 0 005.049 0 .89.89 0 00.534-.345.923.923 0 00.176-.62v-1.449a9.215 9.215 0 001.301-.765l1.223.725a.857.857 0 001.144-.16 10.124 10.124 0 002.564-4.467.955.955 0 00-.046-.63.93.93 0 00-.428-.458l-1.222-.724c.026-.509.026-1.02 0-1.529l1.222-.725zm-1.577 4.265a8.466 8.466 0 01-1.341 2.375l-1.736-1.006c-.449.376-.79.65-1.026.824a4.227 4.227 0 01-.75.443c-.26.121-.668.289-1.222.503v2.012a7.51 7.51 0 01-2.682 0v-2.011a12.809 12.809 0 01-1.597-.705 11.028 11.028 0 01-1.403-1.066l-1.735 1.006a8.452 8.452 0 01-1.342-2.374l1.736-1.006a6.74 6.74 0 010-3.54L2.082 7.223c.317-.86.77-1.662 1.342-2.374l1.735 1.006c.44-.392.909-.749 1.403-1.066.516-.27 1.05-.506 1.597-.704V2.074a7.51 7.51 0 012.682 0v2.012c.553.215.96.383 1.223.503.264.121.515.27.75.442.236.175.578.45 1.025.825l1.736-1.006a8.47 8.47 0 011.34 2.374L15.18 8.23a6.74 6.74 0 010 3.541l1.736 1.005zM5.713 10c.004.89.31 1.75.865 2.436A3.758 3.758 0 008.76 13.76c.856.171 1.743.034 2.511-.387a3.821 3.821 0 001.701-1.923 3.92 3.92 0 00.12-2.588 3.841 3.841 0 00-1.515-2.078 3.714 3.714 0 00-4.759.48c-.358.355-.64.78-.83 1.251-.19.471-.283.976-.275 1.485zm1.894 0c.002-.444.154-.875.432-1.217A1.879 1.879 0 019.13 8.12a1.853 1.853 0 011.255.193c.384.21.685.55.85.962.167.411.188.868.06 1.293a1.92 1.92 0 01-.757 1.04 1.857 1.857 0 01-2.38-.241A1.895 1.895 0 017.607 10z"/></symbol><symbol id="icon-toggle" viewBox="0 0 28 20"><path d="M0 0h28v4H0V0zM0 8h28v4.099H0V8zM0 16h28v4H0v-4z"/></symbol><symbol id="icon-tracking" viewBox="0 0 20 20"><path fill-rule="evenodd" clip-rule="evenodd" d="M6.562 10a3.47 3.47 0 101.016-2.422A3.302 3.302 0 006.562 10zm1.876 0a1.533 1.533 0 113.066.054A1.533 1.533 0 018.438 10zm8.983-.938a7.463 7.463 0 00-6.483-6.483V.625A.601.601 0 0010.312 0h-.624a.602.602 0 00-.626.625V2.58A7.464 7.464 0 002.58 9.062H.625A.602.602 0 000 9.688v.624a.602.602 0 00.625.626H2.58a7.463 7.463 0 006.483 6.483v1.954a.602.602 0 00.626.625h.624a.601.601 0 00.626-.625V17.42a7.463 7.463 0 006.483-6.483h1.954a.602.602 0 00.625-.626v-.624a.601.601 0 00-.625-.626H17.42zM4.375 10a5.6 5.6 0 111.64 3.984A5.425 5.425 0 014.376 10z"/></symbol><symbol id="icon-tracks" viewBox="0 0 25 20"><path fill-rule="evenodd" clip-rule="evenodd" d="M23.75 14.375V9.844a2.71 2.71 0 00-.821-1.992L19.648 4.57a2.71 2.71 0 00-1.992-.821H16.25V2.188A2.2 2.2 0 0014.062 0H2.188A2.2 2.2 0 000 2.188v11.874a2.2 2.2 0 002.188 2.188H2.5a3.75 3.75 0 107.5 0h5a3.75 3.75 0 007.5 0h1.875a.6.6 0 00.625-.625V15a.6.6 0 00-.625-.625h-.625zM4.375 16.25a1.867 1.867 0 11.547 1.328 1.807 1.807 0 01-.547-1.328zm5.117-1.875a3.83 3.83 0 00-1.367-1.367 3.715 3.715 0 00-3.75 0 3.82 3.82 0 00-1.367 1.367h-.82a.277.277 0 01-.313-.313V2.188a.278.278 0 01.313-.313h11.874a.278.278 0 01.313.313v12.187H9.492zm8.164-8.75a.909.909 0 01.666.273l2.852 2.852H16.25V5.625h1.406zm-.781 10.625a1.866 1.866 0 11.546 1.328 1.808 1.808 0 01-.546-1.328zm1.875-3.75a3.648 3.648 0 00-2.5.977v-2.852h5.625v3.556a3.574 3.574 0 00-3.125-1.68V12.5z"/></symbol><symbol id="icon-users" viewBox="0 0 28 20"><path fill-rule="evenodd" clip-rule="evenodd" d="M25.2 5.757a4.3 4.3 0 00-.96-2.693 4.167 4.167 0 00-2.42-1.463 4.117 4.117 0 00-2.782.43 4.23 4.23 0 00-1.885 2.126 4.324 4.324 0 00-.132 2.861c.282.94.875 1.753 1.68 2.298a4.125 4.125 0 005.274-.532 4.13 4.13 0 00.92-1.385c.21-.52.314-1.08.305-1.642zm-2.1 0a2.151 2.151 0 01-.48 1.347c-.308.379-.735.638-1.21.732a2.06 2.06 0 01-1.392-.214 2.116 2.116 0 01-.943-1.064 2.163 2.163 0 01-.066-1.431c.14-.47.438-.877.84-1.15a2.063 2.063 0 012.639.266 2.093 2.093 0 01.612 1.513zm-12.73 5.386a6.682 6.682 0 01-1.992.312c-.66 0-1.318-.105-1.947-.312a5.318 5.318 0 00-1.531-.222 4.55 4.55 0 00-2.305.498A4.644 4.644 0 00.83 13.011a5.156 5.156 0 00-.83 2.849v2.003a2.16 2.16 0 00.612 1.514A2.089 2.089 0 002.1 20h12.6a2.06 2.06 0 001.487-.623 2.13 2.13 0 00.612-1.514V15.86a4.974 4.974 0 00-.874-2.85 4.538 4.538 0 00-1.737-1.594 4.443 4.443 0 00-2.288-.495 5.322 5.322 0 00-1.532.223h.001zm-8.267 6.723v-2.004a2.92 2.92 0 01.547-1.714c.339-.498.82-.879 1.378-1.09.45-.178.95-.178 1.4 0a8.558 8.558 0 005.95 0c.45-.178.95-.178 1.4 0 .571.199 1.063.582 1.4 1.09.345.503.528 1.102.525 1.714v2.004h-12.6zm11.2-12.822a5.07 5.07 0 00-1.103-3.19A4.915 4.915 0 009.357.1a4.853 4.853 0 00-3.29.483 4.984 4.984 0 00-2.24 2.498 5.098 5.098 0 00-.172 3.378A5.01 5.01 0 005.63 9.181a4.863 4.863 0 006.23-.62 4.8 4.8 0 001.079-1.606 4.87 4.87 0 00.364-1.91zm-2.1 0a2.922 2.922 0 01-.623 1.846c-.412.523-.99.884-1.634 1.022a2.796 2.796 0 01-1.899-.269A2.87 2.87 0 015.75 6.208a2.937 2.937 0 01-.106-1.949 2.886 2.886 0 011.136-1.572 2.801 2.801 0 013.593.354c.265.259.475.57.618.914.142.345.214.716.21 1.09h.003zm12.73 5.966c-.474.01-.945.085-1.4.223-1 .296-2.062.296-3.062 0a5.23 5.23 0 00-1.4-.223 4.192 4.192 0 00-1.662.356c.26.259.494.542.7.846.175.296.35.622.525.98.143-.03.29-.045.435-.045.385.038.766.113 1.138.223a7.35 7.35 0 003.587 0c.372-.11.753-.185 1.138-.223.315-.022.63.041.913.182.284.14.527.354.704.62.229.34.35.744.35 1.157v1.335H18.2v1.425c0 .24-.03.479-.087.712h8.137a1.69 1.69 0 001.247-.512A1.75 1.75 0 0028 16.798V15.15a4.291 4.291 0 00-.7-2.406 3.875 3.875 0 00-1.461-1.316 3.796 3.796 0 00-1.908-.42h.003z"/></symbol><symbol id="icon-zoom" viewBox="0 0 17 17"><path fill-rule="evenodd" clip-rule="evenodd" d="M12.547 11.287a.308.308 0 00-.258-.129h-.453a6.742 6.742 0 10-.678.678v.453a.373.373 0 00.13.258l3.909 3.91a.33.33 0 00.549 0l.71-.711a.33.33 0 000-.55l-3.909-3.909zM1.596 6.765a5.185 5.185 0 111.518 3.65 4.975 4.975 0 01-1.518-3.65z"/></symbol> <view id="icon-arr-down-view-blue" viewBox="0 0 30 19"/><view id="icon-arr-down-view-black" viewBox="0 29 30 19"/><view id="icon-arr-down-view-dark" viewBox="0 58 30 19"/><view id="icon-arr-down-view-white" viewBox="0 87 30 19"/><view id="icon-arr-left-view-blue" viewBox="0 116 20 31"/><view id="icon-arr-left-view-black" viewBox="0 157 20 31"/><view id="icon-arr-left-view-dark" viewBox="0 198 20 31"/><view id="icon-arr-left-view-white" viewBox="0 239 20 31"/><view id="icon-arr-right-view-blue" viewBox="0 280 20 31"/><view id="icon-arr-right-view-black" viewBox="0 321 20 31"/><view id="icon-arr-right-view-dark" viewBox="0 362 20 31"/><view id="icon-arr-right-view-white" viewBox="0 403 20 31"/><view id="icon-arr-up-view-blue" viewBox="0 444 30 19"/><view id="icon-arr-up-view-black" viewBox="0 473 30 19"/><view id="icon-arr-up-view-dark" viewBox="0 502 30 19"/><view id="icon-arr-up-view-white" viewBox="0 531 30 19"/><view id="icon-cargo-view-blue" viewBox="0 560 26 20"/><view id="icon-cargo-view-black" viewBox="0 590 26 20"/><view id="icon-cargo-view-dark" viewBox="0 620 26 20"/><view id="icon-cargo-view-white" viewBox="0 650 26 20"/><view id="icon-carrier-view-blue" viewBox="0 680 27 20"/><view id="icon-carrier-view-black" viewBox="0 710 27 20"/><view id="icon-carrier-view-dark" viewBox="0 740 27 20"/><view id="icon-carrier-view-white" viewBox="0 770 27 20"/><view id="icon-close-view-blue" viewBox="0 800 19 19"/><view id="icon-close-view-black" viewBox="0 829 19 19"/><view id="icon-close-view-dark" viewBox="0 858 19 19"/><view id="icon-close-view-white" viewBox="0 887 19 19"/><view id="icon-drivers-view-blue" viewBox="0 916 25 20"/><view id="icon-drivers-view-black" viewBox="0 946 25 20"/><view id="icon-drivers-view-dark" viewBox="0 976 25 20"/><view id="icon-drivers-view-white" viewBox="0 1006 25 20"/><view id="icon-login-view-blue" viewBox="0 1036 18 14"/><view id="icon-login-view-black" viewBox="0 1060 18 14"/><view id="icon-login-view-dark" viewBox="0 1084 18 14"/><view id="icon-login-view-white" viewBox="0 1108 18 14"/><view id="icon-logout-view-blue" viewBox="0 1132 18 14"/><view id="icon-logout-view-black" viewBox="0 1156 18 14"/><view id="icon-logout-view-dark" viewBox="0 1180 18 14"/><view id="icon-logout-view-white" viewBox="0 1204 18 14"/><view id="icon-parts-view-blue" viewBox="0 1228 20 20"/><view id="icon-parts-view-black" viewBox="0 1258 20 20"/><view id="icon-parts-view-dark" viewBox="0 1288 20 20"/><view id="icon-parts-view-white" viewBox="0 1318 20 20"/><view id="icon-payment-view-blue" viewBox="0 1348 28 20"/><view id="icon-payment-view-black" viewBox="0 1378 28 20"/><view id="icon-payment-view-dark" viewBox="0 1408 28 20"/><view id="icon-payment-view-white" viewBox="0 1438 28 20"/><view id="icon-profile-view-blue" viewBox="0 1468 26 20"/><view id="icon-profile-view-black" viewBox="0 1498 26 20"/><view id="icon-profile-view-dark" viewBox="0 1528 26 20"/><view id="icon-profile-view-white" viewBox="0 1558 26 20"/><view id="icon-register-view-blue" viewBox="0 1588 18 14"/><view id="icon-register-view-black" viewBox="0 1612 18 14"/><view id="icon-register-view-dark" viewBox="0 1636 18 14"/><view id="icon-register-view-white" viewBox="0 1660 18 14"/><view id="icon-services-view-blue" viewBox="0 1684 19 20"/><view id="icon-services-view-black" viewBox="0 1714 19 20"/><view id="icon-services-view-dark" viewBox="0 1744 19 20"/><view id="icon-services-view-white" viewBox="0 1774 19 20"/><view id="icon-toggle-view-blue" viewBox="0 1804 28 20"/><view id="icon-toggle-view-black" viewBox="0 1834 28 20"/><view id="icon-toggle-view-dark" viewBox="0 1864 28 20"/><view id="icon-toggle-view-white" viewBox="0 1894 28 20"/><view id="icon-tracking-view-blue" viewBox="0 1924 20 20"/><view id="icon-tracking-view-black" viewBox="0 1954 20 20"/><view id="icon-tracking-view-dark" viewBox="0 1984 20 20"/><view id="icon-tracking-view-white" viewBox="0 2014 20 20"/><view id="icon-tracks-view-blue" viewBox="0 2044 25 20"/><view id="icon-tracks-view-black" viewBox="0 2074 25 20"/><view id="icon-tracks-view-dark" viewBox="0 2104 25 20"/><view id="icon-tracks-view-white" viewBox="0 2134 25 20"/><view id="icon-users-view-blue" viewBox="0 2164 28 20"/><view id="icon-users-view-black" viewBox="0 2194 28 20"/><view id="icon-users-view-dark" viewBox="0 2224 28 20"/><view id="icon-users-view-white" viewBox="0 2254 28 20"/><view id="icon-zoom-view-blue" viewBox="0 2284 17 17"/><view id="icon-zoom-view-black" viewBox="0 2311 17 17"/><view id="icon-zoom-view-dark" viewBox="0 2338 17 17"/><view id="icon-zoom-view-white" viewBox="0 2365 17 17"/> <use xlink:href="#icon-arr-down" x="0" y="0" width="30" height="19" style="fill:#0BACF0"/><use xlink:href="#icon-arr-down" x="0" y="29" width="30" height="19" style="fill:#2A2A2A"/><use xlink:href="#icon-arr-down" x="0" y="58" width="30" height="19" style="fill:#868686"/><use xlink:href="#icon-arr-down" x="0" y="87" width="30" height="19" style="fill:#ffffff"/><use xlink:href="#icon-arr-left" x="0" y="116" width="20" height="31" style="fill:#0BACF0"/><use xlink:href="#icon-arr-left" x="0" y="157" width="20" height="31" style="fill:#2A2A2A"/><use xlink:href="#icon-arr-left" x="0" y="198" width="20" height="31" style="fill:#868686"/><use xlink:href="#icon-arr-left" x="0" y="239" width="20" height="31" style="fill:#ffffff"/><use xlink:href="#icon-arr-right" x="0" y="280" width="20" height="31" style="fill:#0BACF0"/><use xlink:href="#icon-arr-right" x="0" y="321" width="20" height="31" style="fill:#2A2A2A"/><use xlink:href="#icon-arr-right" x="0" y="362" width="20" height="31" style="fill:#868686"/><use xlink:href="#icon-arr-right" x="0" y="403" width="20" height="31" style="fill:#ffffff"/><use xlink:href="#icon-arr-up" x="0" y="444" width="30" height="19" style="fill:#0BACF0"/><use xlink:href="#icon-arr-up" x="0" y="473" width="30" height="19" style="fill:#2A2A2A"/><use xlink:href="#icon-arr-up" x="0" y="502" width="30" height="19" style="fill:#868686"/><use xlink:href="#icon-arr-up" x="0" y="531" width="30" height="19" style="fill:#ffffff"/><use xlink:href="#icon-cargo" x="0" y="560" width="26" height="20" style="fill:#0BACF0"/><use xlink:href="#icon-cargo" x="0" y="590" width="26" height="20" style="fill:#2A2A2A"/><use xlink:href="#icon-cargo" x="0" y="620" width="26" height="20" style="fill:#868686"/><use xlink:href="#icon-cargo" x="0" y="650" width="26" height="20" style="fill:#ffffff"/><use xlink:href="#icon-carrier" x="0" y="680" width="27" height="20" style="fill:#0BACF0"/><use xlink:href="#icon-carrier" x="0" y="710" width="27" height="20" style="fill:#2A2A2A"/><use xlink:href="#icon-carrier" x="0" y="740" width="27" height="20" style="fill:#868686"/><use xlink:href="#icon-carrier" x="0" y="770" width="27" height="20" style="fill:#ffffff"/><use xlink:href="#icon-close" x="0" y="800" width="19" height="19" style="fill:#0BACF0"/><use xlink:href="#icon-close" x="0" y="829" width="19" height="19" style="fill:#2A2A2A"/><use xlink:href="#icon-close" x="0" y="858" width="19" height="19" style="fill:#868686"/><use xlink:href="#icon-close" x="0" y="887" width="19" height="19" style="fill:#ffffff"/><use xlink:href="#icon-drivers" x="0" y="916" width="25" height="20" style="fill:#0BACF0"/><use xlink:href="#icon-drivers" x="0" y="946" width="25" height="20" style="fill:#2A2A2A"/><use xlink:href="#icon-drivers" x="0" y="976" width="25" height="20" style="fill:#868686"/><use xlink:href="#icon-drivers" x="0" y="1006" width="25" height="20" style="fill:#ffffff"/><use xlink:href="#icon-login" x="0" y="1036" width="18" height="14" style="fill:#0BACF0"/><use xlink:href="#icon-login" x="0" y="1060" width="18" height="14" style="fill:#2A2A2A"/><use xlink:href="#icon-login" x="0" y="1084" width="18" height="14" style="fill:#868686"/><use xlink:href="#icon-login" x="0" y="1108" width="18" height="14" style="fill:#ffffff"/><use xlink:href="#icon-logout" x="0" y="1132" width="18" height="14" style="fill:#0BACF0"/><use xlink:href="#icon-logout" x="0" y="1156" width="18" height="14" style="fill:#2A2A2A"/><use xlink:href="#icon-logout" x="0" y="1180" width="18" height="14" style="fill:#868686"/><use xlink:href="#icon-logout" x="0" y="1204" width="18" height="14" style="fill:#ffffff"/><use xlink:href="#icon-parts" x="0" y="1228" width="20" height="20" style="fill:#0BACF0"/><use xlink:href="#icon-parts" x="0" y="1258" width="20" height="20" style="fill:#2A2A2A"/><use xlink:href="#icon-parts" x="0" y="1288" width="20" height="20" style="fill:#868686"/><use xlink:href="#icon-parts" x="0" y="1318" width="20" height="20" style="fill:#ffffff"/><use xlink:href="#icon-payment" x="0" y="1348" width="28" height="20" style="fill:#0BACF0"/><use xlink:href="#icon-payment" x="0" y="1378" width="28" height="20" style="fill:#2A2A2A"/><use xlink:href="#icon-payment" x="0" y="1408" width="28" height="20" style="fill:#868686"/><use xlink:href="#icon-payment" x="0" y="1438" width="28" height="20" style="fill:#ffffff"/><use xlink:href="#icon-profile" x="0" y="1468" width="26" height="20" style="fill:#0BACF0"/><use xlink:href="#icon-profile" x="0" y="1498" width="26" height="20" style="fill:#2A2A2A"/><use xlink:href="#icon-profile" x="0" y="1528" width="26" height="20" style="fill:#868686"/><use xlink:href="#icon-profile" x="0" y="1558" width="26" height="20" style="fill:#ffffff"/><use xlink:href="#icon-register" x="0" y="1588" width="18" height="14" style="fill:#0BACF0"/><use xlink:href="#icon-register" x="0" y="1612" width="18" height="14" style="fill:#2A2A2A"/><use xlink:href="#icon-register" x="0" y="1636" width="18" height="14" style="fill:#868686"/><use xlink:href="#icon-register" x="0" y="1660" width="18" height="14" style="fill:#ffffff"/><use xlink:href="#icon-services" x="0" y="1684" width="19" height="20" style="fill:#0BACF0"/><use xlink:href="#icon-services" x="0" y="1714" width="19" height="20" style="fill:#2A2A2A"/><use xlink:href="#icon-services" x="0" y="1744" width="19" height="20" style="fill:#868686"/><use xlink:href="#icon-services" x="0" y="1774" width="19" height="20" style="fill:#ffffff"/><use xlink:href="#icon-toggle" x="0" y="1804" width="28" height="20" style="fill:#0BACF0"/><use xlink:href="#icon-toggle" x="0" y="1834" width="28" height="20" style="fill:#2A2A2A"/><use xlink:href="#icon-toggle" x="0" y="1864" width="28" height="20" style="fill:#868686"/><use xlink:href="#icon-toggle" x="0" y="1894" width="28" height="20" style="fill:#ffffff"/><use xlink:href="#icon-tracking" x="0" y="1924" width="20" height="20" style="fill:#0BACF0"/><use xlink:href="#icon-tracking" x="0" y="1954" width="20" height="20" style="fill:#2A2A2A"/><use xlink:href="#icon-tracking" x="0" y="1984" width="20" height="20" style="fill:#868686"/><use xlink:href="#icon-tracking" x="0" y="2014" width="20" height="20" style="fill:#ffffff"/><use xlink:href="#icon-tracks" x="0" y="2044" width="25" height="20" style="fill:#0BACF0"/><use xlink:href="#icon-tracks" x="0" y="2074" width="25" height="20" style="fill:#2A2A2A"/><use xlink:href="#icon-tracks" x="0" y="2104" width="25" height="20" style="fill:#868686"/><use xlink:href="#icon-tracks" x="0" y="2134" width="25" height="20" style="fill:#ffffff"/><use xlink:href="#icon-users" x="0" y="2164" width="28" height="20" style="fill:#0BACF0"/><use xlink:href="#icon-users" x="0" y="2194" width="28" height="20" style="fill:#2A2A2A"/><use xlink:href="#icon-users" x="0" y="2224" width="28" height="20" style="fill:#868686"/><use xlink:href="#icon-users" x="0" y="2254" width="28" height="20" style="fill:#ffffff"/><use xlink:href="#icon-zoom" x="0" y="2284" width="17" height="17" style="fill:#0BACF0"/><use xlink:href="#icon-zoom" x="0" y="2311" width="17" height="17" style="fill:#2A2A2A"/><use xlink:href="#icon-zoom" x="0" y="2338" width="17" height="17" style="fill:#868686"/><use xlink:href="#icon-zoom" x="0" y="2365" width="17" height="17" style="fill:#ffffff"/></svg>