<svg xmlns="http://www.w3.org/2000/svg" xmlns:xlink="http://www.w3.org/1999/xlink"><symbol id="icon-arr-down" viewBox="0 0 30 19"><path fill-rule="evenodd" clip-rule="evenodd" d="M27.566.494a1.08 1.08 0 00-.383-.355 1.038 1.038 0 00-.998 0 1.08 1.08 0 00-.383.355l-8.098 8.7c-3.15 3.257-2.203 3.295-5.397-.007L4.211.487A1.08 1.08 0 003.827.13a1.04 1.04 0 00-1.003 0 1.08 1.08 0 00-.384.359L.467 2.635a.99.99 0 00-.342.366 1.03 1.03 0 000 .985c.082.15.2.276.342.366L14.17 18.517c.098.149.23.27.383.355a1.038 1.038 0 00.999 0 1.08 1.08 0 00.383-.355L29.532 4.352a.99.99 0 00.342-.366 1.03 1.03 0 000-.985.99.99 0 00-.342-.366L27.566.494z"/></symbol><symbol id="icon-arr-left" viewBox="0 0 20 31"><path fill-rule="evenodd" clip-rule="evenodd" d="M19.006 28.066c.15-.098.271-.229.355-.383a1.038 1.038 0 000-.998 1.079 1.079 0 00-.355-.383l-8.7-8.098c-3.257-3.15-3.295-2.203.007-5.397l8.7-8.096c.15-.097.272-.23.358-.384a1.04 1.04 0 000-1.003 1.08 1.08 0 00-.359-.384L16.865.967a.991.991 0 00-.366-.342 1.031 1.031 0 00-.985 0 .99.99 0 00-.366.342L.983 14.67a1.08 1.08 0 00-.355.383 1.038 1.038 0 000 .999c.085.153.207.285.355.383l14.165 13.598a.99.99 0 00.366.342 1.03 1.03 0 00.985 0c.15-.082.276-.2.366-.342l2.141-1.967z"/></symbol><symbol id="icon-arr-right" viewBox="0 0 20 31"><path fill-rule="evenodd" clip-rule="evenodd" d="M.994 2.934c-.15.097-.271.229-.355.383a1.038 1.038 0 000 .998c.084.154.206.285.355.383l8.7 8.098c3.257 3.15 3.295 2.203-.007 5.397l-8.7 8.096c-.15.097-.272.23-.358.384a1.04 1.04 0 000 1.003c.086.155.209.287.359.384l2.147 1.973a.99.99 0 00.366.342 1.03 1.03 0 00.985 0 .99.99 0 00.366-.342L19.017 16.33c.149-.098.27-.23.355-.383a1.038 1.038 0 000-.999 1.08 1.08 0 00-.355-.383L4.852.967a.99.99 0 00-.366-.342 1.03 1.03 0 00-.985 0 .99.99 0 00-.366.342L.994 2.934z"/></symbol><symbol id="icon-arr-up" viewBox="0 0 30 19"><path fill-rule="evenodd" clip-rule="evenodd" d="M2.434 18.506c.097.15.229.271.383.355a1.038 1.038 0 00.998 0c.154-.084.285-.206.383-.355l8.098-8.7c3.15-3.257 2.203-3.295 5.397.007l8.096 8.7c.097.15.23.272.384.358a1.04 1.04 0 001.003 0 1.08 1.08 0 00.384-.359l1.973-2.147a.991.991 0 00.342-.366 1.03 1.03 0 000-.985.99.99 0 00-.342-.366L15.83.483a1.08 1.08 0 00-.383-.355 1.038 1.038 0 00-.999 0 1.08 1.08 0 00-.383.355L.467 14.648a.99.99 0 00-.342.366 1.03 1.03 0 000 .985c.082.15.2.276.342.366l1.967 2.141z"/></symbol><symbol id="icon-cancel" viewBox="0 0 18 18"><path fill-rule="evenodd" clip-rule="evenodd" d="M.001 9.016a9 9 0 102.637-6.38 8.69 8.69 0 00-2.637 6.38zm14.724 4.471L4.545 3.307A6.804 6.804 0 019.4 1.746a7.297 7.297 0 016.889 6.889 6.805 6.805 0 01-1.563 4.853zM3.31 4.542l10.178 10.18a6.803 6.803 0 01-4.852 1.563 7.297 7.297 0 01-6.89-6.89A6.8 6.8 0 013.31 4.542z"/></symbol><symbol id="icon-card" viewBox="0 0 41 32"><path fill-rule="evenodd" clip-rule="evenodd" d="M3.375 0A3.36 3.36 0 000 3.375v24.75A3.36 3.36 0 003.375 31.5h33.75a3.36 3.36 0 003.375-3.375V3.375a3.263 3.263 0 00-.457-1.687A3.44 3.44 0 0038.812.457 3.264 3.264 0 0037.125 0H3.375zm33.328 3.375a.373.373 0 01.422.422V6.75H3.375V3.797a.373.373 0 01.422-.422h32.906zM3.8 28.125a.373.373 0 01-.422-.422V15.75h33.75v11.953a.372.372 0 01-.422.422H3.8zm8.859-7.875H7.597a.746.746 0 00-.844.844v2.812a.746.746 0 00.844.844h5.062a.746.746 0 00.844-.844v-2.812a.746.746 0 00-.844-.844zm13.5 0h-9.562a.746.746 0 00-.844.844v2.812a.746.746 0 00.844.844h9.562a.746.746 0 00.844-.844v-2.812a.746.746 0 00-.844-.844z"/></symbol><symbol id="icon-cargo" viewBox="0 0 26 20"><path fill-rule="evenodd" clip-rule="evenodd" d="M5.85 15.625v-15a.58.58 0 00-.182-.449A.628.628 0 005.2 0H.65a.648.648 0 00-.467.176.6.6 0 00-.182.45v.624a.58.58 0 00.182.45.628.628 0 00.467.175H3.9v15a.58.58 0 00.183.45.63.63 0 00.467.175h2.072c-.08.2-.12.411-.122.625 0 .497.206.974.571 1.326.366.351.862.549 1.38.549a1.99 1.99 0 001.378-.55c.366-.35.571-.828.571-1.325 0-.214-.042-.425-.122-.625h8.044c-.08.2-.121.411-.122.625 0 .497.205.974.57 1.326.367.351.863.549 1.38.549a1.99 1.99 0 001.379-.55c.365-.35.57-.828.57-1.325a1.7 1.7 0 00-.121-.625h3.371a.649.649 0 00.468-.175.6.6 0 00.183-.45v-.625a.58.58 0 00-.183-.45.627.627 0 00-.468-.175H5.85zM22.1 13.75c.343-.004.67-.137.914-.37.242-.234.381-.55.386-.88V5a1.243 1.243 0 00-.386-.879 1.344 1.344 0 00-.914-.37h-2.6V1.874a1.803 1.803 0 00-.146-.718 1.862 1.862 0 00-.423-.61 1.948 1.948 0 00-.634-.406 2.01 2.01 0 00-.747-.14h-3.9a2.01 2.01 0 00-.748.14 1.948 1.948 0 00-.633.406 1.864 1.864 0 00-.423.61 1.805 1.805 0 00-.146.718V3.75H9.1a1.344 1.344 0 00-.914.371 1.244 1.244 0 00-.386.88v7.5c.005.33.143.645.386.878.243.234.57.367.914.371h13zm-.65-8.125v6.25H19.5v-6.25h1.95zm-3.9-3.75V3.75h-3.9V1.875h3.9zm0 3.75v6.25h-3.9v-6.25h3.9zm-5.85 0v6.25H9.75v-6.25h1.95z"/></symbol><symbol id="icon-carrier" viewBox="0 0 27 20"><path fill-rule="evenodd" clip-rule="evenodd" d="M10.706 6.395l4.483 4.426 4.64-4.582-1.582-1.51a1.155 1.155 0 01-.263-1.354c.08-.238.236-.444.446-.585.21-.141.46-.21.713-.197h5.325a.82.82 0 01.607.234.8.8 0 01.237.6v5.258a1.13 1.13 0 01-.2.705 1.155 1.155 0 01-.591.44 1.187 1.187 0 01-1.371-.26l-1.53-1.562-5.853 5.78a.722.722 0 01-.58.287.733.733 0 01-.58-.286l-4.48-4.425-2.742 2.708a.724.724 0 01-.58.286.734.734 0 01-.58-.286l-.633-.625a.719.719 0 01-.29-.573.709.709 0 01.29-.573l3.955-3.906a.72.72 0 01.58-.287.73.73 0 01.58.287zM2.532 17.5V.834a.793.793 0 00-.237-.6.813.813 0 00-.607-.233H.844a.82.82 0 00-.606.234A.8.8 0 000 .834v17.499c.006.44.185.86.5 1.172.316.31.741.488 1.187.494h24.468a.82.82 0 00.606-.234.8.8 0 00.237-.599v-.833a.791.791 0 00-.237-.6.812.812 0 00-.606-.233H2.532z"/></symbol><symbol id="icon-change" viewBox="0 0 25 22"><path fill-rule="evenodd" clip-rule="evenodd" d="M23.328 7.266a.489.489 0 00-.167-.173.515.515 0 00-.233-.075.702.702 0 00-.492.157l-.8.765a.645.645 0 00-.14.405c0 .092.016.183.047.27.467.714.71 1.542.703 2.385a4.59 4.59 0 01-1.43 3.307 4.985 4.985 0 01-3.445 1.372H6.918l2.578-2.475a.47.47 0 00.155-.166.447.447 0 00-.155-.598l-.75-.72a.498.498 0 00-.797 0l-4.874 4.679a.429.429 0 00-.155.153.408.408 0 000 .413.43.43 0 00.155.153l4.874 4.68a.499.499 0 00.797 0l.75-.72a.47.47 0 00.157-.166.448.448 0 00-.157-.602l-2.574-2.472h10.453c.936 0 1.862-.176 2.727-.52a7.149 7.149 0 002.312-1.482 6.823 6.823 0 001.544-2.219A6.6 6.6 0 0024.5 11a6.339 6.339 0 00-1.172-3.734zM2.75 11a4.593 4.593 0 011.43-3.307A4.988 4.988 0 017.626 6.32h10.452L15.5 8.795a.47.47 0 00-.157.166.448.448 0 00.157.602l.75.72a.498.498 0 00.8 0l4.874-4.68a.43.43 0 00.155-.153.408.408 0 000-.413.43.43 0 00-.155-.154L17.05.204a.498.498 0 00-.8 0l-.75.72a.47.47 0 00-.155.166.447.447 0 00.155.599l2.578 2.474H7.625c-.935 0-1.862.177-2.727.52a7.149 7.149 0 00-2.312 1.483 6.824 6.824 0 00-1.544 2.219A6.598 6.598 0 00.5 11.002a6.334 6.334 0 001.172 3.735.51.51 0 00.4.247.698.698 0 00.492-.158l.797-.764a.638.638 0 00.14-.405.834.834 0 00-.046-.27 4.278 4.278 0 01-.703-2.385L2.75 11z"/></symbol><symbol id="icon-close" viewBox="0 0 19 19"><path fill-rule="evenodd" clip-rule="evenodd" d="M18.758 2.14a.527.527 0 000-.889L17.748.242a.528.528 0 00-.888 0L9.5 7.562 2.14.242a.528.528 0 00-.888 0l-1.01 1.01a.528.528 0 000 .887L7.562 9.5l-7.32 7.36a.529.529 0 000 .889l1.01 1.009a.527.527 0 00.888 0l7.36-7.32 7.36 7.32a.528.528 0 00.888 0l1.01-1.01a.527.527 0 000-.888L11.44 9.5l7.317-7.36z"/></symbol><symbol id="icon-date" viewBox="0 0 18 20"><path fill-rule="evenodd" clip-rule="evenodd" d="M14.143 2.504V.473a.403.403 0 00-.12-.352.429.429 0 00-.362-.117h-1.607a.438.438 0 00-.362.117.412.412 0 00-.12.352v2.03H6.428V.474A.403.403 0 006.308.12a.428.428 0 00-.362-.117H4.34a.438.438 0 00-.361.117.413.413 0 00-.12.352v2.03h-1.93a1.968 1.968 0 00-.739.141 1.925 1.925 0 00-.627.406c-.179.175-.321.382-.418.61A1.82 1.82 0 000 4.378v13.747c-.001.247.048.491.144.72.097.227.239.434.418.608.18.175.393.313.627.407.235.093.486.141.74.14H16.07c.254.001.505-.047.74-.14.234-.094.447-.232.627-.407.179-.174.321-.381.418-.609.096-.228.145-.472.144-.719V4.378a1.822 1.822 0 00-.145-.718 1.864 1.864 0 00-.417-.61 1.924 1.924 0 00-.627-.406 1.968 1.968 0 00-.74-.14h-1.928zM2.17 18.125a.22.22 0 01-.181-.058.207.207 0 01-.06-.176V6.253H16.07V17.89a.2.2 0 01-.06.176.214.214 0 01-.18.058H2.17z"/></symbol><symbol id="icon-drivers" viewBox="0 0 25 20"><path fill-rule="evenodd" clip-rule="evenodd" d="M23.75 14.375V9.844a2.71 2.71 0 00-.82-1.992L19.647 4.57a2.71 2.71 0 00-1.991-.821H16.25V2.188A2.2 2.2 0 0014.063 0H4.69a2.2 2.2 0 00-2.188 2.188V3.75H.315a.278.278 0 00-.313.312v.626A.278.278 0 00.315 5h9.374a.278.278 0 00.312-.312v-.626a.277.277 0 00-.312-.312H4.377V2.188a.278.278 0 01.313-.313h9.373a.278.278 0 01.313.313v12.187H9.494a3.83 3.83 0 00-1.367-1.367 3.622 3.622 0 00-1.875-.508 3.759 3.759 0 00-1.875.508V11.25H2.502v5a3.75 3.75 0 107.5 0H15a3.75 3.75 0 107.499 0h1.875a.601.601 0 00.625-.625V15a.6.6 0 00-.625-.625h-.625zM4.377 16.25a1.867 1.867 0 11.547 1.328 1.807 1.807 0 01-.547-1.328zm13.28-10.625a.908.908 0 01.666.273l2.85 2.852h-4.922V5.625h1.405zm-.782 10.625a1.867 1.867 0 11.547 1.328 1.806 1.806 0 01-.547-1.328zm1.875-3.75a3.648 3.648 0 00-2.5.977v-2.852h5.625v3.556a3.573 3.573 0 00-3.125-1.68V12.5zm-8.749-3.438a.277.277 0 00-.312-.312H.315a.278.278 0 00-.313.312v.626A.278.278 0 00.315 10h9.374a.278.278 0 00.312-.312v-.626zm1.25-1.874v-.626a.279.279 0 00-.312-.312H1.565a.278.278 0 00-.313.312v.626a.278.278 0 00.313.312h9.374a.278.278 0 00.312-.312z"/></symbol><symbol id="icon-edit" viewBox="0 0 24 22"><path fill-rule="evenodd" clip-rule="evenodd" d="M16.666 15.039v4.899H2V4.813h10.083a.272.272 0 00.208-.086l1.334-1.375a.343.343 0 00.084-.386.305.305 0 00-.111-.159.29.29 0 00-.181-.057H2a1.939 1.939 0 00-.767.155 1.988 1.988 0 00-.65.447c-.186.191-.333.42-.433.67-.1.25-.151.52-.15.79v15.126c-.001.27.05.54.15.79.1.251.247.479.433.67.186.192.407.344.65.447.243.104.504.156.767.155h14.666c.263.001.524-.051.767-.155.243-.103.464-.255.65-.446.186-.192.333-.42.433-.67.1-.252.151-.52.15-.791v-6.23a.356.356 0 00-.049-.205.34.34 0 00-.154-.137.326.326 0 00-.38.083l-1.333 1.375a.29.29 0 00-.084.215zM24 4.362a2.497 2.497 0 00-.176-.967 2.434 2.434 0 00-.533-.816L21.5.73A2.431 2.431 0 0019.75 0a2.269 2.269 0 00-.927.182c-.294.126-.56.312-.78.548L7.082 12.03 6.668 15.9c-.027.266.003.536.09.789.086.252.227.482.41.671.184.19.407.335.652.424.245.089.506.12.765.092l3.75-.428 10.958-11.3c.23-.232.411-.51.533-.817.121-.307.18-.637.174-.968zM11.417 15.469l-2.709.3L9 12.977l7.75-7.992 2.416 2.493-7.75 7.992zM21.875 4.684l-1.292 1.332-2.417-2.492 1.292-1.332a.41.41 0 01.313-.15.398.398 0 01.312.15l1.792 1.847a.42.42 0 01.145.322.431.431 0 01-.145.323z"/></symbol><symbol id="icon-eye" viewBox="0 0 24 16"><path fill-rule="evenodd" clip-rule="evenodd" d="M10.71 3.542c.19.345.29.733.291 1.127a2.35 2.35 0 01-2.333 2.334c-.394-.001-.781-.102-1.126-.293a4.984 4.984 0 00-.167 1.292 4.647 4.647 0 008.24 2.909 4.648 4.648 0 00-.303-6.222A4.507 4.507 0 0012 3.335c-.44 0-.876.07-1.292.209l.001-.002zm8.249-1.521a12.987 12.987 0 00-13.916 0A13.927 13.927 0 00.125 7.376a1.626 1.626 0 000 1.25 14.175 14.175 0 002.958 3.853 13.51 13.51 0 004.104 2.583 12.919 12.919 0 0011.77-1.083 13.927 13.927 0 004.918-5.355 1.627 1.627 0 000-1.25 13.933 13.933 0 00-4.916-5.353zM8.063 13.273a11.316 11.316 0 01-3.436-2.084 11.582 11.582 0 01-2.542-3.188 11.584 11.584 0 014.187-4.396 11.03 11.03 0 0111.458 0A11.593 11.593 0 0121.917 8a11.584 11.584 0 01-4.187 4.397 11.02 11.02 0 01-9.667.875z"/></symbol><symbol id="icon-login" viewBox="0 0 18 14"><path fill-rule="evenodd" clip-rule="evenodd" d="M17.015 12.976c.319-.322.57-.707.74-1.133.17-.427.252-.884.245-1.345V3.502a3.596 3.596 0 00-.254-1.34 3.496 3.496 0 00-.73-1.138 3.355 3.355 0 00-1.097-.758 3.257 3.257 0 00-1.294-.262h-2.952a.36.36 0 00-.316.11.388.388 0 00-.106.327v.875a.4.4 0 00.106.328.37.37 0 00.316.109h2.952c.222-.001.442.044.647.131.205.088.392.216.548.379.157.163.281.356.366.568.084.213.127.441.126.67v6.997c.001.23-.042.458-.126.67a1.747 1.747 0 01-.366.569 1.677 1.677 0 01-.548.379 1.629 1.629 0 01-.647.131h-2.952a.361.361 0 00-.316.11.389.389 0 00-.106.328v.874a.4.4 0 00.106.328.371.371 0 00.316.11h2.952c.445.007.886-.079 1.297-.255a3.251 3.251 0 001.093-.766zM5.205 1.425a.386.386 0 000 .622L9.18 6.055H.426a.36.36 0 00-.317.11.39.39 0 00-.105.328v1.02a.4.4 0 00.105.328.371.371 0 00.317.109H9.18l-3.972 4.008a.385.385 0 000 .62l.668.692c.033.05.077.092.13.12a.35.35 0 00.467-.12l5.765-5.976a.386.386 0 000-.622L6.473.697A.376.376 0 006.166.56a.365.365 0 00-.29.172l-.67.692z"/></symbol><symbol id="icon-logout" viewBox="0 0 18 14"><path fill-rule="evenodd" clip-rule="evenodd" d="M.984 1.024c-.318.322-.57.707-.739 1.133-.17.427-.252.884-.244 1.345v6.996c-.002.46.084.916.253 1.34.168.426.417.813.73 1.138.313.325.686.582 1.096.758.41.175.849.264 1.292.262h2.95a.36.36 0 00.316-.11.39.39 0 00.105-.327v-.874a.4.4 0 00-.105-.329.371.371 0 00-.316-.109h-2.95a1.625 1.625 0 01-.646-.131 1.675 1.675 0 01-.548-.379 1.747 1.747 0 01-.366-.568 1.799 1.799 0 01-.126-.67V3.501c0-.23.042-.458.126-.67.085-.213.209-.406.366-.57.156-.162.343-.29.548-.378.205-.088.424-.132.646-.131h2.95a.36.36 0 00.316-.11.39.39 0 00.105-.327V.44a.4.4 0 00-.105-.328.37.37 0 00-.316-.11h-2.95a3.147 3.147 0 00-1.296.254c-.41.176-.782.437-1.092.767zm9.833.4a.371.371 0 00-.16.312.386.386 0 00.16.31l3.968 4.009H6.041a.36.36 0 00-.316.11.39.39 0 00-.106.327v1.02a.4.4 0 00.106.328.37.37 0 00.316.11h8.744l-3.968 4.008a.385.385 0 000 .62l.667.692c.033.05.078.091.13.12a.35.35 0 00.467-.12l5.76-5.976a.386.386 0 000-.622L12.08.696a.376.376 0 00-.307-.136.365.365 0 00-.29.173l-.667.692z"/></symbol><symbol id="icon-mail" viewBox="0 0 24 18"><path fill-rule="evenodd" clip-rule="evenodd" d="M2.25 0A2.24 2.24 0 000 2.25v13.5A2.242 2.242 0 002.25 18h19.5A2.24 2.24 0 0024 15.75V2.25A2.24 2.24 0 0021.75 0H2.25zm19.5 4.171a811.832 811.832 0 01-6.328 4.969 4.255 4.255 0 01-.656.586c-.315.267-.644.517-.985.75-.218.14-.507.305-.866.493a1.626 1.626 0 01-1.829 0c-.36-.188-.648-.353-.867-.493-.341-.232-.67-.483-.984-.75a4.215 4.215 0 01-.656-.586A789.41 789.41 0 012.25 4.171V2.25h19.5v1.921zm-19.5 2.86a741.56 741.56 0 004.922 3.89c.237.167.464.347.68.54.39.328.695.57.914.726.22.157.524.36.914.61.361.237.757.419 1.172.538a3.981 3.981 0 002.273 0 5.34 5.34 0 001.172-.515c.406-.235.719-.43.938-.586.218-.157.522-.406.914-.75.214-.201.441-.39.68-.563a742.208 742.208 0 004.921-3.89v8.719H2.25V7.029v.002z"/></symbol><symbol id="icon-parts" viewBox="0 0 20 20"><path fill-rule="evenodd" clip-rule="evenodd" d="M8.75 5.666L9.922 6.84a4.094 4.094 0 014.024-4.961h.039l-2.227 2.226.586 3.556 3.556.586 2.226-2.227a4.122 4.122 0 01-1.21 2.969 4.5 4.5 0 01-1.25.82c.025.027.051.053.077.078.056.035.108.075.157.118l1.172 1.21c.427-.248.82-.55 1.171-.898a6.176 6.176 0 001.524-2.676c.285-1 .299-2.058.039-3.066a1.242 1.242 0 00-.938-.976 1.312 1.312 0 00-1.328.351l-2.304 2.305-1.25-.235-.235-1.25 2.305-2.304a1.222 1.222 0 00.37-1.309A1.29 1.29 0 0015.432.2a6.048 6.048 0 00-3.086.02A5.848 5.848 0 009.69 1.762c-.375.404-.702.85-.976 1.328l.038.039v2.539-.002zM3.204 18.127a1.326 1.326 0 01-.938-2.265L7.5 10.625 6.172 9.296.938 14.531a3.204 3.204 0 004.531 4.53l3.945-3.944a4.037 4.037 0 01-.625-2.03L4.14 17.733a1.278 1.278 0 01-.937.39v.003zM15 10.898a2.883 2.883 0 00-1.601-.82 2.59 2.59 0 00-1.72.273L7.5 6.171V3.75L2.5 0 0 2.5l3.75 5h2.422l4.18 4.18a2.58 2.58 0 00-.273 1.718c.095.608.382 1.17.82 1.601l4.57 4.57a1.41 1.41 0 001.035.43 1.29 1.29 0 00.996-.43l2.07-2.07a1.414 1.414 0 000-2.03L15 10.897z"/></symbol><symbol id="icon-payment" viewBox="0 0 28 20"><path fill-rule="evenodd" clip-rule="evenodd" d="M1.4 0C1.03.005.677.157.416.424.154.691.005 1.051 0 1.429V18.57c.005.378.154.738.416 1.005.261.267.614.419.984.424h25.2c.37-.005.723-.157.984-.424.262-.267.411-.627.416-1.005V1.43a1.463 1.463 0 00-.416-1.005A1.405 1.405 0 0026.6 0H1.4zm.7 17.857V2.143h23.8v15.714H2.1zm14.35-5a.304.304 0 00.262-.09.32.32 0 00.088-.267v-1.428a.322.322 0 00-.088-.267.31.31 0 00-.262-.09h-3.5a.306.306 0 00-.262.09.318.318 0 00-.088.267V12.5a.324.324 0 00.088.267.31.31 0 00.262.09h3.5zm3.5-2.143a.306.306 0 00-.262.09.318.318 0 00-.088.268V12.5a.324.324 0 00.088.267.31.31 0 00.262.09h3.5a.304.304 0 00.262-.09.32.32 0 00.088-.267v-1.428a.322.322 0 00-.088-.267.31.31 0 00-.262-.09h-3.5zm3.5-1.428a.305.305 0 00.262-.09.318.318 0 00.088-.268V7.5a.323.323 0 00-.088-.267.31.31 0 00-.262-.09h-10.5a.305.305 0 00-.262.09.319.319 0 00-.088.267v1.428a.323.323 0 00.088.267.31.31 0 00.262.09h10.5zm-13.578.864c.21-.217.375-.477.483-.763.107-.285.156-.59.144-.896a2.246 2.246 0 00-.144-.893 2.21 2.21 0 00-.483-.758 2.173 2.173 0 00-1.61-.623h-2.65a.165.165 0 00-.144.049.172.172 0 00-.047.145V9.91h-.826c-.05 0-.099.02-.135.057a.196.196 0 00-.055.138v.485c0 .052.02.101.055.138a.189.189 0 00.135.056h.826v.614h-.826a.165.165 0 00-.143.048.171.171 0 00-.047.146v.389a.175.175 0 00.047.146.167.167 0 00.143.048h.826v1.102a.175.175 0 00.047.145.167.167 0 00.143.049h.635a.165.165 0 00.143-.049.172.172 0 00.047-.145v-1.102h2.857a.165.165 0 00.143-.048.171.171 0 00.047-.146v-.389a.174.174 0 00-.047-.146.167.167 0 00-.143-.048H6.436v-.615h1.825a2.158 2.158 0 001.611-.632zM8.118 7.106a1.344 1.344 0 011 .364 1.356 1.356 0 01.365 1.013 1.438 1.438 0 01-.373 1.044 1.358 1.358 0 01-1.008.38H6.436V7.107h1.682z"/></symbol><symbol id="icon-photo" viewBox="0 0 21 20"><path fill-rule="evenodd" clip-rule="evenodd" d="M15.422 11.4a5.171 5.171 0 00-1.124-3.206 4.872 4.872 0 00-2.835-1.743 4.76 4.76 0 00-3.262.51 5.01 5.01 0 00-2.21 2.533 5.226 5.226 0 00-.156 3.407 5.055 5.055 0 001.969 2.737c.942.65 2.073.941 3.2.826a4.835 4.835 0 002.983-1.459 4.924 4.924 0 001.078-1.649c.247-.62.369-1.285.357-1.955zm-1.969 0a3.103 3.103 0 01-.674 1.925 2.923 2.923 0 01-1.701 1.046 2.856 2.856 0 01-1.958-.306 3.007 3.007 0 01-1.326-1.52 3.136 3.136 0 01-.094-2.044A3.034 3.034 0 018.881 8.86a2.867 2.867 0 013.71.379c.28.28.5.617.648.99.148.371.221.77.214 1.173zm-3.65-.72a.946.946 0 01.697-.297.645.645 0 00.464-.198.69.69 0 00.192-.48.69.69 0 00-.192-.48.645.645 0 00-.464-.199 2.273 2.273 0 00-1.62.7 2.43 2.43 0 00-.677 1.675c0 .18.07.352.193.48a.646.646 0 00.928 0 .69.69 0 00.192-.48 1.009 1.009 0 01.287-.721zm9.228-5.428v12.213H1.97V5.252h4.963l.984-2.714h5.168l.984 2.714h4.963zM7.916.503a1.85 1.85 0 00-.78.17c-.24.109-.456.267-.635.466-.179.2-.325.429-.43.678l-.493 1.4h-3.61a1.904 1.904 0 00-.754.152c-.24.102-.457.252-.64.441-.183.19-.328.414-.426.662a2.086 2.086 0 00-.148.78v12.213c-.001.267.05.532.148.78.098.247.243.472.426.661.183.19.4.34.64.441.24.102.496.154.755.153H19.03c.26.001.516-.05.755-.153.24-.102.457-.252.64-.44a2.03 2.03 0 00.426-.662c.099-.248.15-.513.148-.78V5.252a2.088 2.088 0 00-.148-.78 2.033 2.033 0 00-.426-.662c-.183-.189-.4-.339-.64-.44a1.904 1.904 0 00-.755-.153h-3.609l-.574-1.612a1.586 1.586 0 00-.597-.827 1.5 1.5 0 00-.962-.275H7.916z"/></symbol><symbol id="icon-profile" viewBox="0 0 26 20"><path fill-rule="evenodd" clip-rule="evenodd" d="M2.167 0A2.178 2.178 0 00.632.625 2.132 2.132 0 000 2.143v15.714a2.112 2.112 0 00.632 1.518A2.159 2.159 0 002.167 20h21.666a2.178 2.178 0 001.535-.625A2.131 2.131 0 0026 17.857V2.143a2.111 2.111 0 00-.632-1.518A2.159 2.159 0 0023.833 0H2.167zm11.51 17.857c.042-.325.057-.654.045-.982.001-.35-.078-.697-.23-1.014a2.354 2.354 0 00-.65-.817 3.174 3.174 0 00-2.144-.761c-.262.03-.52.09-.767.178a4.567 4.567 0 01-2.528 0 3.534 3.534 0 00-.768-.178 3.173 3.173 0 00-2.144.761c-.275.221-.497.5-.65.817a2.327 2.327 0 00-.23 1.014c-.012.328.003.657.045.982h-1.49V5h21.667v12.857H13.677zm7.629-3.571a.324.324 0 00.347-.213.315.315 0 00.014-.144v-.715a.315.315 0 00-.216-.343.326.326 0 00-.145-.014H16.25a.326.326 0 00-.27.09.315.315 0 00-.091.267v.715a.313.313 0 00.091.266.32.32 0 00.27.09h5.056zm0-2.857a.324.324 0 00.347-.213.315.315 0 00.014-.144v-.715a.315.315 0 00-.216-.343.324.324 0 00-.145-.014H16.25a.325.325 0 00-.347.213.313.313 0 00-.014.144v.715a.312.312 0 00.091.266.322.322 0 00.27.09h5.056zm0-2.858a.324.324 0 00.347-.213.315.315 0 00.014-.143V7.5a.315.315 0 00-.216-.343.324.324 0 00-.145-.014H16.25a.325.325 0 00-.347.213.313.313 0 00-.014.144v.715a.313.313 0 00.091.266.321.321 0 00.27.09h5.056zM11.556 10a2.877 2.877 0 00-.643-1.85 2.934 2.934 0 00-1.686-1.025 2.958 2.958 0 00-1.96.269 2.91 2.91 0 00-1.34 1.44 2.867 2.867 0 00-.108 1.953 2.9 2.9 0 001.172 1.577 2.955 2.955 0 003.707-.355A2.724 2.724 0 0011.556 10z"/></symbol><symbol id="icon-register" viewBox="0 0 18 14"><path fill-rule="evenodd" clip-rule="evenodd" d="M17.873 7.141a.478.478 0 01-.324.11h-1.925v1.892a.464.464 0 01-.112.32.36.36 0 01-.284.125h-.395a.365.365 0 01-.284-.125.463.463 0 01-.11-.32V7.251h-1.914a.478.478 0 01-.324-.11.357.357 0 01-.127-.28v-.39a.35.35 0 01.127-.28.478.478 0 01.324-.11h1.913V4.187a.463.463 0 01.111-.32.36.36 0 01.284-.126h.396a.365.365 0 01.283.126c.076.089.116.203.112.32V6.08h1.925a.478.478 0 01.324.11.356.356 0 01.127.28v.39a.353.353 0 01-.127.28zm-5.429 5.543a1.297 1.297 0 01-.388.932 1.33 1.33 0 01-.945.384H1.333a1.341 1.341 0 01-.944-.384A1.31 1.31 0 010 12.684v-.712c.006-.973.4-1.903 1.097-2.59a3.771 3.771 0 012.625-1.083c.365.024.725.098 1.07.22a4.78 4.78 0 002.86 0 3.999 3.999 0 011.07-.22 3.772 3.772 0 012.625 1.083 3.673 3.673 0 011.098 2.59v.712zm-1.333-.712a2.371 2.371 0 00-.708-1.659 2.435 2.435 0 00-1.68-.699c-.296.058-.588.131-.876.22a6.136 6.136 0 01-3.25 0 8.39 8.39 0 00-.875-.22 2.435 2.435 0 00-1.68.7c-.447.44-.7 1.035-.709 1.658v.712h9.778v-.712zM6.222 7.86a4.016 4.016 0 01-2.521-.901 3.92 3.92 0 01-1.37-2.274 3.884 3.884 0 01.4-2.617A3.965 3.965 0 014.723.296 4.033 4.033 0 017.4.171c.881.265 1.642.823 2.152 1.58a3.89 3.89 0 01-.497 4.958 3.86 3.86 0 01-1.296.865 3.903 3.903 0 01-1.538.286zm1.89-5.81a2.71 2.71 0 00-3.387-.341 2.65 2.65 0 00-1.083 1.43 2.614 2.614 0 00.085 1.782 2.66 2.66 0 001.212 1.324c.547.29 1.18.383 1.788.265a2.689 2.689 0 001.552-.917c.394-.473.61-1.067.61-1.68A2.51 2.51 0 008.11 2.05z"/></symbol><symbol id="icon-save" viewBox="0 0 32 32"><path fill-rule="evenodd" clip-rule="evenodd" d="M24.609.984A3.255 3.255 0 0022.219 0H3.375A3.36 3.36 0 000 3.375v24.75A3.36 3.36 0 003.375 31.5h24.75a3.358 3.358 0 003.375-3.375V9.281a3.255 3.255 0 00-.984-2.39L24.609.984zM19.125 9h-9V3.375h9V9zM3.8 28.125a.373.373 0 01-.422-.422V3.797a.373.373 0 01.422-.422h2.953v7.313a1.68 1.68 0 001.688 1.687h12.374a1.679 1.679 0 001.685-1.687V3.656l5.484 5.485a.4.4 0 01.141.281v18.281a.373.373 0 01-.422.422H3.8zm5.765-7.875a6.245 6.245 0 101.829-4.359 5.946 5.946 0 00-1.832 4.359h.003zm3.376 0a2.76 2.76 0 11.808 2 2.724 2.724 0 01-.811-2h.003z"/></symbol><symbol id="icon-services" viewBox="0 0 19 20"><path fill-rule="evenodd" clip-rule="evenodd" d="M18.493 8.511a.93.93 0 00.428-.457.955.955 0 00.046-.63 10.131 10.131 0 00-2.564-4.467.857.857 0 00-1.144-.16l-1.223.724a9.206 9.206 0 00-1.301-.765V1.308a.974.974 0 00-.217-.604.975.975 0 00-.493-.362 9.486 9.486 0 00-5.05 0 .89.89 0 00-.534.345.922.922 0 00-.176.62v1.45a9.142 9.142 0 00-1.301.764l-1.223-.724a.857.857 0 00-1.144.16A10.118 10.118 0 00.033 7.424a.953.953 0 00.046.63c.086.199.238.36.428.457l1.222.725v1.53l-1.222.723a.929.929 0 00-.428.457.954.954 0 00-.046.63 10.114 10.114 0 002.564 4.467.857.857 0 001.144.16l1.223-.724c.413.291.848.547 1.301.765v1.448a.97.97 0 00.218.604.978.978 0 00.493.362 9.498 9.498 0 005.049 0 .89.89 0 00.534-.345.923.923 0 00.176-.62v-1.449a9.215 9.215 0 001.301-.765l1.223.725a.857.857 0 001.144-.16 10.124 10.124 0 002.564-4.467.955.955 0 00-.046-.63.93.93 0 00-.428-.458l-1.222-.724c.026-.509.026-1.02 0-1.529l1.222-.725zm-1.577 4.265a8.466 8.466 0 01-1.341 2.375l-1.736-1.006c-.449.376-.79.65-1.026.824a4.227 4.227 0 01-.75.443c-.26.121-.668.289-1.222.503v2.012a7.51 7.51 0 01-2.682 0v-2.011a12.809 12.809 0 01-1.597-.705 11.028 11.028 0 01-1.403-1.066l-1.735 1.006a8.452 8.452 0 01-1.342-2.374l1.736-1.006a6.74 6.74 0 010-3.54L2.082 7.223c.317-.86.77-1.662 1.342-2.374l1.735 1.006c.44-.392.909-.749 1.403-1.066.516-.27 1.05-.506 1.597-.704V2.074a7.51 7.51 0 012.682 0v2.012c.553.215.96.383 1.223.503.264.121.515.27.75.442.236.175.578.45 1.025.825l1.736-1.006a8.47 8.47 0 011.34 2.374L15.18 8.23a6.74 6.74 0 010 3.541l1.736 1.005zM5.713 10c.004.89.31 1.75.865 2.436A3.758 3.758 0 008.76 13.76c.856.171 1.743.034 2.511-.387a3.821 3.821 0 001.701-1.923 3.92 3.92 0 00.12-2.588 3.841 3.841 0 00-1.515-2.078 3.714 3.714 0 00-4.759.48c-.358.355-.64.78-.83 1.251-.19.471-.283.976-.275 1.485zm1.894 0c.002-.444.154-.875.432-1.217A1.879 1.879 0 019.13 8.12a1.853 1.853 0 011.255.193c.384.21.685.55.85.962.167.411.188.868.06 1.293a1.92 1.92 0 01-.757 1.04 1.857 1.857 0 01-2.38-.241A1.895 1.895 0 017.607 10z"/></symbol><symbol id="icon-toggle" viewBox="0 0 28 20"><path d="M0 0h28v4H0V0zM0 8h28v4.099H0V8zM0 16h28v4H0v-4z"/></symbol><symbol id="icon-tracking" viewBox="0 0 20 20"><path fill-rule="evenodd" clip-rule="evenodd" d="M6.562 10a3.47 3.47 0 101.016-2.422A3.302 3.302 0 006.562 10zm1.876 0a1.533 1.533 0 113.066.054A1.533 1.533 0 018.438 10zm8.983-.938a7.463 7.463 0 00-6.483-6.483V.625A.601.601 0 0010.312 0h-.624a.602.602 0 00-.626.625V2.58A7.464 7.464 0 002.58 9.062H.625A.602.602 0 000 9.688v.624a.602.602 0 00.625.626H2.58a7.463 7.463 0 006.483 6.483v1.954a.602.602 0 00.626.625h.624a.601.601 0 00.626-.625V17.42a7.463 7.463 0 006.483-6.483h1.954a.602.602 0 00.625-.626v-.624a.601.601 0 00-.625-.626H17.42zM4.375 10a5.6 5.6 0 111.64 3.984A5.425 5.425 0 014.376 10z"/></symbol><symbol id="icon-tracks" viewBox="0 0 25 20"><path fill-rule="evenodd" clip-rule="evenodd" d="M23.75 14.375V9.844a2.71 2.71 0 00-.821-1.992L19.648 4.57a2.71 2.71 0 00-1.992-.821H16.25V2.188A2.2 2.2 0 0014.062 0H2.188A2.2 2.2 0 000 2.188v11.874a2.2 2.2 0 002.188 2.188H2.5a3.75 3.75 0 107.5 0h5a3.75 3.75 0 007.5 0h1.875a.6.6 0 00.625-.625V15a.6.6 0 00-.625-.625h-.625zM4.375 16.25a1.867 1.867 0 11.547 1.328 1.807 1.807 0 01-.547-1.328zm5.117-1.875a3.83 3.83 0 00-1.367-1.367 3.715 3.715 0 00-3.75 0 3.82 3.82 0 00-1.367 1.367h-.82a.277.277 0 01-.313-.313V2.188a.278.278 0 01.313-.313h11.874a.278.278 0 01.313.313v12.187H9.492zm8.164-8.75a.909.909 0 01.666.273l2.852 2.852H16.25V5.625h1.406zm-.781 10.625a1.866 1.866 0 11.546 1.328 1.808 1.808 0 01-.546-1.328zm1.875-3.75a3.648 3.648 0 00-2.5.977v-2.852h5.625v3.556a3.574 3.574 0 00-3.125-1.68V12.5z"/></symbol><symbol id="icon-update" viewBox="0 0 20 20"><path fill-rule="evenodd" clip-rule="evenodd" d="M17.052 2.945A9.537 9.537 0 009.999 0 10.028 10.028 0 00.004 9.477a.516.516 0 00.142.383.462.462 0 00.344.14h1.128a.411.411 0 00.484-.442c.1-2.024.99-3.928 2.478-5.303A7.614 7.614 0 0110 2.098a7.705 7.705 0 015.602 2.299l-2.216 2.217a.43.43 0 00-.08.504.441.441 0 00.443.302h5.763a.427.427 0 00.484-.484V1.167a.443.443 0 00-.303-.444.432.432 0 00-.504.081l-2.137 2.14zm1.33 7.053a.41.41 0 00-.484.443 7.743 7.743 0 01-2.478 5.303A7.613 7.613 0 0110 17.9a7.703 7.703 0 01-5.602-2.298l2.216-2.217a.43.43 0 00.08-.504.442.442 0 00-.443-.303H.488a.427.427 0 00-.484.484v5.767a.443.443 0 00.303.444.432.432 0 00.504-.081l2.135-2.137A9.536 9.536 0 0010 20a10.028 10.028 0 009.995-9.476.518.518 0 00-.142-.383.466.466 0 00-.343-.14H18.38l.002-.002z"/></symbol><symbol id="icon-user" viewBox="0 0 18 20"><path fill-rule="evenodd" clip-rule="evenodd" d="M18 18.12a1.83 1.83 0 01-.145.721 1.869 1.869 0 01-.418.61c-.179.175-.392.314-.626.408a1.965 1.965 0 01-.74.141H1.93a1.965 1.965 0 01-.74-.14 1.924 1.924 0 01-.627-.408 1.868 1.868 0 01-.417-.61A1.83 1.83 0 010 18.12v-1.018a5.214 5.214 0 011.587-3.701 5.49 5.49 0 013.797-1.546 5.86 5.86 0 011.547.313 6.996 6.996 0 004.138 0 5.853 5.853 0 011.547-.314c1.425.01 2.79.565 3.797 1.547a5.215 5.215 0 011.587 3.7v1.018zm-1.929-1.018a3.367 3.367 0 00-1.024-2.369 3.545 3.545 0 00-2.431-.998c-.427.082-.85.187-1.266.314a8.983 8.983 0 01-4.7 0 12.267 12.267 0 00-1.266-.314 3.545 3.545 0 00-2.43.998 3.367 3.367 0 00-1.025 2.37v1.017H16.07v-1.018zM9 11.23a5.853 5.853 0 01-3.647-1.288A5.59 5.59 0 013.37 6.692a5.49 5.49 0 01.58-3.737A5.712 5.712 0 016.832.423a5.902 5.902 0 013.875-.179A5.75 5.75 0 0113.818 2.5a5.504 5.504 0 01.94 3.668 5.557 5.557 0 01-1.66 3.417 5.587 5.587 0 01-1.874 1.235A5.708 5.708 0 019 11.23zm2.732-8.3a3.958 3.958 0 00-4.9-.487 3.791 3.791 0 00-1.564 2.042 3.69 3.69 0 00.123 2.546c.342.81.961 1.478 1.753 1.892A3.969 3.969 0 009.73 9.3a3.9 3.9 0 002.244-1.309c.57-.676.882-1.524.882-2.4a3.546 3.546 0 00-.28-1.444 3.624 3.624 0 00-.845-1.218z"/></symbol><symbol id="icon-users" viewBox="0 0 28 20"><path fill-rule="evenodd" clip-rule="evenodd" d="M25.2 5.757a4.3 4.3 0 00-.96-2.693 4.167 4.167 0 00-2.42-1.463 4.117 4.117 0 00-2.782.43 4.23 4.23 0 00-1.885 2.126 4.324 4.324 0 00-.132 2.861c.282.94.875 1.753 1.68 2.298a4.125 4.125 0 005.274-.532 4.13 4.13 0 00.92-1.385c.21-.52.314-1.08.305-1.642zm-2.1 0a2.151 2.151 0 01-.48 1.347c-.308.379-.735.638-1.21.732a2.06 2.06 0 01-1.392-.214 2.116 2.116 0 01-.943-1.064 2.163 2.163 0 01-.066-1.431c.14-.47.438-.877.84-1.15a2.063 2.063 0 012.639.266 2.093 2.093 0 01.612 1.513zm-12.73 5.386a6.682 6.682 0 01-1.992.312c-.66 0-1.318-.105-1.947-.312a5.318 5.318 0 00-1.531-.222 4.55 4.55 0 00-2.305.498A4.644 4.644 0 00.83 13.011a5.156 5.156 0 00-.83 2.849v2.003a2.16 2.16 0 00.612 1.514A2.089 2.089 0 002.1 20h12.6a2.06 2.06 0 001.487-.623 2.13 2.13 0 00.612-1.514V15.86a4.974 4.974 0 00-.874-2.85 4.538 4.538 0 00-1.737-1.594 4.443 4.443 0 00-2.288-.495 5.322 5.322 0 00-1.532.223h.001zm-8.267 6.723v-2.004a2.92 2.92 0 01.547-1.714c.339-.498.82-.879 1.378-1.09.45-.178.95-.178 1.4 0a8.558 8.558 0 005.95 0c.45-.178.95-.178 1.4 0 .571.199 1.063.582 1.4 1.09.345.503.528 1.102.525 1.714v2.004h-12.6zm11.2-12.822a5.07 5.07 0 00-1.103-3.19A4.915 4.915 0 009.357.1a4.853 4.853 0 00-3.29.483 4.984 4.984 0 00-2.24 2.498 5.098 5.098 0 00-.172 3.378A5.01 5.01 0 005.63 9.181a4.863 4.863 0 006.23-.62 4.8 4.8 0 001.079-1.606 4.87 4.87 0 00.364-1.91zm-2.1 0a2.922 2.922 0 01-.623 1.846c-.412.523-.99.884-1.634 1.022a2.796 2.796 0 01-1.899-.269A2.87 2.87 0 015.75 6.208a2.937 2.937 0 01-.106-1.949 2.886 2.886 0 011.136-1.572 2.801 2.801 0 013.593.354c.265.259.475.57.618.914.142.345.214.716.21 1.09h.003zm12.73 5.966c-.474.01-.945.085-1.4.223-1 .296-2.062.296-3.062 0a5.23 5.23 0 00-1.4-.223 4.192 4.192 0 00-1.662.356c.26.259.494.542.7.846.175.296.35.622.525.98.143-.03.29-.045.435-.045.385.038.766.113 1.138.223a7.35 7.35 0 003.587 0c.372-.11.753-.185 1.138-.223.315-.022.63.041.913.182.284.14.527.354.704.62.229.34.35.744.35 1.157v1.335H18.2v1.425c0 .24-.03.479-.087.712h8.137a1.69 1.69 0 001.247-.512A1.75 1.75 0 0028 16.798V15.15a4.291 4.291 0 00-.7-2.406 3.875 3.875 0 00-1.461-1.316 3.796 3.796 0 00-1.908-.42h.003z"/></symbol><symbol id="icon-zoom" viewBox="0 0 17 17"><path fill-rule="evenodd" clip-rule="evenodd" d="M12.547 11.287a.308.308 0 00-.258-.129h-.453a6.742 6.742 0 10-.678.678v.453a.373.373 0 00.13.258l3.909 3.91a.33.33 0 00.549 0l.71-.711a.33.33 0 000-.55l-3.909-3.909zM1.596 6.765a5.185 5.185 0 111.518 3.65 4.975 4.975 0 01-1.518-3.65z"/></symbol> <view id="icon-arr-down-view-blue" viewBox="0 0 30 19"/><view id="icon-arr-down-view-black" viewBox="0 29 30 19"/><view id="icon-arr-down-view-dark" viewBox="0 58 30 19"/><view id="icon-arr-down-view-white" viewBox="0 87 30 19"/><view id="icon-arr-left-view-blue" viewBox="0 116 20 31"/><view id="icon-arr-left-view-black" viewBox="0 157 20 31"/><view id="icon-arr-left-view-dark" viewBox="0 198 20 31"/><view id="icon-arr-left-view-white" viewBox="0 239 20 31"/><view id="icon-arr-right-view-blue" viewBox="0 280 20 31"/><view id="icon-arr-right-view-black" viewBox="0 321 20 31"/><view id="icon-arr-right-view-dark" viewBox="0 362 20 31"/><view id="icon-arr-right-view-white" viewBox="0 403 20 31"/><view id="icon-arr-up-view-blue" viewBox="0 444 30 19"/><view id="icon-arr-up-view-black" viewBox="0 473 30 19"/><view id="icon-arr-up-view-dark" viewBox="0 502 30 19"/><view id="icon-arr-up-view-white" viewBox="0 531 30 19"/><view id="icon-cancel-view-blue" viewBox="0 560 18 18"/><view id="icon-cancel-view-black" viewBox="0 588 18 18"/><view id="icon-cancel-view-dark" viewBox="0 616 18 18"/><view id="icon-cancel-view-white" viewBox="0 644 18 18"/><view id="icon-card-view-blue" viewBox="0 672 41 32"/><view id="icon-card-view-black" viewBox="0 714 41 32"/><view id="icon-card-view-dark" viewBox="0 756 41 32"/><view id="icon-card-view-white" viewBox="0 798 41 32"/><view id="icon-cargo-view-blue" viewBox="0 840 26 20"/><view id="icon-cargo-view-black" viewBox="0 870 26 20"/><view id="icon-cargo-view-dark" viewBox="0 900 26 20"/><view id="icon-cargo-view-white" viewBox="0 930 26 20"/><view id="icon-carrier-view-blue" viewBox="0 960 27 20"/><view id="icon-carrier-view-black" viewBox="0 990 27 20"/><view id="icon-carrier-view-dark" viewBox="0 1020 27 20"/><view id="icon-carrier-view-white" viewBox="0 1050 27 20"/><view id="icon-change-view-blue" viewBox="0 1080 25 22"/><view id="icon-change-view-black" viewBox="0 1112 25 22"/><view id="icon-change-view-dark" viewBox="0 1144 25 22"/><view id="icon-change-view-white" viewBox="0 1176 25 22"/><view id="icon-close-view-blue" viewBox="0 1208 19 19"/><view id="icon-close-view-black" viewBox="0 1237 19 19"/><view id="icon-close-view-dark" viewBox="0 1266 19 19"/><view id="icon-close-view-white" viewBox="0 1295 19 19"/><view id="icon-date-view-blue" viewBox="0 1324 18 20"/><view id="icon-date-view-black" viewBox="0 1354 18 20"/><view id="icon-date-view-dark" viewBox="0 1384 18 20"/><view id="icon-date-view-white" viewBox="0 1414 18 20"/><view id="icon-drivers-view-blue" viewBox="0 1444 25 20"/><view id="icon-drivers-view-black" viewBox="0 1474 25 20"/><view id="icon-drivers-view-dark" viewBox="0 1504 25 20"/><view id="icon-drivers-view-white" viewBox="0 1534 25 20"/><view id="icon-edit-view-blue" viewBox="0 1564 24 22"/><view id="icon-edit-view-black" viewBox="0 1596 24 22"/><view id="icon-edit-view-dark" viewBox="0 1628 24 22"/><view id="icon-edit-view-white" viewBox="0 1660 24 22"/><view id="icon-eye-view-blue" viewBox="0 1692 24 16"/><view id="icon-eye-view-black" viewBox="0 1718 24 16"/><view id="icon-eye-view-dark" viewBox="0 1744 24 16"/><view id="icon-eye-view-white" viewBox="0 1770 24 16"/><view id="icon-login-view-blue" viewBox="0 1796 18 14"/><view id="icon-login-view-black" viewBox="0 1820 18 14"/><view id="icon-login-view-dark" viewBox="0 1844 18 14"/><view id="icon-login-view-white" viewBox="0 1868 18 14"/><view id="icon-logout-view-blue" viewBox="0 1892 18 14"/><view id="icon-logout-view-black" viewBox="0 1916 18 14"/><view id="icon-logout-view-dark" viewBox="0 1940 18 14"/><view id="icon-logout-view-white" viewBox="0 1964 18 14"/><view id="icon-mail-view-blue" viewBox="0 1988 24 18"/><view id="icon-mail-view-black" viewBox="0 2016 24 18"/><view id="icon-mail-view-dark" viewBox="0 2044 24 18"/><view id="icon-mail-view-white" viewBox="0 2072 24 18"/><view id="icon-parts-view-blue" viewBox="0 2100 20 20"/><view id="icon-parts-view-black" viewBox="0 2130 20 20"/><view id="icon-parts-view-dark" viewBox="0 2160 20 20"/><view id="icon-parts-view-white" viewBox="0 2190 20 20"/><view id="icon-payment-view-blue" viewBox="0 2220 28 20"/><view id="icon-payment-view-black" viewBox="0 2250 28 20"/><view id="icon-payment-view-dark" viewBox="0 2280 28 20"/><view id="icon-payment-view-white" viewBox="0 2310 28 20"/><view id="icon-photo-view-blue" viewBox="0 2340 21 20"/><view id="icon-photo-view-black" viewBox="0 2370 21 20"/><view id="icon-photo-view-dark" viewBox="0 2400 21 20"/><view id="icon-photo-view-white" viewBox="0 2430 21 20"/><view id="icon-profile-view-blue" viewBox="0 2460 26 20"/><view id="icon-profile-view-black" viewBox="0 2490 26 20"/><view id="icon-profile-view-dark" viewBox="0 2520 26 20"/><view id="icon-profile-view-white" viewBox="0 2550 26 20"/><view id="icon-register-view-blue" viewBox="0 2580 18 14"/><view id="icon-register-view-black" viewBox="0 2604 18 14"/><view id="icon-register-view-dark" viewBox="0 2628 18 14"/><view id="icon-register-view-white" viewBox="0 2652 18 14"/><view id="icon-save-view-blue" viewBox="0 2676 32 32"/><view id="icon-save-view-black" viewBox="0 2718 32 32"/><view id="icon-save-view-dark" viewBox="0 2760 32 32"/><view id="icon-save-view-white" viewBox="0 2802 32 32"/><view id="icon-services-view-blue" viewBox="0 2844 19 20"/><view id="icon-services-view-black" viewBox="0 2874 19 20"/><view id="icon-services-view-dark" viewBox="0 2904 19 20"/><view id="icon-services-view-white" viewBox="0 2934 19 20"/><view id="icon-toggle-view-blue" viewBox="0 2964 28 20"/><view id="icon-toggle-view-black" viewBox="0 2994 28 20"/><view id="icon-toggle-view-dark" viewBox="0 3024 28 20"/><view id="icon-toggle-view-white" viewBox="0 3054 28 20"/><view id="icon-tracking-view-blue" viewBox="0 3084 20 20"/><view id="icon-tracking-view-black" viewBox="0 3114 20 20"/><view id="icon-tracking-view-dark" viewBox="0 3144 20 20"/><view id="icon-tracking-view-white" viewBox="0 3174 20 20"/><view id="icon-tracks-view-blue" viewBox="0 3204 25 20"/><view id="icon-tracks-view-black" viewBox="0 3234 25 20"/><view id="icon-tracks-view-dark" viewBox="0 3264 25 20"/><view id="icon-tracks-view-white" viewBox="0 3294 25 20"/><view id="icon-update-view-blue" viewBox="0 3324 20 20"/><view id="icon-update-view-black" viewBox="0 3354 20 20"/><view id="icon-update-view-dark" viewBox="0 3384 20 20"/><view id="icon-update-view-white" viewBox="0 3414 20 20"/><view id="icon-user-view-blue" viewBox="0 3444 18 20"/><view id="icon-user-view-black" viewBox="0 3474 18 20"/><view id="icon-user-view-dark" viewBox="0 3504 18 20"/><view id="icon-user-view-white" viewBox="0 3534 18 20"/><view id="icon-users-view-blue" viewBox="0 3564 28 20"/><view id="icon-users-view-black" viewBox="0 3594 28 20"/><view id="icon-users-view-dark" viewBox="0 3624 28 20"/><view id="icon-users-view-white" viewBox="0 3654 28 20"/><view id="icon-zoom-view-blue" viewBox="0 3684 17 17"/><view id="icon-zoom-view-black" viewBox="0 3711 17 17"/><view id="icon-zoom-view-dark" viewBox="0 3738 17 17"/><view id="icon-zoom-view-white" viewBox="0 3765 17 17"/> <use xlink:href="#icon-arr-down" x="0" y="0" width="30" height="19" style="fill:#0BACF0"/><use xlink:href="#icon-arr-down" x="0" y="29" width="30" height="19" style="fill:#2A2A2A"/><use xlink:href="#icon-arr-down" x="0" y="58" width="30" height="19" style="fill:#868686"/><use xlink:href="#icon-arr-down" x="0" y="87" width="30" height="19" style="fill:#ffffff"/><use xlink:href="#icon-arr-left" x="0" y="116" width="20" height="31" style="fill:#0BACF0"/><use xlink:href="#icon-arr-left" x="0" y="157" width="20" height="31" style="fill:#2A2A2A"/><use xlink:href="#icon-arr-left" x="0" y="198" width="20" height="31" style="fill:#868686"/><use xlink:href="#icon-arr-left" x="0" y="239" width="20" height="31" style="fill:#ffffff"/><use xlink:href="#icon-arr-right" x="0" y="280" width="20" height="31" style="fill:#0BACF0"/><use xlink:href="#icon-arr-right" x="0" y="321" width="20" height="31" style="fill:#2A2A2A"/><use xlink:href="#icon-arr-right" x="0" y="362" width="20" height="31" style="fill:#868686"/><use xlink:href="#icon-arr-right" x="0" y="403" width="20" height="31" style="fill:#ffffff"/><use xlink:href="#icon-arr-up" x="0" y="444" width="30" height="19" style="fill:#0BACF0"/><use xlink:href="#icon-arr-up" x="0" y="473" width="30" height="19" style="fill:#2A2A2A"/><use xlink:href="#icon-arr-up" x="0" y="502" width="30" height="19" style="fill:#868686"/><use xlink:href="#icon-arr-up" x="0" y="531" width="30" height="19" style="fill:#ffffff"/><use xlink:href="#icon-cancel" x="0" y="560" width="18" height="18" style="fill:#0BACF0"/><use xlink:href="#icon-cancel" x="0" y="588" width="18" height="18" style="fill:#2A2A2A"/><use xlink:href="#icon-cancel" x="0" y="616" width="18" height="18" style="fill:#868686"/><use xlink:href="#icon-cancel" x="0" y="644" width="18" height="18" style="fill:#ffffff"/><use xlink:href="#icon-card" x="0" y="672" width="41" height="32" style="fill:#0BACF0"/><use xlink:href="#icon-card" x="0" y="714" width="41" height="32" style="fill:#2A2A2A"/><use xlink:href="#icon-card" x="0" y="756" width="41" height="32" style="fill:#868686"/><use xlink:href="#icon-card" x="0" y="798" width="41" height="32" style="fill:#ffffff"/><use xlink:href="#icon-cargo" x="0" y="840" width="26" height="20" style="fill:#0BACF0"/><use xlink:href="#icon-cargo" x="0" y="870" width="26" height="20" style="fill:#2A2A2A"/><use xlink:href="#icon-cargo" x="0" y="900" width="26" height="20" style="fill:#868686"/><use xlink:href="#icon-cargo" x="0" y="930" width="26" height="20" style="fill:#ffffff"/><use xlink:href="#icon-carrier" x="0" y="960" width="27" height="20" style="fill:#0BACF0"/><use xlink:href="#icon-carrier" x="0" y="990" width="27" height="20" style="fill:#2A2A2A"/><use xlink:href="#icon-carrier" x="0" y="1020" width="27" height="20" style="fill:#868686"/><use xlink:href="#icon-carrier" x="0" y="1050" width="27" height="20" style="fill:#ffffff"/><use xlink:href="#icon-change" x="0" y="1080" width="25" height="22" style="fill:#0BACF0"/><use xlink:href="#icon-change" x="0" y="1112" width="25" height="22" style="fill:#2A2A2A"/><use xlink:href="#icon-change" x="0" y="1144" width="25" height="22" style="fill:#868686"/><use xlink:href="#icon-change" x="0" y="1176" width="25" height="22" style="fill:#ffffff"/><use xlink:href="#icon-close" x="0" y="1208" width="19" height="19" style="fill:#0BACF0"/><use xlink:href="#icon-close" x="0" y="1237" width="19" height="19" style="fill:#2A2A2A"/><use xlink:href="#icon-close" x="0" y="1266" width="19" height="19" style="fill:#868686"/><use xlink:href="#icon-close" x="0" y="1295" width="19" height="19" style="fill:#ffffff"/><use xlink:href="#icon-date" x="0" y="1324" width="18" height="20" style="fill:#0BACF0"/><use xlink:href="#icon-date" x="0" y="1354" width="18" height="20" style="fill:#2A2A2A"/><use xlink:href="#icon-date" x="0" y="1384" width="18" height="20" style="fill:#868686"/><use xlink:href="#icon-date" x="0" y="1414" width="18" height="20" style="fill:#ffffff"/><use xlink:href="#icon-drivers" x="0" y="1444" width="25" height="20" style="fill:#0BACF0"/><use xlink:href="#icon-drivers" x="0" y="1474" width="25" height="20" style="fill:#2A2A2A"/><use xlink:href="#icon-drivers" x="0" y="1504" width="25" height="20" style="fill:#868686"/><use xlink:href="#icon-drivers" x="0" y="1534" width="25" height="20" style="fill:#ffffff"/><use xlink:href="#icon-edit" x="0" y="1564" width="24" height="22" style="fill:#0BACF0"/><use xlink:href="#icon-edit" x="0" y="1596" width="24" height="22" style="fill:#2A2A2A"/><use xlink:href="#icon-edit" x="0" y="1628" width="24" height="22" style="fill:#868686"/><use xlink:href="#icon-edit" x="0" y="1660" width="24" height="22" style="fill:#ffffff"/><use xlink:href="#icon-eye" x="0" y="1692" width="24" height="16" style="fill:#0BACF0"/><use xlink:href="#icon-eye" x="0" y="1718" width="24" height="16" style="fill:#2A2A2A"/><use xlink:href="#icon-eye" x="0" y="1744" width="24" height="16" style="fill:#868686"/><use xlink:href="#icon-eye" x="0" y="1770" width="24" height="16" style="fill:#ffffff"/><use xlink:href="#icon-login" x="0" y="1796" width="18" height="14" style="fill:#0BACF0"/><use xlink:href="#icon-login" x="0" y="1820" width="18" height="14" style="fill:#2A2A2A"/><use xlink:href="#icon-login" x="0" y="1844" width="18" height="14" style="fill:#868686"/><use xlink:href="#icon-login" x="0" y="1868" width="18" height="14" style="fill:#ffffff"/><use xlink:href="#icon-logout" x="0" y="1892" width="18" height="14" style="fill:#0BACF0"/><use xlink:href="#icon-logout" x="0" y="1916" width="18" height="14" style="fill:#2A2A2A"/><use xlink:href="#icon-logout" x="0" y="1940" width="18" height="14" style="fill:#868686"/><use xlink:href="#icon-logout" x="0" y="1964" width="18" height="14" style="fill:#ffffff"/><use xlink:href="#icon-mail" x="0" y="1988" width="24" height="18" style="fill:#0BACF0"/><use xlink:href="#icon-mail" x="0" y="2016" width="24" height="18" style="fill:#2A2A2A"/><use xlink:href="#icon-mail" x="0" y="2044" width="24" height="18" style="fill:#868686"/><use xlink:href="#icon-mail" x="0" y="2072" width="24" height="18" style="fill:#ffffff"/><use xlink:href="#icon-parts" x="0" y="2100" width="20" height="20" style="fill:#0BACF0"/><use xlink:href="#icon-parts" x="0" y="2130" width="20" height="20" style="fill:#2A2A2A"/><use xlink:href="#icon-parts" x="0" y="2160" width="20" height="20" style="fill:#868686"/><use xlink:href="#icon-parts" x="0" y="2190" width="20" height="20" style="fill:#ffffff"/><use xlink:href="#icon-payment" x="0" y="2220" width="28" height="20" style="fill:#0BACF0"/><use xlink:href="#icon-payment" x="0" y="2250" width="28" height="20" style="fill:#2A2A2A"/><use xlink:href="#icon-payment" x="0" y="2280" width="28" height="20" style="fill:#868686"/><use xlink:href="#icon-payment" x="0" y="2310" width="28" height="20" style="fill:#ffffff"/><use xlink:href="#icon-photo" x="0" y="2340" width="21" height="20" style="fill:#0BACF0"/><use xlink:href="#icon-photo" x="0" y="2370" width="21" height="20" style="fill:#2A2A2A"/><use xlink:href="#icon-photo" x="0" y="2400" width="21" height="20" style="fill:#868686"/><use xlink:href="#icon-photo" x="0" y="2430" width="21" height="20" style="fill:#ffffff"/><use xlink:href="#icon-profile" x="0" y="2460" width="26" height="20" style="fill:#0BACF0"/><use xlink:href="#icon-profile" x="0" y="2490" width="26" height="20" style="fill:#2A2A2A"/><use xlink:href="#icon-profile" x="0" y="2520" width="26" height="20" style="fill:#868686"/><use xlink:href="#icon-profile" x="0" y="2550" width="26" height="20" style="fill:#ffffff"/><use xlink:href="#icon-register" x="0" y="2580" width="18" height="14" style="fill:#0BACF0"/><use xlink:href="#icon-register" x="0" y="2604" width="18" height="14" style="fill:#2A2A2A"/><use xlink:href="#icon-register" x="0" y="2628" width="18" height="14" style="fill:#868686"/><use xlink:href="#icon-register" x="0" y="2652" width="18" height="14" style="fill:#ffffff"/><use xlink:href="#icon-save" x="0" y="2676" width="32" height="32" style="fill:#0BACF0"/><use xlink:href="#icon-save" x="0" y="2718" width="32" height="32" style="fill:#2A2A2A"/><use xlink:href="#icon-save" x="0" y="2760" width="32" height="32" style="fill:#868686"/><use xlink:href="#icon-save" x="0" y="2802" width="32" height="32" style="fill:#ffffff"/><use xlink:href="#icon-services" x="0" y="2844" width="19" height="20" style="fill:#0BACF0"/><use xlink:href="#icon-services" x="0" y="2874" width="19" height="20" style="fill:#2A2A2A"/><use xlink:href="#icon-services" x="0" y="2904" width="19" height="20" style="fill:#868686"/><use xlink:href="#icon-services" x="0" y="2934" width="19" height="20" style="fill:#ffffff"/><use xlink:href="#icon-toggle" x="0" y="2964" width="28" height="20" style="fill:#0BACF0"/><use xlink:href="#icon-toggle" x="0" y="2994" width="28" height="20" style="fill:#2A2A2A"/><use xlink:href="#icon-toggle" x="0" y="3024" width="28" height="20" style="fill:#868686"/><use xlink:href="#icon-toggle" x="0" y="3054" width="28" height="20" style="fill:#ffffff"/><use xlink:href="#icon-tracking" x="0" y="3084" width="20" height="20" style="fill:#0BACF0"/><use xlink:href="#icon-tracking" x="0" y="3114" width="20" height="20" style="fill:#2A2A2A"/><use xlink:href="#icon-tracking" x="0" y="3144" width="20" height="20" style="fill:#868686"/><use xlink:href="#icon-tracking" x="0" y="3174" width="20" height="20" style="fill:#ffffff"/><use xlink:href="#icon-tracks" x="0" y="3204" width="25" height="20" style="fill:#0BACF0"/><use xlink:href="#icon-tracks" x="0" y="3234" width="25" height="20" style="fill:#2A2A2A"/><use xlink:href="#icon-tracks" x="0" y="3264" width="25" height="20" style="fill:#868686"/><use xlink:href="#icon-tracks" x="0" y="3294" width="25" height="20" style="fill:#ffffff"/><use xlink:href="#icon-update" x="0" y="3324" width="20" height="20" style="fill:#0BACF0"/><use xlink:href="#icon-update" x="0" y="3354" width="20" height="20" style="fill:#2A2A2A"/><use xlink:href="#icon-update" x="0" y="3384" width="20" height="20" style="fill:#868686"/><use xlink:href="#icon-update" x="0" y="3414" width="20" height="20" style="fill:#ffffff"/><use xlink:href="#icon-user" x="0" y="3444" width="18" height="20" style="fill:#0BACF0"/><use xlink:href="#icon-user" x="0" y="3474" width="18" height="20" style="fill:#2A2A2A"/><use xlink:href="#icon-user" x="0" y="3504" width="18" height="20" style="fill:#868686"/><use xlink:href="#icon-user" x="0" y="3534" width="18" height="20" style="fill:#ffffff"/><use xlink:href="#icon-users" x="0" y="3564" width="28" height="20" style="fill:#0BACF0"/><use xlink:href="#icon-users" x="0" y="3594" width="28" height="20" style="fill:#2A2A2A"/><use xlink:href="#icon-users" x="0" y="3624" width="28" height="20" style="fill:#868686"/><use xlink:href="#icon-users" x="0" y="3654" width="28" height="20" style="fill:#ffffff"/><use xlink:href="#icon-zoom" x="0" y="3684" width="17" height="17" style="fill:#0BACF0"/><use xlink:href="#icon-zoom" x="0" y="3711" width="17" height="17" style="fill:#2A2A2A"/><use xlink:href="#icon-zoom" x="0" y="3738" width="17" height="17" style="fill:#868686"/><use xlink:href="#icon-zoom" x="0" y="3765" width="17" height="17" style="fill:#ffffff"/></svg>