<svg xmlns="http://www.w3.org/2000/svg" xmlns:xlink="http://www.w3.org/1999/xlink"><symbol id="icon-aang" viewBox="0 0 25.375 25.188"><path d="M12.692 25.196a12.692 12.692 0 01-2.185-25.2V10.65H6.676a.516.516 0 00-.5.325.549.549 0 00.085.6l6.072 6.562a.56.56 0 00.41.171.542.542 0 00.394-.171l5.986-6.562a.549.549 0 00.085-.6.5.5 0 00-.5-.325h-3.831V.002a12.692 12.692 0 01-2.185 25.194z" fill-rule="evenodd"/></symbol><symbol id="icon-arr-down" viewBox="0 0 30 19"><path fill-rule="evenodd" clip-rule="evenodd" d="M27.566.494a1.08 1.08 0 00-.383-.355 1.038 1.038 0 00-.998 0 1.08 1.08 0 00-.383.355l-8.098 8.7c-3.15 3.257-2.203 3.295-5.397-.007L4.211.487A1.08 1.08 0 003.827.13a1.04 1.04 0 00-1.003 0 1.08 1.08 0 00-.384.359L.467 2.635a.99.99 0 00-.342.366 1.03 1.03 0 000 .985c.082.15.2.276.342.366L14.17 18.517c.098.149.23.27.383.355a1.038 1.038 0 00.999 0 1.08 1.08 0 00.383-.355L29.532 4.352a.99.99 0 00.342-.366 1.03 1.03 0 000-.985.99.99 0 00-.342-.366L27.566.494z"/></symbol><symbol id="icon-arr-left" viewBox="0 0 20 31"><path fill-rule="evenodd" clip-rule="evenodd" d="M19.006 28.066c.15-.098.271-.229.355-.383a1.038 1.038 0 000-.998 1.079 1.079 0 00-.355-.383l-8.7-8.098c-3.257-3.15-3.295-2.203.007-5.397l8.7-8.096c.15-.097.272-.23.358-.384a1.04 1.04 0 000-1.003 1.08 1.08 0 00-.359-.384L16.865.967a.991.991 0 00-.366-.342 1.031 1.031 0 00-.985 0 .99.99 0 00-.366.342L.983 14.67a1.08 1.08 0 00-.355.383 1.038 1.038 0 000 .999c.085.153.207.285.355.383l14.165 13.598a.99.99 0 00.366.342 1.03 1.03 0 00.985 0c.15-.082.276-.2.366-.342l2.141-1.967z"/></symbol><symbol id="icon-arr-right" viewBox="0 0 20 31"><path fill-rule="evenodd" clip-rule="evenodd" d="M.994 2.934c-.15.097-.271.229-.355.383a1.038 1.038 0 000 .998c.084.154.206.285.355.383l8.7 8.098c3.257 3.15 3.295 2.203-.007 5.397l-8.7 8.096c-.15.097-.272.23-.358.384a1.04 1.04 0 000 1.003c.086.155.209.287.359.384l2.147 1.973a.99.99 0 00.366.342 1.03 1.03 0 00.985 0 .99.99 0 00.366-.342L19.017 16.33c.149-.098.27-.23.355-.383a1.038 1.038 0 000-.999 1.08 1.08 0 00-.355-.383L4.852.967a.99.99 0 00-.366-.342 1.03 1.03 0 00-.985 0 .99.99 0 00-.366.342L.994 2.934z"/></symbol><symbol id="icon-arr-up" viewBox="0 0 30 19"><path fill-rule="evenodd" clip-rule="evenodd" d="M2.434 18.506c.097.15.229.271.383.355a1.038 1.038 0 00.998 0c.154-.084.285-.206.383-.355l8.098-8.7c3.15-3.257 2.203-3.295 5.397.007l8.096 8.7c.097.15.23.272.384.358a1.04 1.04 0 001.003 0 1.08 1.08 0 00.384-.359l1.973-2.147a.991.991 0 00.342-.366 1.03 1.03 0 000-.985.99.99 0 00-.342-.366L15.83.483a1.08 1.08 0 00-.383-.355 1.038 1.038 0 00-.999 0 1.08 1.08 0 00-.383.355L.467 14.648a.99.99 0 00-.342.366 1.03 1.03 0 000 .985c.082.15.2.276.342.366l1.967 2.141z"/></symbol><symbol id="icon-calculation" viewBox="0 0 49 49"><path fill-rule="evenodd" clip-rule="evenodd" d="M18.198 46.189c.85-.252 1.677-.58 2.47-.981 1.278-.657 2.573-1.708 2.573-1.708l1.078 1.35s-1.53 1.214-2.78 1.857c-.82.414-1.674.756-2.552 1.023l-.79-1.541zm6.908-4.945a12.01 12.01 0 001.441-2.353c.366-.841.64-1.72.819-2.62l1.573.431s-.267 1.698-.838 2.95c-.42.885-.93 1.724-1.518 2.505l-1.477-.913zm2.981-7.857s.923-1.738 1.824-2.872a13.16 13.16 0 011.997-1.957l1.064 1.272a12.845 12.845 0 00-1.737 1.8 13.838 13.838 0 00-1.506 2.45l-1.642-.693zm7.269-5.908c.919-.189 1.823-.445 2.704-.768a17.665 17.665 0 002.304-1.063l.905 1.33c-.81.535-1.673.985-2.574 1.345-1.284.491-3.108.775-3.108.775l-.231-1.62zM40.929 0c2.14 0 4.194.852 5.707 2.368A8.095 8.095 0 0149 8.086c0 5.526-8.07 14.344-8.07 14.344s-8.071-8.884-8.071-14.344c0-2.144.85-4.201 2.364-5.718A8.063 8.063 0 0140.929 0zm0 5.969a2.11 2.11 0 011.953 1.307 2.121 2.121 0 01-1.54 2.888 2.11 2.11 0 01-2.17-.9 2.121 2.121 0 01.263-2.675c.396-.397.934-.62 1.494-.62zM12.202 16.462a12.19 12.19 0 018.628 3.58 12.238 12.238 0 013.574 8.646c0 9.6-12.202 20.312-12.202 20.312S0 38.288 0 28.688c0-3.243 1.286-6.353 3.574-8.645a12.19 12.19 0 018.628-3.581zm.048 5.872c3.422 0 6.197 2.845 6.197 6.354s-2.774 6.353-6.197 6.353-6.197-2.844-6.197-6.353c0-3.51 2.774-6.354 6.197-6.354z"/></symbol><symbol id="icon-cancel" viewBox="0 0 18 18"><path fill-rule="evenodd" clip-rule="evenodd" d="M.001 9.016a9 9 0 102.637-6.38 8.69 8.69 0 00-2.637 6.38zm14.724 4.471L4.545 3.307A6.804 6.804 0 019.4 1.746a7.297 7.297 0 016.889 6.889 6.805 6.805 0 01-1.563 4.853zM3.31 4.542l10.178 10.18a6.803 6.803 0 01-4.852 1.563 7.297 7.297 0 01-6.89-6.89A6.8 6.8 0 013.31 4.542z"/></symbol><symbol id="icon-card" viewBox="0 0 41 32"><path fill-rule="evenodd" clip-rule="evenodd" d="M3.375 0A3.36 3.36 0 000 3.375v24.75A3.36 3.36 0 003.375 31.5h33.75a3.36 3.36 0 003.375-3.375V3.375a3.263 3.263 0 00-.457-1.687A3.44 3.44 0 0038.812.457 3.264 3.264 0 0037.125 0H3.375zm33.328 3.375a.373.373 0 01.422.422V6.75H3.375V3.797a.373.373 0 01.422-.422h32.906zM3.8 28.125a.373.373 0 01-.422-.422V15.75h33.75v11.953a.372.372 0 01-.422.422H3.8zm8.859-7.875H7.597a.746.746 0 00-.844.844v2.812a.746.746 0 00.844.844h5.062a.746.746 0 00.844-.844v-2.812a.746.746 0 00-.844-.844zm13.5 0h-9.562a.746.746 0 00-.844.844v2.812a.746.746 0 00.844.844h9.562a.746.746 0 00.844-.844v-2.812a.746.746 0 00-.844-.844z"/></symbol><symbol id="icon-cargo" viewBox="0 0 26 20"><path fill-rule="evenodd" clip-rule="evenodd" d="M5.85 15.625v-15a.58.58 0 00-.182-.449A.628.628 0 005.2 0H.65a.648.648 0 00-.467.176.6.6 0 00-.182.45v.624a.58.58 0 00.182.45.628.628 0 00.467.175H3.9v15a.58.58 0 00.183.45.63.63 0 00.467.175h2.072c-.08.2-.12.411-.122.625 0 .497.206.974.571 1.326.366.351.862.549 1.38.549a1.99 1.99 0 001.378-.55c.366-.35.571-.828.571-1.325 0-.214-.042-.425-.122-.625h8.044c-.08.2-.121.411-.122.625 0 .497.205.974.57 1.326.367.351.863.549 1.38.549a1.99 1.99 0 001.379-.55c.365-.35.57-.828.57-1.325a1.7 1.7 0 00-.121-.625h3.371a.649.649 0 00.468-.175.6.6 0 00.183-.45v-.625a.58.58 0 00-.183-.45.627.627 0 00-.468-.175H5.85zM22.1 13.75c.343-.004.67-.137.914-.37.242-.234.381-.55.386-.88V5a1.243 1.243 0 00-.386-.879 1.344 1.344 0 00-.914-.37h-2.6V1.874a1.803 1.803 0 00-.146-.718 1.862 1.862 0 00-.423-.61 1.948 1.948 0 00-.634-.406 2.01 2.01 0 00-.747-.14h-3.9a2.01 2.01 0 00-.748.14 1.948 1.948 0 00-.633.406 1.864 1.864 0 00-.423.61 1.805 1.805 0 00-.146.718V3.75H9.1a1.344 1.344 0 00-.914.371 1.244 1.244 0 00-.386.88v7.5c.005.33.143.645.386.878.243.234.57.367.914.371h13zm-.65-8.125v6.25H19.5v-6.25h1.95zm-3.9-3.75V3.75h-3.9V1.875h3.9zm0 3.75v6.25h-3.9v-6.25h3.9zm-5.85 0v6.25H9.75v-6.25h1.95z"/></symbol><symbol id="icon-carrier" viewBox="0 0 27 20"><path fill-rule="evenodd" clip-rule="evenodd" d="M10.706 6.395l4.483 4.426 4.64-4.582-1.582-1.51a1.155 1.155 0 01-.263-1.354c.08-.238.236-.444.446-.585.21-.141.46-.21.713-.197h5.325a.82.82 0 01.607.234.8.8 0 01.237.6v5.258a1.13 1.13 0 01-.2.705 1.155 1.155 0 01-.591.44 1.187 1.187 0 01-1.371-.26l-1.53-1.562-5.853 5.78a.722.722 0 01-.58.287.733.733 0 01-.58-.286l-4.48-4.425-2.742 2.708a.724.724 0 01-.58.286.734.734 0 01-.58-.286l-.633-.625a.719.719 0 01-.29-.573.709.709 0 01.29-.573l3.955-3.906a.72.72 0 01.58-.287.73.73 0 01.58.287zM2.532 17.5V.834a.793.793 0 00-.237-.6.813.813 0 00-.607-.233H.844a.82.82 0 00-.606.234A.8.8 0 000 .834v17.499c.006.44.185.86.5 1.172.316.31.741.488 1.187.494h24.468a.82.82 0 00.606-.234.8.8 0 00.237-.599v-.833a.791.791 0 00-.237-.6.812.812 0 00-.606-.233H2.532z"/></symbol><symbol id="icon-change" viewBox="0 0 25 22"><path fill-rule="evenodd" clip-rule="evenodd" d="M23.328 7.266a.489.489 0 00-.167-.173.515.515 0 00-.233-.075.702.702 0 00-.492.157l-.8.765a.645.645 0 00-.14.405c0 .092.016.183.047.27.467.714.71 1.542.703 2.385a4.59 4.59 0 01-1.43 3.307 4.985 4.985 0 01-3.445 1.372H6.918l2.578-2.475a.47.47 0 00.155-.166.447.447 0 00-.155-.598l-.75-.72a.498.498 0 00-.797 0l-4.874 4.679a.429.429 0 00-.155.153.408.408 0 000 .413.43.43 0 00.155.153l4.874 4.68a.499.499 0 00.797 0l.75-.72a.47.47 0 00.157-.166.448.448 0 00-.157-.602l-2.574-2.472h10.453c.936 0 1.862-.176 2.727-.52a7.149 7.149 0 002.312-1.482 6.823 6.823 0 001.544-2.219A6.6 6.6 0 0024.5 11a6.339 6.339 0 00-1.172-3.734zM2.75 11a4.593 4.593 0 011.43-3.307A4.988 4.988 0 017.626 6.32h10.452L15.5 8.795a.47.47 0 00-.157.166.448.448 0 00.157.602l.75.72a.498.498 0 00.8 0l4.874-4.68a.43.43 0 00.155-.153.408.408 0 000-.413.43.43 0 00-.155-.154L17.05.204a.498.498 0 00-.8 0l-.75.72a.47.47 0 00-.155.166.447.447 0 00.155.599l2.578 2.474H7.625c-.935 0-1.862.177-2.727.52a7.149 7.149 0 00-2.312 1.483 6.824 6.824 0 00-1.544 2.219A6.598 6.598 0 00.5 11.002a6.334 6.334 0 001.172 3.735.51.51 0 00.4.247.698.698 0 00.492-.158l.797-.764a.638.638 0 00.14-.405.834.834 0 00-.046-.27 4.278 4.278 0 01-.703-2.385L2.75 11z"/></symbol><symbol id="icon-clock" viewBox="0 0 18 18"><path fill-rule="evenodd" clip-rule="evenodd" d="M.001 9.017A9 9 0 102.64 2.634 8.69 8.69 0 00.001 9.017zm1.746 0a7.264 7.264 0 112.127 5.146 7.012 7.012 0 01-2.127-5.146zm10.146 3.382l.654-.945a.4.4 0 00-.072-.619L10.038 9.09V3.925a.384.384 0 00-.436-.436H8.438A.386.386 0 008 3.925V9.89a.447.447 0 00.182.362l3.091 2.255a.391.391 0 00.62-.11l-.001.002z"/></symbol><symbol id="icon-close" viewBox="0 0 19 19"><path fill-rule="evenodd" clip-rule="evenodd" d="M18.758 2.14a.527.527 0 000-.889L17.748.242a.528.528 0 00-.888 0L9.5 7.562 2.14.242a.528.528 0 00-.888 0l-1.01 1.01a.528.528 0 000 .887L7.562 9.5l-7.32 7.36a.529.529 0 000 .889l1.01 1.009a.527.527 0 00.888 0l7.36-7.32 7.36 7.32a.528.528 0 00.888 0l1.01-1.01a.527.527 0 000-.888L11.44 9.5l7.317-7.36z"/></symbol><symbol id="icon-date" viewBox="0 0 18 20"><path fill-rule="evenodd" clip-rule="evenodd" d="M14.143 2.504V.473a.403.403 0 00-.12-.352.429.429 0 00-.362-.117h-1.607a.438.438 0 00-.362.117.412.412 0 00-.12.352v2.03H6.428V.474A.403.403 0 006.308.12a.428.428 0 00-.362-.117H4.34a.438.438 0 00-.361.117.413.413 0 00-.12.352v2.03h-1.93a1.968 1.968 0 00-.739.141 1.925 1.925 0 00-.627.406c-.179.175-.321.382-.418.61A1.82 1.82 0 000 4.378v13.747c-.001.247.048.491.144.72.097.227.239.434.418.608.18.175.393.313.627.407.235.093.486.141.74.14H16.07c.254.001.505-.047.74-.14.234-.094.447-.232.627-.407.179-.174.321-.381.418-.609.096-.228.145-.472.144-.719V4.378a1.822 1.822 0 00-.145-.718 1.864 1.864 0 00-.417-.61 1.924 1.924 0 00-.627-.406 1.968 1.968 0 00-.74-.14h-1.928zM2.17 18.125a.22.22 0 01-.181-.058.207.207 0 01-.06-.176V6.253H16.07V17.89a.2.2 0 01-.06.176.214.214 0 01-.18.058H2.17z"/></symbol><symbol id="icon-del" viewBox="0 0 17 20"><path fill-rule="evenodd" clip-rule="evenodd" d="M11.082 16.251a.392.392 0 00.34-.117.417.417 0 00.115-.352V7.344a.425.425 0 00-.114-.35.4.4 0 00-.341-.118h-.91a.392.392 0 00-.341.117.416.416 0 00-.114.351v8.437a.427.427 0 00.114.351.402.402 0 00.341.117h.911l-.001.002zm2.2-13.125L11.993.9a1.961 1.961 0 00-.417-.449 2.138 2.138 0 00-.57-.333A1.684 1.684 0 0010.399 0H6.604c-.322.005-.637.1-.911.273-.271.152-.505.366-.683.625L3.72 3.125H.608a.57.57 0 00-.437.176.604.604 0 00-.17.449v.625a.619.619 0 00.17.449A.584.584 0 00.609 5h.605v13.125c0 .247.046.49.137.719.091.227.225.434.395.609.17.174.37.312.592.406.221.094.458.142.698.141h10.929c.24.001.476-.047.698-.14a1.81 1.81 0 00.592-.407 1.87 1.87 0 00.395-.61c.09-.227.137-.471.136-.718V5.003h.607a.57.57 0 00.437-.176.604.604 0 00.17-.45v-.624a.617.617 0 00-.17-.45.583.583 0 00-.437-.175h-3.111l.002-.002zm-6.564-1.25h3.566a.22.22 0 01.19.117l.683 1.133H5.845l.683-1.133a.219.219 0 01.19-.117zm-3.682 16.25V5.003h10.93v13.125H3.035v-.002zm3.795-1.875a.392.392 0 00.342-.117.417.417 0 00.113-.352V7.344a.425.425 0 00-.113-.35.4.4 0 00-.342-.118h-.91a.392.392 0 00-.342.117.416.416 0 00-.114.351v8.437a.427.427 0 00.114.351.402.402 0 00.341.117h.911v.002z"/></symbol><symbol id="icon-drivers" viewBox="0 0 25 20"><path fill-rule="evenodd" clip-rule="evenodd" d="M23.75 14.375V9.844a2.71 2.71 0 00-.82-1.992L19.647 4.57a2.71 2.71 0 00-1.991-.821H16.25V2.188A2.2 2.2 0 0014.063 0H4.69a2.2 2.2 0 00-2.188 2.188V3.75H.315a.278.278 0 00-.313.312v.626A.278.278 0 00.315 5h9.374a.278.278 0 00.312-.312v-.626a.277.277 0 00-.312-.312H4.377V2.188a.278.278 0 01.313-.313h9.373a.278.278 0 01.313.313v12.187H9.494a3.83 3.83 0 00-1.367-1.367 3.622 3.622 0 00-1.875-.508 3.759 3.759 0 00-1.875.508V11.25H2.502v5a3.75 3.75 0 107.5 0H15a3.75 3.75 0 107.499 0h1.875a.601.601 0 00.625-.625V15a.6.6 0 00-.625-.625h-.625zM4.377 16.25a1.867 1.867 0 11.547 1.328 1.807 1.807 0 01-.547-1.328zm13.28-10.625a.908.908 0 01.666.273l2.85 2.852h-4.922V5.625h1.405zm-.782 10.625a1.867 1.867 0 11.547 1.328 1.806 1.806 0 01-.547-1.328zm1.875-3.75a3.648 3.648 0 00-2.5.977v-2.852h5.625v3.556a3.573 3.573 0 00-3.125-1.68V12.5zm-8.749-3.438a.277.277 0 00-.312-.312H.315a.278.278 0 00-.313.312v.626A.278.278 0 00.315 10h9.374a.278.278 0 00.312-.312v-.626zm1.25-1.874v-.626a.279.279 0 00-.312-.312H1.565a.278.278 0 00-.313.312v.626a.278.278 0 00.313.312h9.374a.278.278 0 00.312-.312z"/></symbol><symbol id="icon-edit" viewBox="0 0 24 22"><path fill-rule="evenodd" clip-rule="evenodd" d="M16.666 15.039v4.899H2V4.813h10.083a.272.272 0 00.208-.086l1.334-1.375a.343.343 0 00.084-.386.305.305 0 00-.111-.159.29.29 0 00-.181-.057H2a1.939 1.939 0 00-.767.155 1.988 1.988 0 00-.65.447c-.186.191-.333.42-.433.67-.1.25-.151.52-.15.79v15.126c-.001.27.05.54.15.79.1.251.247.479.433.67.186.192.407.344.65.447.243.104.504.156.767.155h14.666c.263.001.524-.051.767-.155.243-.103.464-.255.65-.446.186-.192.333-.42.433-.67.1-.252.151-.52.15-.791v-6.23a.356.356 0 00-.049-.205.34.34 0 00-.154-.137.326.326 0 00-.38.083l-1.333 1.375a.29.29 0 00-.084.215zM24 4.362a2.497 2.497 0 00-.176-.967 2.434 2.434 0 00-.533-.816L21.5.73A2.431 2.431 0 0019.75 0a2.269 2.269 0 00-.927.182c-.294.126-.56.312-.78.548L7.082 12.03 6.668 15.9c-.027.266.003.536.09.789.086.252.227.482.41.671.184.19.407.335.652.424.245.089.506.12.765.092l3.75-.428 10.958-11.3c.23-.232.411-.51.533-.817.121-.307.18-.637.174-.968zM11.417 15.469l-2.709.3L9 12.977l7.75-7.992 2.416 2.493-7.75 7.992zM21.875 4.684l-1.292 1.332-2.417-2.492 1.292-1.332a.41.41 0 01.313-.15.398.398 0 01.312.15l1.792 1.847a.42.42 0 01.145.322.431.431 0 01-.145.323z"/></symbol><symbol id="icon-env" viewBox="0 0 24 18"><path fill-rule="evenodd" clip-rule="evenodd" d="M22.964 16.883a2.095 2.095 0 01-1.54.636H2.574a2.167 2.167 0 01-2.175-2.177V5.45c.15.121.385.325.702.612.235.221.485.426.748.613.71.484 1.786 1.183 3.228 2.098a97.124 97.124 0 013.206 2.098c1.48 1.044 2.718 1.565 3.715 1.565.997 0 2.236-.521 3.716-1.565.8-.544 1.944-1.293 3.432-2.245a819.03 819.03 0 003.002-1.929 6.374 6.374 0 001.45-1.247v9.89a2.1 2.1 0 01-.634 1.542zM22.885 4.01a6.568 6.568 0 01-1.507 1.418L15.33 9.374l-.385.261c-.212.144-.37.25-.475.318-.106.068-.264.166-.476.295a6.22 6.22 0 01-1.018.51 3.28 3.28 0 01-.51.171 1.929 1.929 0 01-.93 0 3.276 3.276 0 01-.509-.17 6.056 6.056 0 01-1.019-.51 17.343 17.343 0 01-.95-.614l-.385-.26c-.592-.393-1.57-1.02-2.938-1.883A112.552 112.552 0 012.62 5.474a6.626 6.626 0 01-1.53-1.464C.63 3.413.4 2.834.4 2.275A2.167 2.167 0 012.574.097h18.85a2.05 2.05 0 011.551.658 2.227 2.227 0 01.623 1.588c0 .514-.237 1.07-.713 1.667z"/></symbol><symbol id="icon-eye" viewBox="0 0 24 16"><path fill-rule="evenodd" clip-rule="evenodd" d="M10.71 3.542c.19.345.29.733.291 1.127a2.35 2.35 0 01-2.333 2.334c-.394-.001-.781-.102-1.126-.293a4.984 4.984 0 00-.167 1.292 4.647 4.647 0 008.24 2.909 4.648 4.648 0 00-.303-6.222A4.507 4.507 0 0012 3.335c-.44 0-.876.07-1.292.209l.001-.002zm8.249-1.521a12.987 12.987 0 00-13.916 0A13.927 13.927 0 00.125 7.376a1.626 1.626 0 000 1.25 14.175 14.175 0 002.958 3.853 13.51 13.51 0 004.104 2.583 12.919 12.919 0 0011.77-1.083 13.927 13.927 0 004.918-5.355 1.627 1.627 0 000-1.25 13.933 13.933 0 00-4.916-5.353zM8.063 13.273a11.316 11.316 0 01-3.436-2.084 11.582 11.582 0 01-2.542-3.188 11.584 11.584 0 014.187-4.396 11.03 11.03 0 0111.458 0A11.593 11.593 0 0121.917 8a11.584 11.584 0 01-4.187 4.397 11.02 11.02 0 01-9.667.875z"/></symbol><symbol id="icon-file" viewBox="0 0 14 18"><path fill-rule="evenodd" clip-rule="evenodd" d="M10.427.492a1.694 1.694 0 00-.567-.37A1.744 1.744 0 009.187 0H1.75a1.8 1.8 0 00-.67.127 1.749 1.749 0 00-.57.365 1.678 1.678 0 00-.379.549A1.628 1.628 0 000 1.688v14.624c0 .222.044.442.132.647.087.205.216.392.379.549.162.156.356.28.568.365A1.8 1.8 0 001.75 18h10.5a1.8 1.8 0 00.67-.127c.213-.084.407-.208.57-.365.162-.157.29-.343.378-.549.088-.205.133-.425.132-.646V4.64a1.578 1.578 0 00-.127-.649 1.627 1.627 0 00-.383-.547L10.426.492zM9.333 4.5V1.828l2.773 2.674H9.335L9.333 4.5zM1.75 1.688h5.833v3.656a.815.815 0 00.256.597.875.875 0 00.62.247h3.79v10.124H1.75V1.688z"/></symbol><symbol id="icon-filter" viewBox="0 0 18 16"><path fill-rule="evenodd" clip-rule="evenodd" d="M10.125 1.429V.572A.556.556 0 009.78.038.533.533 0 009.562 0H8.438a.533.533 0 00-.405.161.55.55 0 00-.158.41v.858H.563a.534.534 0 00-.404.16A.55.55 0 000 2v.571a.557.557 0 00.158.411.54.54 0 00.405.16h7.312V4a.558.558 0 00.158.41.54.54 0 00.405.162h1.124a.534.534 0 00.405-.161.552.552 0 00.158-.41v-.858h7.312a.533.533 0 00.405-.16A.551.551 0 0018 2.57v-.57a.56.56 0 00-.159-.412.54.54 0 00-.404-.16h-7.312zm-4.5 11.428V12a.558.558 0 00-.158-.411.54.54 0 00-.404-.16H3.938a.533.533 0 00-.405.16.55.55 0 00-.158.41v.858H.563a.535.535 0 00-.404.16.551.551 0 00-.159.411v.571a.557.557 0 00.158.411.54.54 0 00.405.16h2.812v.858a.557.557 0 00.158.41.542.542 0 00.405.162h1.125a.533.533 0 00.404-.161.551.551 0 00.158-.41v-.858h11.812a.533.533 0 00.405-.16.551.551 0 00.158-.412v-.571a.559.559 0 00-.159-.41.54.54 0 00-.404-.161H5.625zm9-5.714v-.857a.556.556 0 00-.344-.534.533.533 0 00-.219-.038h-1.125a.533.533 0 00-.404.16.551.551 0 00-.158.412v.857H.563a.534.534 0 00-.404.16.55.55 0 00-.159.411v.571a.557.557 0 00.158.411.54.54 0 00.405.16h11.812v.858a.56.56 0 00.158.41.54.54 0 00.404.162h1.125a.533.533 0 00.405-.161.55.55 0 00.158-.41v-.858h2.812a.533.533 0 00.405-.16.551.551 0 00.158-.412v-.57a.56.56 0 00-.159-.412.54.54 0 00-.404-.16h-2.812z"/></symbol><symbol id="icon-finish" viewBox="0 0 174.75 177.282"><path d="M81.547 89.188a117.551 117.551 0 0113.859 3.947q8.658 2.925 11.781 3.607l-.056-23.545a116.126 116.126 0 01-13.859-3.949q-8.665-2.916-11.781-3.607zm36.918-55.142q-9.009.021-27.022-6t-30.311-5.987a68.855 68.855 0 00-23.708 4.211 16.729 16.729 0 001.365-8.313 18.306 18.306 0 00-2.964-8.823 19.988 19.988 0 00-6.767-6.389 20.612 20.612 0 00-9.009-2.749 18.475 18.475 0 00-14.183 5.4A18.765 18.765 0 00.013 19.433 18.525 18.525 0 008.36 35.34l.318 133.652a8.275 8.275 0 008.329 8.29l5.54-.013a8.276 8.276 0 008.291-8.33l-.078-32.547a100.325 100.325 0 0139.454-7.711q8.652-.021 26.849 5.822t30.656 5.814q21.815-.053 42.209-14.3a10.062 10.062 0 004.826-9.014l-.2-84.138a10.2 10.2 0 00-5.216-9.336 11.125 11.125 0 00-10.735-.667q-23.524 11.141-40.138 11.175zm-87.747 84.342l-.058-24.237a98.084 98.084 0 0125.607-6.293l.06 24.929a94.027 94.027 0 00-25.609 5.6zm101.688-44.212l.058 24.584a65.072 65.072 0 0025.6-9.064l.058 24.238q-12.795 8.34-25.6 9.755l-.059-24.929a59.664 59.664 0 01-25.281-2.018l.056 23.545q-21.83-6.87-25.64-7.557l-.051-23.542a89.617 89.617 0 00-25.28-1.325l-.061-24.24q-9.694 1.411-25.605 7.332l-.058-24.237q19.022-7.317 25.605-7.678l.058 24.583a59.853 59.853 0 0125.281 2.018l-.056-23.545q21.482 6.879 25.64 7.556l.056 23.545a62.775 62.775 0 0025.279.979l-.059-24.93a111.593 111.593 0 0025.6-8.024l.059 24.583q-16.263 6.969-25.6 8.371z" fill-rule="evenodd"/></symbol><symbol id="icon-finished" viewBox="0 0 199.593 177.593"><path d="M55.998 43.731q.051 21.473 39.633 67.771a5.193 5.193 0 008.31-.02q39.363-46.488 39.312-67.958a43.628 43.628 0 00-87.255.207zM2.067 79.177a11.167 11.167 0 00-2.062 6.237l.2 86.562a5.13 5.13 0 00.7 2.595 5.564 5.564 0 001.736 1.9 7.722 7.722 0 002.426 1.033 3.939 3.939 0 002.769-.352l47.73-21.927-.185-80.681a88.08 88.08 0 01-7.31-16.257L6.907 75.005a10.246 10.246 0 00-4.84 4.167zm84.926 39.617q-11.46-13.818-20.492-26.613l.149 63.017 66.532 22-.2-85.177q-8.978 12.835-20.365 26.71a16.884 16.884 0 01-25.622.061zm57.033-41.339l.236 99.719 48.429-19.5a10.7 10.7 0 003.457-2.432 11.839 11.839 0 002.588-3.815 10.783 10.783 0 00.855-4.157l-.2-86.562a5.083 5.083 0 00-1.22-3.459 6.372 6.372 0 00-2.775-1.9 5.706 5.706 0 00-3.635.182z" fill-rule="evenodd"/></symbol><symbol id="icon-flag" viewBox="0 0 15.657 22.5"><path d="M.002 0v22.509H1.68V12.303h13.981V.839H1.82V0H.002z" fill-rule="evenodd"/></symbol><symbol id="icon-login" viewBox="0 0 18 14"><path fill-rule="evenodd" clip-rule="evenodd" d="M17.015 12.976c.319-.322.57-.707.74-1.133.17-.427.252-.884.245-1.345V3.502a3.596 3.596 0 00-.254-1.34 3.496 3.496 0 00-.73-1.138 3.355 3.355 0 00-1.097-.758 3.257 3.257 0 00-1.294-.262h-2.952a.36.36 0 00-.316.11.388.388 0 00-.106.327v.875a.4.4 0 00.106.328.37.37 0 00.316.109h2.952c.222-.001.442.044.647.131.205.088.392.216.548.379.157.163.281.356.366.568.084.213.127.441.126.67v6.997c.001.23-.042.458-.126.67a1.747 1.747 0 01-.366.569 1.677 1.677 0 01-.548.379 1.629 1.629 0 01-.647.131h-2.952a.361.361 0 00-.316.11.389.389 0 00-.106.328v.874a.4.4 0 00.106.328.371.371 0 00.316.11h2.952c.445.007.886-.079 1.297-.255a3.251 3.251 0 001.093-.766zM5.205 1.425a.386.386 0 000 .622L9.18 6.055H.426a.36.36 0 00-.317.11.39.39 0 00-.105.328v1.02a.4.4 0 00.105.328.371.371 0 00.317.109H9.18l-3.972 4.008a.385.385 0 000 .62l.668.692c.033.05.077.092.13.12a.35.35 0 00.467-.12l5.765-5.976a.386.386 0 000-.622L6.473.697A.376.376 0 006.166.56a.365.365 0 00-.29.172l-.67.692z"/></symbol><symbol id="icon-logout" viewBox="0 0 18 14"><path fill-rule="evenodd" clip-rule="evenodd" d="M.984 1.024c-.318.322-.57.707-.739 1.133-.17.427-.252.884-.244 1.345v6.996c-.002.46.084.916.253 1.34.168.426.417.813.73 1.138.313.325.686.582 1.096.758.41.175.849.264 1.292.262h2.95a.36.36 0 00.316-.11.39.39 0 00.105-.327v-.874a.4.4 0 00-.105-.329.371.371 0 00-.316-.109h-2.95a1.625 1.625 0 01-.646-.131 1.675 1.675 0 01-.548-.379 1.747 1.747 0 01-.366-.568 1.799 1.799 0 01-.126-.67V3.501c0-.23.042-.458.126-.67.085-.213.209-.406.366-.57.156-.162.343-.29.548-.378.205-.088.424-.132.646-.131h2.95a.36.36 0 00.316-.11.39.39 0 00.105-.327V.44a.4.4 0 00-.105-.328.37.37 0 00-.316-.11h-2.95a3.147 3.147 0 00-1.296.254c-.41.176-.782.437-1.092.767zm9.833.4a.371.371 0 00-.16.312.386.386 0 00.16.31l3.968 4.009H6.041a.36.36 0 00-.316.11.39.39 0 00-.106.327v1.02a.4.4 0 00.106.328.37.37 0 00.316.11h8.744l-3.968 4.008a.385.385 0 000 .62l.667.692c.033.05.078.091.13.12a.35.35 0 00.467-.12l5.76-5.976a.386.386 0 000-.622L12.08.696a.376.376 0 00-.307-.136.365.365 0 00-.29.173l-.667.692z"/></symbol><symbol id="icon-mail" viewBox="0 0 24 18"><path fill-rule="evenodd" clip-rule="evenodd" d="M2.25 0A2.24 2.24 0 000 2.25v13.5A2.242 2.242 0 002.25 18h19.5A2.24 2.24 0 0024 15.75V2.25A2.24 2.24 0 0021.75 0H2.25zm19.5 4.171a811.832 811.832 0 01-6.328 4.969 4.255 4.255 0 01-.656.586c-.315.267-.644.517-.985.75-.218.14-.507.305-.866.493a1.626 1.626 0 01-1.829 0c-.36-.188-.648-.353-.867-.493-.341-.232-.67-.483-.984-.75a4.215 4.215 0 01-.656-.586A789.41 789.41 0 012.25 4.171V2.25h19.5v1.921zm-19.5 2.86a741.56 741.56 0 004.922 3.89c.237.167.464.347.68.54.39.328.695.57.914.726.22.157.524.36.914.61.361.237.757.419 1.172.538a3.981 3.981 0 002.273 0 5.34 5.34 0 001.172-.515c.406-.235.719-.43.938-.586.218-.157.522-.406.914-.75.214-.201.441-.39.68-.563a742.208 742.208 0 004.921-3.89v8.719H2.25V7.029v.002z"/></symbol><symbol id="icon-microphone" viewBox="0 0 512 512"><path class="st0" d="M379.937 200.743v49.573c-.012 34.204-13.87 65.085-36.346 87.596-22.513 22.478-53.384 36.335-87.586 36.335-34.204 0-65.086-13.857-87.598-36.335-22.476-22.511-36.333-53.393-36.345-87.596v-49.573H95.49v49.573c.035 82.37 62.275 150.266 142.23 159.384v69.787h-46.739V512h130.026v-32.513h-46.715V409.7c79.942-9.119 142.182-77.014 142.218-159.384v-49.573h-36.573z"/><path class="st0" d="M256.006 334.032c46.155 0 83.704-37.561 83.704-83.716v-166.6C339.71 37.561 302.161 0 256.006 0c-46.156 0-83.717 37.561-83.717 83.716v166.599c0 46.156 37.561 83.717 83.717 83.717z"/></symbol><symbol id="icon-paperclip" viewBox="0 0 24 24"><path clip-rule="evenodd" d="M4.222 11.293a5 5 0 117.07-7.071l7.072 7.07a3 3 0 11-4.243 4.244l-7.07-7.072A1 1 0 118.463 7.05l7.072 7.071a1 1 0 001.414-1.414L9.879 5.636a3 3 0 00-4.243 4.243l8.485 8.485a3 3 0 005.02-1.344 1 1 0 011.932.517 5 5 0 01-8.366 2.242l-8.485-8.486z"/></symbol><symbol id="icon-parts" viewBox="0 0 20 20"><path fill-rule="evenodd" clip-rule="evenodd" d="M8.75 5.666L9.922 6.84a4.094 4.094 0 014.024-4.961h.039l-2.227 2.226.586 3.556 3.556.586 2.226-2.227a4.122 4.122 0 01-1.21 2.969 4.5 4.5 0 01-1.25.82c.025.027.051.053.077.078.056.035.108.075.157.118l1.172 1.21c.427-.248.82-.55 1.171-.898a6.176 6.176 0 001.524-2.676c.285-1 .299-2.058.039-3.066a1.242 1.242 0 00-.938-.976 1.312 1.312 0 00-1.328.351l-2.304 2.305-1.25-.235-.235-1.25 2.305-2.304a1.222 1.222 0 00.37-1.309A1.29 1.29 0 0015.432.2a6.048 6.048 0 00-3.086.02A5.848 5.848 0 009.69 1.762c-.375.404-.702.85-.976 1.328l.038.039v2.539-.002zM3.204 18.127a1.326 1.326 0 01-.938-2.265L7.5 10.625 6.172 9.296.938 14.531a3.204 3.204 0 004.531 4.53l3.945-3.944a4.037 4.037 0 01-.625-2.03L4.14 17.733a1.278 1.278 0 01-.937.39v.003zM15 10.898a2.883 2.883 0 00-1.601-.82 2.59 2.59 0 00-1.72.273L7.5 6.171V3.75L2.5 0 0 2.5l3.75 5h2.422l4.18 4.18a2.58 2.58 0 00-.273 1.718c.095.608.382 1.17.82 1.601l4.57 4.57a1.41 1.41 0 001.035.43 1.29 1.29 0 00.996-.43l2.07-2.07a1.414 1.414 0 000-2.03L15 10.897z"/></symbol><symbol id="icon-payment" viewBox="0 0 28 20"><path fill-rule="evenodd" clip-rule="evenodd" d="M1.4 0C1.03.005.677.157.416.424.154.691.005 1.051 0 1.429V18.57c.005.378.154.738.416 1.005.261.267.614.419.984.424h25.2c.37-.005.723-.157.984-.424.262-.267.411-.627.416-1.005V1.43a1.463 1.463 0 00-.416-1.005A1.405 1.405 0 0026.6 0H1.4zm.7 17.857V2.143h23.8v15.714H2.1zm14.35-5a.304.304 0 00.262-.09.32.32 0 00.088-.267v-1.428a.322.322 0 00-.088-.267.31.31 0 00-.262-.09h-3.5a.306.306 0 00-.262.09.318.318 0 00-.088.267V12.5a.324.324 0 00.088.267.31.31 0 00.262.09h3.5zm3.5-2.143a.306.306 0 00-.262.09.318.318 0 00-.088.268V12.5a.324.324 0 00.088.267.31.31 0 00.262.09h3.5a.304.304 0 00.262-.09.32.32 0 00.088-.267v-1.428a.322.322 0 00-.088-.267.31.31 0 00-.262-.09h-3.5zm3.5-1.428a.305.305 0 00.262-.09.318.318 0 00.088-.268V7.5a.323.323 0 00-.088-.267.31.31 0 00-.262-.09h-10.5a.305.305 0 00-.262.09.319.319 0 00-.088.267v1.428a.323.323 0 00.088.267.31.31 0 00.262.09h10.5zm-13.578.864c.21-.217.375-.477.483-.763.107-.285.156-.59.144-.896a2.246 2.246 0 00-.144-.893 2.21 2.21 0 00-.483-.758 2.173 2.173 0 00-1.61-.623h-2.65a.165.165 0 00-.144.049.172.172 0 00-.047.145V9.91h-.826c-.05 0-.099.02-.135.057a.196.196 0 00-.055.138v.485c0 .052.02.101.055.138a.189.189 0 00.135.056h.826v.614h-.826a.165.165 0 00-.143.048.171.171 0 00-.047.146v.389a.175.175 0 00.047.146.167.167 0 00.143.048h.826v1.102a.175.175 0 00.047.145.167.167 0 00.143.049h.635a.165.165 0 00.143-.049.172.172 0 00.047-.145v-1.102h2.857a.165.165 0 00.143-.048.171.171 0 00.047-.146v-.389a.174.174 0 00-.047-.146.167.167 0 00-.143-.048H6.436v-.615h1.825a2.158 2.158 0 001.611-.632zM8.118 7.106a1.344 1.344 0 011 .364 1.356 1.356 0 01.365 1.013 1.438 1.438 0 01-.373 1.044 1.358 1.358 0 01-1.008.38H6.436V7.107h1.682z"/></symbol><symbol id="icon-phone" viewBox="0 0 22 23"><path fill-rule="evenodd" clip-rule="evenodd" d="M5.29 14.567h.756l2.267 3.023s3.098-1.305 5.29-3.401c2.153-2.06 3.4-4.912 3.4-4.912l-3.022-2.645v-.756L16.248.964h3.022c2.299.433 5.629 7.974-2.267 15.87C9.107 24.73 1.266 22.823 0 19.857v-2.645l5.29-2.645z"/></symbol><symbol id="icon-photo" viewBox="0 0 21 20"><path fill-rule="evenodd" clip-rule="evenodd" d="M15.422 11.4a5.171 5.171 0 00-1.124-3.206 4.872 4.872 0 00-2.835-1.743 4.76 4.76 0 00-3.262.51 5.01 5.01 0 00-2.21 2.533 5.226 5.226 0 00-.156 3.407 5.055 5.055 0 001.969 2.737c.942.65 2.073.941 3.2.826a4.835 4.835 0 002.983-1.459 4.924 4.924 0 001.078-1.649c.247-.62.369-1.285.357-1.955zm-1.969 0a3.103 3.103 0 01-.674 1.925 2.923 2.923 0 01-1.701 1.046 2.856 2.856 0 01-1.958-.306 3.007 3.007 0 01-1.326-1.52 3.136 3.136 0 01-.094-2.044A3.034 3.034 0 018.881 8.86a2.867 2.867 0 013.71.379c.28.28.5.617.648.99.148.371.221.77.214 1.173zm-3.65-.72a.946.946 0 01.697-.297.645.645 0 00.464-.198.69.69 0 00.192-.48.69.69 0 00-.192-.48.645.645 0 00-.464-.199 2.273 2.273 0 00-1.62.7 2.43 2.43 0 00-.677 1.675c0 .18.07.352.193.48a.646.646 0 00.928 0 .69.69 0 00.192-.48 1.009 1.009 0 01.287-.721zm9.228-5.428v12.213H1.97V5.252h4.963l.984-2.714h5.168l.984 2.714h4.963zM7.916.503a1.85 1.85 0 00-.78.17c-.24.109-.456.267-.635.466-.179.2-.325.429-.43.678l-.493 1.4h-3.61a1.904 1.904 0 00-.754.152c-.24.102-.457.252-.64.441-.183.19-.328.414-.426.662a2.086 2.086 0 00-.148.78v12.213c-.001.267.05.532.148.78.098.247.243.472.426.661.183.19.4.34.64.441.24.102.496.154.755.153H19.03c.26.001.516-.05.755-.153.24-.102.457-.252.64-.44a2.03 2.03 0 00.426-.662c.099-.248.15-.513.148-.78V5.252a2.088 2.088 0 00-.148-.78 2.033 2.033 0 00-.426-.662c-.183-.189-.4-.339-.64-.44a1.904 1.904 0 00-.755-.153h-3.609l-.574-1.612a1.586 1.586 0 00-.597-.827 1.5 1.5 0 00-.962-.275H7.916z"/></symbol><symbol id="icon-profile" viewBox="0 0 26 20"><path fill-rule="evenodd" clip-rule="evenodd" d="M2.167 0A2.178 2.178 0 00.632.625 2.132 2.132 0 000 2.143v15.714a2.112 2.112 0 00.632 1.518A2.159 2.159 0 002.167 20h21.666a2.178 2.178 0 001.535-.625A2.131 2.131 0 0026 17.857V2.143a2.111 2.111 0 00-.632-1.518A2.159 2.159 0 0023.833 0H2.167zm11.51 17.857c.042-.325.057-.654.045-.982.001-.35-.078-.697-.23-1.014a2.354 2.354 0 00-.65-.817 3.174 3.174 0 00-2.144-.761c-.262.03-.52.09-.767.178a4.567 4.567 0 01-2.528 0 3.534 3.534 0 00-.768-.178 3.173 3.173 0 00-2.144.761c-.275.221-.497.5-.65.817a2.327 2.327 0 00-.23 1.014c-.012.328.003.657.045.982h-1.49V5h21.667v12.857H13.677zm7.629-3.571a.324.324 0 00.347-.213.315.315 0 00.014-.144v-.715a.315.315 0 00-.216-.343.326.326 0 00-.145-.014H16.25a.326.326 0 00-.27.09.315.315 0 00-.091.267v.715a.313.313 0 00.091.266.32.32 0 00.27.09h5.056zm0-2.857a.324.324 0 00.347-.213.315.315 0 00.014-.144v-.715a.315.315 0 00-.216-.343.324.324 0 00-.145-.014H16.25a.325.325 0 00-.347.213.313.313 0 00-.014.144v.715a.312.312 0 00.091.266.322.322 0 00.27.09h5.056zm0-2.858a.324.324 0 00.347-.213.315.315 0 00.014-.143V7.5a.315.315 0 00-.216-.343.324.324 0 00-.145-.014H16.25a.325.325 0 00-.347.213.313.313 0 00-.014.144v.715a.313.313 0 00.091.266.321.321 0 00.27.09h5.056zM11.556 10a2.877 2.877 0 00-.643-1.85 2.934 2.934 0 00-1.686-1.025 2.958 2.958 0 00-1.96.269 2.91 2.91 0 00-1.34 1.44 2.867 2.867 0 00-.108 1.953 2.9 2.9 0 001.172 1.577 2.955 2.955 0 003.707-.355A2.724 2.724 0 0011.556 10z"/></symbol><symbol id="icon-register" viewBox="0 0 18 14"><path fill-rule="evenodd" clip-rule="evenodd" d="M17.873 7.141a.478.478 0 01-.324.11h-1.925v1.892a.464.464 0 01-.112.32.36.36 0 01-.284.125h-.395a.365.365 0 01-.284-.125.463.463 0 01-.11-.32V7.251h-1.914a.478.478 0 01-.324-.11.357.357 0 01-.127-.28v-.39a.35.35 0 01.127-.28.478.478 0 01.324-.11h1.913V4.187a.463.463 0 01.111-.32.36.36 0 01.284-.126h.396a.365.365 0 01.283.126c.076.089.116.203.112.32V6.08h1.925a.478.478 0 01.324.11.356.356 0 01.127.28v.39a.353.353 0 01-.127.28zm-5.429 5.543a1.297 1.297 0 01-.388.932 1.33 1.33 0 01-.945.384H1.333a1.341 1.341 0 01-.944-.384A1.31 1.31 0 010 12.684v-.712c.006-.973.4-1.903 1.097-2.59a3.771 3.771 0 012.625-1.083c.365.024.725.098 1.07.22a4.78 4.78 0 002.86 0 3.999 3.999 0 011.07-.22 3.772 3.772 0 012.625 1.083 3.673 3.673 0 011.098 2.59v.712zm-1.333-.712a2.371 2.371 0 00-.708-1.659 2.435 2.435 0 00-1.68-.699c-.296.058-.588.131-.876.22a6.136 6.136 0 01-3.25 0 8.39 8.39 0 00-.875-.22 2.435 2.435 0 00-1.68.7c-.447.44-.7 1.035-.709 1.658v.712h9.778v-.712zM6.222 7.86a4.016 4.016 0 01-2.521-.901 3.92 3.92 0 01-1.37-2.274 3.884 3.884 0 01.4-2.617A3.965 3.965 0 014.723.296 4.033 4.033 0 017.4.171c.881.265 1.642.823 2.152 1.58a3.89 3.89 0 01-.497 4.958 3.86 3.86 0 01-1.296.865 3.903 3.903 0 01-1.538.286zm1.89-5.81a2.71 2.71 0 00-3.387-.341 2.65 2.65 0 00-1.083 1.43 2.614 2.614 0 00.085 1.782 2.66 2.66 0 001.212 1.324c.547.29 1.18.383 1.788.265a2.689 2.689 0 001.552-.917c.394-.473.61-1.067.61-1.68A2.51 2.51 0 008.11 2.05z"/></symbol><symbol id="icon-save" viewBox="0 0 32 32"><path fill-rule="evenodd" clip-rule="evenodd" d="M24.609.984A3.255 3.255 0 0022.219 0H3.375A3.36 3.36 0 000 3.375v24.75A3.36 3.36 0 003.375 31.5h24.75a3.358 3.358 0 003.375-3.375V9.281a3.255 3.255 0 00-.984-2.39L24.609.984zM19.125 9h-9V3.375h9V9zM3.8 28.125a.373.373 0 01-.422-.422V3.797a.373.373 0 01.422-.422h2.953v7.313a1.68 1.68 0 001.688 1.687h12.374a1.679 1.679 0 001.685-1.687V3.656l5.484 5.485a.4.4 0 01.141.281v18.281a.373.373 0 01-.422.422H3.8zm5.765-7.875a6.245 6.245 0 101.829-4.359 5.946 5.946 0 00-1.832 4.359h.003zm3.376 0a2.76 2.76 0 11.808 2 2.724 2.724 0 01-.811-2h.003z"/></symbol><symbol id="icon-services" viewBox="0 0 19 20"><path fill-rule="evenodd" clip-rule="evenodd" d="M18.493 8.511a.93.93 0 00.428-.457.955.955 0 00.046-.63 10.131 10.131 0 00-2.564-4.467.857.857 0 00-1.144-.16l-1.223.724a9.206 9.206 0 00-1.301-.765V1.308a.974.974 0 00-.217-.604.975.975 0 00-.493-.362 9.486 9.486 0 00-5.05 0 .89.89 0 00-.534.345.922.922 0 00-.176.62v1.45a9.142 9.142 0 00-1.301.764l-1.223-.724a.857.857 0 00-1.144.16A10.118 10.118 0 00.033 7.424a.953.953 0 00.046.63c.086.199.238.36.428.457l1.222.725v1.53l-1.222.723a.929.929 0 00-.428.457.954.954 0 00-.046.63 10.114 10.114 0 002.564 4.467.857.857 0 001.144.16l1.223-.724c.413.291.848.547 1.301.765v1.448a.97.97 0 00.218.604.978.978 0 00.493.362 9.498 9.498 0 005.049 0 .89.89 0 00.534-.345.923.923 0 00.176-.62v-1.449a9.215 9.215 0 001.301-.765l1.223.725a.857.857 0 001.144-.16 10.124 10.124 0 002.564-4.467.955.955 0 00-.046-.63.93.93 0 00-.428-.458l-1.222-.724c.026-.509.026-1.02 0-1.529l1.222-.725zm-1.577 4.265a8.466 8.466 0 01-1.341 2.375l-1.736-1.006c-.449.376-.79.65-1.026.824a4.227 4.227 0 01-.75.443c-.26.121-.668.289-1.222.503v2.012a7.51 7.51 0 01-2.682 0v-2.011a12.809 12.809 0 01-1.597-.705 11.028 11.028 0 01-1.403-1.066l-1.735 1.006a8.452 8.452 0 01-1.342-2.374l1.736-1.006a6.74 6.74 0 010-3.54L2.082 7.223c.317-.86.77-1.662 1.342-2.374l1.735 1.006c.44-.392.909-.749 1.403-1.066.516-.27 1.05-.506 1.597-.704V2.074a7.51 7.51 0 012.682 0v2.012c.553.215.96.383 1.223.503.264.121.515.27.75.442.236.175.578.45 1.025.825l1.736-1.006a8.47 8.47 0 011.34 2.374L15.18 8.23a6.74 6.74 0 010 3.541l1.736 1.005zM5.713 10c.004.89.31 1.75.865 2.436A3.758 3.758 0 008.76 13.76c.856.171 1.743.034 2.511-.387a3.821 3.821 0 001.701-1.923 3.92 3.92 0 00.12-2.588 3.841 3.841 0 00-1.515-2.078 3.714 3.714 0 00-4.759.48c-.358.355-.64.78-.83 1.251-.19.471-.283.976-.275 1.485zm1.894 0c.002-.444.154-.875.432-1.217A1.879 1.879 0 019.13 8.12a1.853 1.853 0 011.255.193c.384.21.685.55.85.962.167.411.188.868.06 1.293a1.92 1.92 0 01-.757 1.04 1.857 1.857 0 01-2.38-.241A1.895 1.895 0 017.607 10z"/></symbol><symbol id="icon-sort" viewBox="0 0 6 11"><path fill-rule="evenodd" clip-rule="evenodd" d="M3 11a.924.924 0 01-.917-.93V3.177l-.518.526a.907.907 0 01-1.297 0 .941.941 0 010-1.316L2.352.273A.922.922 0 012.649.07a.903.903 0 011 .202l2.083 2.115a.941.941 0 010 1.316.907.907 0 01-1.297 0l-.518-.526v6.891c0 .514-.41.931-.917.931z"/></symbol><symbol id="icon-start" viewBox="0 0 199.593 177.593"><path d="M55.998 43.731q.051 21.473 39.633 67.771a5.193 5.193 0 008.31-.02q39.363-46.488 39.312-67.958a43.628 43.628 0 00-87.255.207zm29.085-.069a14.783 14.783 0 114.352 10.2 13.968 13.968 0 01-4.354-10.205zM2.067 79.177a11.167 11.167 0 00-2.062 6.237l.2 86.562a5.13 5.13 0 00.7 2.595 5.564 5.564 0 001.736 1.9 7.722 7.722 0 002.426 1.033 3.939 3.939 0 002.769-.352l47.73-21.927-.185-80.681a88.08 88.08 0 01-7.31-16.257L6.907 75.005a10.246 10.246 0 00-4.84 4.167zm84.926 39.617q-11.46-13.818-20.492-26.613l.149 63.017 66.532 22-.2-85.177q-8.978 12.835-20.365 26.71a16.884 16.884 0 01-25.622.061zm57.033-41.339l.236 99.719 48.429-19.5a10.7 10.7 0 003.457-2.432 11.839 11.839 0 002.588-3.815 10.783 10.783 0 00.855-4.157l-.2-86.562a5.083 5.083 0 00-1.22-3.459 6.372 6.372 0 00-2.775-1.9 5.706 5.706 0 00-3.635.182z" fill-rule="evenodd"/></symbol><symbol id="icon-text" viewBox="0 0 14 18"><path fill-rule="evenodd" clip-rule="evenodd" d="M10.427.492a1.694 1.694 0 00-.567-.37A1.744 1.744 0 009.187 0H1.75a1.8 1.8 0 00-.67.127 1.749 1.749 0 00-.57.365 1.678 1.678 0 00-.379.549A1.628 1.628 0 000 1.688v14.624c0 .222.044.442.132.647.087.205.216.392.379.549.162.156.356.28.568.365A1.8 1.8 0 001.75 18h10.5a1.8 1.8 0 00.67-.127c.213-.084.407-.208.57-.365.162-.157.29-.343.378-.549.088-.205.133-.425.132-.646V4.64a1.578 1.578 0 00-.127-.649 1.627 1.627 0 00-.383-.547L10.426.492zM9.333 4.5V1.828l2.773 2.674H9.335L9.333 4.5zM1.75 1.688h5.833v3.656a.815.815 0 00.256.597.876.876 0 00.62.247h3.79v10.124H1.75V1.688z"/><path d="M2.917 8.182h8.166v1.09H2.917v-1.09zM2.917 10.364h8.166v1.09H2.917v-1.09zM2.917 12.546h8.166v1.09H2.917v-1.09z"/></symbol><symbol id="icon-toggle" viewBox="0 0 28 20"><path d="M0 0h28v4H0V0zM0 8h28v4.099H0V8zM0 16h28v4H0v-4z"/></symbol><symbol id="icon-tracking" viewBox="0 0 20 20"><path fill-rule="evenodd" clip-rule="evenodd" d="M6.562 10a3.47 3.47 0 101.016-2.422A3.302 3.302 0 006.562 10zm1.876 0a1.533 1.533 0 113.066.054A1.533 1.533 0 018.438 10zm8.983-.938a7.463 7.463 0 00-6.483-6.483V.625A.601.601 0 0010.312 0h-.624a.602.602 0 00-.626.625V2.58A7.464 7.464 0 002.58 9.062H.625A.602.602 0 000 9.688v.624a.602.602 0 00.625.626H2.58a7.463 7.463 0 006.483 6.483v1.954a.602.602 0 00.626.625h.624a.601.601 0 00.626-.625V17.42a7.463 7.463 0 006.483-6.483h1.954a.602.602 0 00.625-.626v-.624a.601.601 0 00-.625-.626H17.42zM4.375 10a5.6 5.6 0 111.64 3.984A5.425 5.425 0 014.376 10z"/></symbol><symbol id="icon-tracks" viewBox="0 0 25 20"><path fill-rule="evenodd" clip-rule="evenodd" d="M23.75 14.375V9.844a2.71 2.71 0 00-.821-1.992L19.648 4.57a2.71 2.71 0 00-1.992-.821H16.25V2.188A2.2 2.2 0 0014.062 0H2.188A2.2 2.2 0 000 2.188v11.874a2.2 2.2 0 002.188 2.188H2.5a3.75 3.75 0 107.5 0h5a3.75 3.75 0 007.5 0h1.875a.6.6 0 00.625-.625V15a.6.6 0 00-.625-.625h-.625zM4.375 16.25a1.867 1.867 0 11.547 1.328 1.807 1.807 0 01-.547-1.328zm5.117-1.875a3.83 3.83 0 00-1.367-1.367 3.715 3.715 0 00-3.75 0 3.82 3.82 0 00-1.367 1.367h-.82a.277.277 0 01-.313-.313V2.188a.278.278 0 01.313-.313h11.874a.278.278 0 01.313.313v12.187H9.492zm8.164-8.75a.909.909 0 01.666.273l2.852 2.852H16.25V5.625h1.406zm-.781 10.625a1.866 1.866 0 11.546 1.328 1.808 1.808 0 01-.546-1.328zm1.875-3.75a3.648 3.648 0 00-2.5.977v-2.852h5.625v3.556a3.574 3.574 0 00-3.125-1.68V12.5z"/></symbol><symbol id="icon-update" viewBox="0 0 20 20"><path fill-rule="evenodd" clip-rule="evenodd" d="M17.052 2.945A9.537 9.537 0 009.999 0 10.028 10.028 0 00.004 9.477a.516.516 0 00.142.383.462.462 0 00.344.14h1.128a.411.411 0 00.484-.442c.1-2.024.99-3.928 2.478-5.303A7.614 7.614 0 0110 2.098a7.705 7.705 0 015.602 2.299l-2.216 2.217a.43.43 0 00-.08.504.441.441 0 00.443.302h5.763a.427.427 0 00.484-.484V1.167a.443.443 0 00-.303-.444.432.432 0 00-.504.081l-2.137 2.14zm1.33 7.053a.41.41 0 00-.484.443 7.743 7.743 0 01-2.478 5.303A7.613 7.613 0 0110 17.9a7.703 7.703 0 01-5.602-2.298l2.216-2.217a.43.43 0 00.08-.504.442.442 0 00-.443-.303H.488a.427.427 0 00-.484.484v5.767a.443.443 0 00.303.444.432.432 0 00.504-.081l2.135-2.137A9.536 9.536 0 0010 20a10.028 10.028 0 009.995-9.476.518.518 0 00-.142-.383.466.466 0 00-.343-.14H18.38l.002-.002z"/></symbol><symbol id="icon-user" viewBox="0 0 18 20"><path fill-rule="evenodd" clip-rule="evenodd" d="M18 18.12a1.83 1.83 0 01-.145.721 1.869 1.869 0 01-.418.61c-.179.175-.392.314-.626.408a1.965 1.965 0 01-.74.141H1.93a1.965 1.965 0 01-.74-.14 1.924 1.924 0 01-.627-.408 1.868 1.868 0 01-.417-.61A1.83 1.83 0 010 18.12v-1.018a5.214 5.214 0 011.587-3.701 5.49 5.49 0 013.797-1.546 5.86 5.86 0 011.547.313 6.996 6.996 0 004.138 0 5.853 5.853 0 011.547-.314c1.425.01 2.79.565 3.797 1.547a5.215 5.215 0 011.587 3.7v1.018zm-1.929-1.018a3.367 3.367 0 00-1.024-2.369 3.545 3.545 0 00-2.431-.998c-.427.082-.85.187-1.266.314a8.983 8.983 0 01-4.7 0 12.267 12.267 0 00-1.266-.314 3.545 3.545 0 00-2.43.998 3.367 3.367 0 00-1.025 2.37v1.017H16.07v-1.018zM9 11.23a5.853 5.853 0 01-3.647-1.288A5.59 5.59 0 013.37 6.692a5.49 5.49 0 01.58-3.737A5.712 5.712 0 016.832.423a5.902 5.902 0 013.875-.179A5.75 5.75 0 0113.818 2.5a5.504 5.504 0 01.94 3.668 5.557 5.557 0 01-1.66 3.417 5.587 5.587 0 01-1.874 1.235A5.708 5.708 0 019 11.23zm2.732-8.3a3.958 3.958 0 00-4.9-.487 3.791 3.791 0 00-1.564 2.042 3.69 3.69 0 00.123 2.546c.342.81.961 1.478 1.753 1.892A3.969 3.969 0 009.73 9.3a3.9 3.9 0 002.244-1.309c.57-.676.882-1.524.882-2.4a3.546 3.546 0 00-.28-1.444 3.624 3.624 0 00-.845-1.218z"/></symbol><symbol id="icon-users" viewBox="0 0 28 20"><path fill-rule="evenodd" clip-rule="evenodd" d="M25.2 5.757a4.3 4.3 0 00-.96-2.693 4.167 4.167 0 00-2.42-1.463 4.117 4.117 0 00-2.782.43 4.23 4.23 0 00-1.885 2.126 4.324 4.324 0 00-.132 2.861c.282.94.875 1.753 1.68 2.298a4.125 4.125 0 005.274-.532 4.13 4.13 0 00.92-1.385c.21-.52.314-1.08.305-1.642zm-2.1 0a2.151 2.151 0 01-.48 1.347c-.308.379-.735.638-1.21.732a2.06 2.06 0 01-1.392-.214 2.116 2.116 0 01-.943-1.064 2.163 2.163 0 01-.066-1.431c.14-.47.438-.877.84-1.15a2.063 2.063 0 012.639.266 2.093 2.093 0 01.612 1.513zm-12.73 5.386a6.682 6.682 0 01-1.992.312c-.66 0-1.318-.105-1.947-.312a5.318 5.318 0 00-1.531-.222 4.55 4.55 0 00-2.305.498A4.644 4.644 0 00.83 13.011a5.156 5.156 0 00-.83 2.849v2.003a2.16 2.16 0 00.612 1.514A2.089 2.089 0 002.1 20h12.6a2.06 2.06 0 001.487-.623 2.13 2.13 0 00.612-1.514V15.86a4.974 4.974 0 00-.874-2.85 4.538 4.538 0 00-1.737-1.594 4.443 4.443 0 00-2.288-.495 5.322 5.322 0 00-1.532.223h.001zm-8.267 6.723v-2.004a2.92 2.92 0 01.547-1.714c.339-.498.82-.879 1.378-1.09.45-.178.95-.178 1.4 0a8.558 8.558 0 005.95 0c.45-.178.95-.178 1.4 0 .571.199 1.063.582 1.4 1.09.345.503.528 1.102.525 1.714v2.004h-12.6zm11.2-12.822a5.07 5.07 0 00-1.103-3.19A4.915 4.915 0 009.357.1a4.853 4.853 0 00-3.29.483 4.984 4.984 0 00-2.24 2.498 5.098 5.098 0 00-.172 3.378A5.01 5.01 0 005.63 9.181a4.863 4.863 0 006.23-.62 4.8 4.8 0 001.079-1.606 4.87 4.87 0 00.364-1.91zm-2.1 0a2.922 2.922 0 01-.623 1.846c-.412.523-.99.884-1.634 1.022a2.796 2.796 0 01-1.899-.269A2.87 2.87 0 015.75 6.208a2.937 2.937 0 01-.106-1.949 2.886 2.886 0 011.136-1.572 2.801 2.801 0 013.593.354c.265.259.475.57.618.914.142.345.214.716.21 1.09h.003zm12.73 5.966c-.474.01-.945.085-1.4.223-1 .296-2.062.296-3.062 0a5.23 5.23 0 00-1.4-.223 4.192 4.192 0 00-1.662.356c.26.259.494.542.7.846.175.296.35.622.525.98.143-.03.29-.045.435-.045.385.038.766.113 1.138.223a7.35 7.35 0 003.587 0c.372-.11.753-.185 1.138-.223.315-.022.63.041.913.182.284.14.527.354.704.62.229.34.35.744.35 1.157v1.335H18.2v1.425c0 .24-.03.479-.087.712h8.137a1.69 1.69 0 001.247-.512A1.75 1.75 0 0028 16.798V15.15a4.291 4.291 0 00-.7-2.406 3.875 3.875 0 00-1.461-1.316 3.796 3.796 0 00-1.908-.42h.003z"/></symbol><symbol id="icon-wapp" viewBox="0 0 24 24"><path fill-rule="evenodd" clip-rule="evenodd" d="M5.788 21.95a11.769 11.769 0 10-4.098-4.061L0 23.582l5.788-1.633zm.118-2.413a9.716 9.716 0 10-1.892-1.864l-1.166 3.061 3.058-1.197zm3.018-6.398h.38l1.139 1.52s1.557-.656 2.658-1.71a8.73 8.73 0 001.71-2.468l-1.52-1.33v-.379l1.14-2.468h1.518c1.156.217 2.83 4.006-1.139 7.974-3.968 3.969-7.908 3.01-8.544 1.52v-1.33l2.658-1.329z"/></symbol><symbol id="icon-zoom" viewBox="0 0 17 17"><path fill-rule="evenodd" clip-rule="evenodd" d="M12.547 11.287a.308.308 0 00-.258-.129h-.453a6.742 6.742 0 10-.678.678v.453a.373.373 0 00.13.258l3.909 3.91a.33.33 0 00.549 0l.71-.711a.33.33 0 000-.55l-3.909-3.909zM1.596 6.765a5.185 5.185 0 111.518 3.65 4.975 4.975 0 01-1.518-3.65z"/></symbol> <view id="icon-aang-view-blue" viewBox="0 0 25.375 25.188"/><view id="icon-aang-view-black" viewBox="0 35.188 25.375 25.188"/><view id="icon-aang-view-dark" viewBox="0 70.376 25.375 25.188"/><view id="icon-aang-view-white" viewBox="0 105.56400000000001 25.375 25.188"/><view id="icon-arr-down-view-blue" viewBox="0 140.752 30 19"/><view id="icon-arr-down-view-black" viewBox="0 169.752 30 19"/><view id="icon-arr-down-view-dark" viewBox="0 198.752 30 19"/><view id="icon-arr-down-view-white" viewBox="0 227.752 30 19"/><view id="icon-arr-left-view-blue" viewBox="0 256.752 20 31"/><view id="icon-arr-left-view-black" viewBox="0 297.752 20 31"/><view id="icon-arr-left-view-dark" viewBox="0 338.752 20 31"/><view id="icon-arr-left-view-white" viewBox="0 379.752 20 31"/><view id="icon-arr-right-view-blue" viewBox="0 420.752 20 31"/><view id="icon-arr-right-view-black" viewBox="0 461.752 20 31"/><view id="icon-arr-right-view-dark" viewBox="0 502.752 20 31"/><view id="icon-arr-right-view-white" viewBox="0 543.752 20 31"/><view id="icon-arr-up-view-blue" viewBox="0 584.752 30 19"/><view id="icon-arr-up-view-black" viewBox="0 613.752 30 19"/><view id="icon-arr-up-view-dark" viewBox="0 642.752 30 19"/><view id="icon-arr-up-view-white" viewBox="0 671.752 30 19"/><view id="icon-calculation-view-blue" viewBox="0 700.752 49 49"/><view id="icon-calculation-view-black" viewBox="0 759.752 49 49"/><view id="icon-calculation-view-dark" viewBox="0 818.752 49 49"/><view id="icon-calculation-view-white" viewBox="0 877.752 49 49"/><view id="icon-cancel-view-blue" viewBox="0 936.752 18 18"/><view id="icon-cancel-view-black" viewBox="0 964.752 18 18"/><view id="icon-cancel-view-dark" viewBox="0 992.752 18 18"/><view id="icon-cancel-view-white" viewBox="0 1020.752 18 18"/><view id="icon-card-view-blue" viewBox="0 1048.752 41 32"/><view id="icon-card-view-black" viewBox="0 1090.752 41 32"/><view id="icon-card-view-dark" viewBox="0 1132.752 41 32"/><view id="icon-card-view-white" viewBox="0 1174.752 41 32"/><view id="icon-cargo-view-blue" viewBox="0 1216.752 26 20"/><view id="icon-cargo-view-black" viewBox="0 1246.752 26 20"/><view id="icon-cargo-view-dark" viewBox="0 1276.752 26 20"/><view id="icon-cargo-view-white" viewBox="0 1306.752 26 20"/><view id="icon-carrier-view-blue" viewBox="0 1336.752 27 20"/><view id="icon-carrier-view-black" viewBox="0 1366.752 27 20"/><view id="icon-carrier-view-dark" viewBox="0 1396.752 27 20"/><view id="icon-carrier-view-white" viewBox="0 1426.752 27 20"/><view id="icon-change-view-blue" viewBox="0 1456.752 25 22"/><view id="icon-change-view-black" viewBox="0 1488.752 25 22"/><view id="icon-change-view-dark" viewBox="0 1520.752 25 22"/><view id="icon-change-view-white" viewBox="0 1552.752 25 22"/><view id="icon-clock-view-blue" viewBox="0 1584.752 18 18"/><view id="icon-clock-view-black" viewBox="0 1612.752 18 18"/><view id="icon-clock-view-dark" viewBox="0 1640.752 18 18"/><view id="icon-clock-view-white" viewBox="0 1668.752 18 18"/><view id="icon-close-view-blue" viewBox="0 1696.752 19 19"/><view id="icon-close-view-black" viewBox="0 1725.752 19 19"/><view id="icon-close-view-dark" viewBox="0 1754.752 19 19"/><view id="icon-close-view-white" viewBox="0 1783.752 19 19"/><view id="icon-date-view-blue" viewBox="0 1812.752 18 20"/><view id="icon-date-view-black" viewBox="0 1842.752 18 20"/><view id="icon-date-view-dark" viewBox="0 1872.752 18 20"/><view id="icon-date-view-white" viewBox="0 1902.752 18 20"/><view id="icon-del-view-blue" viewBox="0 1932.752 17 20"/><view id="icon-del-view-black" viewBox="0 1962.752 17 20"/><view id="icon-del-view-dark" viewBox="0 1992.752 17 20"/><view id="icon-del-view-white" viewBox="0 2022.752 17 20"/><view id="icon-drivers-view-blue" viewBox="0 2052.752 25 20"/><view id="icon-drivers-view-black" viewBox="0 2082.752 25 20"/><view id="icon-drivers-view-dark" viewBox="0 2112.752 25 20"/><view id="icon-drivers-view-white" viewBox="0 2142.752 25 20"/><view id="icon-edit-view-blue" viewBox="0 2172.752 24 22"/><view id="icon-edit-view-black" viewBox="0 2204.752 24 22"/><view id="icon-edit-view-dark" viewBox="0 2236.752 24 22"/><view id="icon-edit-view-white" viewBox="0 2268.752 24 22"/><view id="icon-env-view-blue" viewBox="0 2300.752 24 18"/><view id="icon-env-view-black" viewBox="0 2328.752 24 18"/><view id="icon-env-view-dark" viewBox="0 2356.752 24 18"/><view id="icon-env-view-white" viewBox="0 2384.752 24 18"/><view id="icon-eye-view-blue" viewBox="0 2412.752 24 16"/><view id="icon-eye-view-black" viewBox="0 2438.752 24 16"/><view id="icon-eye-view-dark" viewBox="0 2464.752 24 16"/><view id="icon-eye-view-white" viewBox="0 2490.752 24 16"/><view id="icon-file-view-blue" viewBox="0 2516.752 14 18"/><view id="icon-file-view-black" viewBox="0 2544.752 14 18"/><view id="icon-file-view-dark" viewBox="0 2572.752 14 18"/><view id="icon-file-view-white" viewBox="0 2600.752 14 18"/><view id="icon-filter-view-blue" viewBox="0 2628.752 18 16"/><view id="icon-filter-view-black" viewBox="0 2654.752 18 16"/><view id="icon-filter-view-dark" viewBox="0 2680.752 18 16"/><view id="icon-filter-view-white" viewBox="0 2706.752 18 16"/><view id="icon-finish-view-blue" viewBox="0 2732.752 174.75 177.282"/><view id="icon-finish-view-black" viewBox="0 2920.034 174.75 177.282"/><view id="icon-finish-view-dark" viewBox="0 3107.316 174.75 177.282"/><view id="icon-finish-view-white" viewBox="0 3294.598 174.75 177.282"/><view id="icon-finished-view-blue" viewBox="0 3481.88 199.593 177.593"/><view id="icon-finished-view-black" viewBox="0 3669.473 199.593 177.593"/><view id="icon-finished-view-dark" viewBox="0 3857.0660000000003 199.593 177.593"/><view id="icon-finished-view-white" viewBox="0 4044.659 199.593 177.593"/><view id="icon-flag-view-blue" viewBox="0 4232.252 15.657 22.5"/><view id="icon-flag-view-black" viewBox="0 4264.752 15.657 22.5"/><view id="icon-flag-view-dark" viewBox="0 4297.252 15.657 22.5"/><view id="icon-flag-view-white" viewBox="0 4329.752 15.657 22.5"/><view id="icon-login-view-blue" viewBox="0 4362.252 18 14"/><view id="icon-login-view-black" viewBox="0 4386.252 18 14"/><view id="icon-login-view-dark" viewBox="0 4410.252 18 14"/><view id="icon-login-view-white" viewBox="0 4434.252 18 14"/><view id="icon-logout-view-blue" viewBox="0 4458.252 18 14"/><view id="icon-logout-view-black" viewBox="0 4482.252 18 14"/><view id="icon-logout-view-dark" viewBox="0 4506.252 18 14"/><view id="icon-logout-view-white" viewBox="0 4530.252 18 14"/><view id="icon-mail-view-blue" viewBox="0 4554.252 24 18"/><view id="icon-mail-view-black" viewBox="0 4582.252 24 18"/><view id="icon-mail-view-dark" viewBox="0 4610.252 24 18"/><view id="icon-mail-view-white" viewBox="0 4638.252 24 18"/><view id="icon-microphone-view-blue" viewBox="0 4666.252 512 512"/><view id="icon-microphone-view-black" viewBox="0 5188.252 512 512"/><view id="icon-microphone-view-dark" viewBox="0 5710.252 512 512"/><view id="icon-microphone-view-white" viewBox="0 6232.252 512 512"/><view id="icon-paperclip-view-blue" viewBox="0 6754.252 24 24"/><view id="icon-paperclip-view-black" viewBox="0 6788.252 24 24"/><view id="icon-paperclip-view-dark" viewBox="0 6822.252 24 24"/><view id="icon-paperclip-view-white" viewBox="0 6856.252 24 24"/><view id="icon-parts-view-blue" viewBox="0 6890.252 20 20"/><view id="icon-parts-view-black" viewBox="0 6920.252 20 20"/><view id="icon-parts-view-dark" viewBox="0 6950.252 20 20"/><view id="icon-parts-view-white" viewBox="0 6980.252 20 20"/><view id="icon-payment-view-blue" viewBox="0 7010.252 28 20"/><view id="icon-payment-view-black" viewBox="0 7040.252 28 20"/><view id="icon-payment-view-dark" viewBox="0 7070.252 28 20"/><view id="icon-payment-view-white" viewBox="0 7100.252 28 20"/><view id="icon-phone-view-blue" viewBox="0 7130.252 22 23"/><view id="icon-phone-view-black" viewBox="0 7163.252 22 23"/><view id="icon-phone-view-dark" viewBox="0 7196.252 22 23"/><view id="icon-phone-view-white" viewBox="0 7229.252 22 23"/><view id="icon-photo-view-blue" viewBox="0 7262.252 21 20"/><view id="icon-photo-view-black" viewBox="0 7292.252 21 20"/><view id="icon-photo-view-dark" viewBox="0 7322.252 21 20"/><view id="icon-photo-view-white" viewBox="0 7352.252 21 20"/><view id="icon-profile-view-blue" viewBox="0 7382.252 26 20"/><view id="icon-profile-view-black" viewBox="0 7412.252 26 20"/><view id="icon-profile-view-dark" viewBox="0 7442.252 26 20"/><view id="icon-profile-view-white" viewBox="0 7472.252 26 20"/><view id="icon-register-view-blue" viewBox="0 7502.252 18 14"/><view id="icon-register-view-black" viewBox="0 7526.252 18 14"/><view id="icon-register-view-dark" viewBox="0 7550.252 18 14"/><view id="icon-register-view-white" viewBox="0 7574.252 18 14"/><view id="icon-save-view-blue" viewBox="0 7598.252 32 32"/><view id="icon-save-view-black" viewBox="0 7640.252 32 32"/><view id="icon-save-view-dark" viewBox="0 7682.252 32 32"/><view id="icon-save-view-white" viewBox="0 7724.252 32 32"/><view id="icon-services-view-blue" viewBox="0 7766.252 19 20"/><view id="icon-services-view-black" viewBox="0 7796.252 19 20"/><view id="icon-services-view-dark" viewBox="0 7826.252 19 20"/><view id="icon-services-view-white" viewBox="0 7856.252 19 20"/><view id="icon-sort-view-blue" viewBox="0 7886.252 6 11"/><view id="icon-sort-view-black" viewBox="0 7907.252 6 11"/><view id="icon-sort-view-dark" viewBox="0 7928.252 6 11"/><view id="icon-sort-view-white" viewBox="0 7949.252 6 11"/><view id="icon-start-view-blue" viewBox="0 7970.252 199.593 177.593"/><view id="icon-start-view-black" viewBox="0 8157.845 199.593 177.593"/><view id="icon-start-view-dark" viewBox="0 8345.438 199.593 177.593"/><view id="icon-start-view-white" viewBox="0 8533.031 199.593 177.593"/><view id="icon-text-view-blue" viewBox="0 8720.624 14 18"/><view id="icon-text-view-black" viewBox="0 8748.624 14 18"/><view id="icon-text-view-dark" viewBox="0 8776.624 14 18"/><view id="icon-text-view-white" viewBox="0 8804.624 14 18"/><view id="icon-toggle-view-blue" viewBox="0 8832.624 28 20"/><view id="icon-toggle-view-black" viewBox="0 8862.624 28 20"/><view id="icon-toggle-view-dark" viewBox="0 8892.624 28 20"/><view id="icon-toggle-view-white" viewBox="0 8922.624 28 20"/><view id="icon-tracking-view-blue" viewBox="0 8952.624 20 20"/><view id="icon-tracking-view-black" viewBox="0 8982.624 20 20"/><view id="icon-tracking-view-dark" viewBox="0 9012.624 20 20"/><view id="icon-tracking-view-white" viewBox="0 9042.624 20 20"/><view id="icon-tracks-view-blue" viewBox="0 9072.624 25 20"/><view id="icon-tracks-view-black" viewBox="0 9102.624 25 20"/><view id="icon-tracks-view-dark" viewBox="0 9132.624 25 20"/><view id="icon-tracks-view-white" viewBox="0 9162.624 25 20"/><view id="icon-update-view-blue" viewBox="0 9192.624 20 20"/><view id="icon-update-view-black" viewBox="0 9222.624 20 20"/><view id="icon-update-view-dark" viewBox="0 9252.624 20 20"/><view id="icon-update-view-white" viewBox="0 9282.624 20 20"/><view id="icon-user-view-blue" viewBox="0 9312.624 18 20"/><view id="icon-user-view-black" viewBox="0 9342.624 18 20"/><view id="icon-user-view-dark" viewBox="0 9372.624 18 20"/><view id="icon-user-view-white" viewBox="0 9402.624 18 20"/><view id="icon-users-view-blue" viewBox="0 9432.624 28 20"/><view id="icon-users-view-black" viewBox="0 9462.624 28 20"/><view id="icon-users-view-dark" viewBox="0 9492.624 28 20"/><view id="icon-users-view-white" viewBox="0 9522.624 28 20"/><view id="icon-wapp-view-blue" viewBox="0 9552.624 24 24"/><view id="icon-wapp-view-black" viewBox="0 9586.624 24 24"/><view id="icon-wapp-view-dark" viewBox="0 9620.624 24 24"/><view id="icon-wapp-view-white" viewBox="0 9654.624 24 24"/><view id="icon-zoom-view-blue" viewBox="0 9688.624 17 17"/><view id="icon-zoom-view-black" viewBox="0 9715.624 17 17"/><view id="icon-zoom-view-dark" viewBox="0 9742.624 17 17"/><view id="icon-zoom-view-white" viewBox="0 9769.624 17 17"/> <use xlink:href="#icon-aang" x="0" y="0" width="25.375" height="25.188" style="fill:#0BACF0"/><use xlink:href="#icon-aang" x="0" y="35.188" width="25.375" height="25.188" style="fill:#2A2A2A"/><use xlink:href="#icon-aang" x="0" y="70.376" width="25.375" height="25.188" style="fill:#868686"/><use xlink:href="#icon-aang" x="0" y="105.56400000000001" width="25.375" height="25.188" style="fill:#ffffff"/><use xlink:href="#icon-arr-down" x="0" y="140.752" width="30" height="19" style="fill:#0BACF0"/><use xlink:href="#icon-arr-down" x="0" y="169.752" width="30" height="19" style="fill:#2A2A2A"/><use xlink:href="#icon-arr-down" x="0" y="198.752" width="30" height="19" style="fill:#868686"/><use xlink:href="#icon-arr-down" x="0" y="227.752" width="30" height="19" style="fill:#ffffff"/><use xlink:href="#icon-arr-left" x="0" y="256.752" width="20" height="31" style="fill:#0BACF0"/><use xlink:href="#icon-arr-left" x="0" y="297.752" width="20" height="31" style="fill:#2A2A2A"/><use xlink:href="#icon-arr-left" x="0" y="338.752" width="20" height="31" style="fill:#868686"/><use xlink:href="#icon-arr-left" x="0" y="379.752" width="20" height="31" style="fill:#ffffff"/><use xlink:href="#icon-arr-right" x="0" y="420.752" width="20" height="31" style="fill:#0BACF0"/><use xlink:href="#icon-arr-right" x="0" y="461.752" width="20" height="31" style="fill:#2A2A2A"/><use xlink:href="#icon-arr-right" x="0" y="502.752" width="20" height="31" style="fill:#868686"/><use xlink:href="#icon-arr-right" x="0" y="543.752" width="20" height="31" style="fill:#ffffff"/><use xlink:href="#icon-arr-up" x="0" y="584.752" width="30" height="19" style="fill:#0BACF0"/><use xlink:href="#icon-arr-up" x="0" y="613.752" width="30" height="19" style="fill:#2A2A2A"/><use xlink:href="#icon-arr-up" x="0" y="642.752" width="30" height="19" style="fill:#868686"/><use xlink:href="#icon-arr-up" x="0" y="671.752" width="30" height="19" style="fill:#ffffff"/><use xlink:href="#icon-calculation" x="0" y="700.752" width="49" height="49" style="fill:#0BACF0"/><use xlink:href="#icon-calculation" x="0" y="759.752" width="49" height="49" style="fill:#2A2A2A"/><use xlink:href="#icon-calculation" x="0" y="818.752" width="49" height="49" style="fill:#868686"/><use xlink:href="#icon-calculation" x="0" y="877.752" width="49" height="49" style="fill:#ffffff"/><use xlink:href="#icon-cancel" x="0" y="936.752" width="18" height="18" style="fill:#0BACF0"/><use xlink:href="#icon-cancel" x="0" y="964.752" width="18" height="18" style="fill:#2A2A2A"/><use xlink:href="#icon-cancel" x="0" y="992.752" width="18" height="18" style="fill:#868686"/><use xlink:href="#icon-cancel" x="0" y="1020.752" width="18" height="18" style="fill:#ffffff"/><use xlink:href="#icon-card" x="0" y="1048.752" width="41" height="32" style="fill:#0BACF0"/><use xlink:href="#icon-card" x="0" y="1090.752" width="41" height="32" style="fill:#2A2A2A"/><use xlink:href="#icon-card" x="0" y="1132.752" width="41" height="32" style="fill:#868686"/><use xlink:href="#icon-card" x="0" y="1174.752" width="41" height="32" style="fill:#ffffff"/><use xlink:href="#icon-cargo" x="0" y="1216.752" width="26" height="20" style="fill:#0BACF0"/><use xlink:href="#icon-cargo" x="0" y="1246.752" width="26" height="20" style="fill:#2A2A2A"/><use xlink:href="#icon-cargo" x="0" y="1276.752" width="26" height="20" style="fill:#868686"/><use xlink:href="#icon-cargo" x="0" y="1306.752" width="26" height="20" style="fill:#ffffff"/><use xlink:href="#icon-carrier" x="0" y="1336.752" width="27" height="20" style="fill:#0BACF0"/><use xlink:href="#icon-carrier" x="0" y="1366.752" width="27" height="20" style="fill:#2A2A2A"/><use xlink:href="#icon-carrier" x="0" y="1396.752" width="27" height="20" style="fill:#868686"/><use xlink:href="#icon-carrier" x="0" y="1426.752" width="27" height="20" style="fill:#ffffff"/><use xlink:href="#icon-change" x="0" y="1456.752" width="25" height="22" style="fill:#0BACF0"/><use xlink:href="#icon-change" x="0" y="1488.752" width="25" height="22" style="fill:#2A2A2A"/><use xlink:href="#icon-change" x="0" y="1520.752" width="25" height="22" style="fill:#868686"/><use xlink:href="#icon-change" x="0" y="1552.752" width="25" height="22" style="fill:#ffffff"/><use xlink:href="#icon-clock" x="0" y="1584.752" width="18" height="18" style="fill:#0BACF0"/><use xlink:href="#icon-clock" x="0" y="1612.752" width="18" height="18" style="fill:#2A2A2A"/><use xlink:href="#icon-clock" x="0" y="1640.752" width="18" height="18" style="fill:#868686"/><use xlink:href="#icon-clock" x="0" y="1668.752" width="18" height="18" style="fill:#ffffff"/><use xlink:href="#icon-close" x="0" y="1696.752" width="19" height="19" style="fill:#0BACF0"/><use xlink:href="#icon-close" x="0" y="1725.752" width="19" height="19" style="fill:#2A2A2A"/><use xlink:href="#icon-close" x="0" y="1754.752" width="19" height="19" style="fill:#868686"/><use xlink:href="#icon-close" x="0" y="1783.752" width="19" height="19" style="fill:#ffffff"/><use xlink:href="#icon-date" x="0" y="1812.752" width="18" height="20" style="fill:#0BACF0"/><use xlink:href="#icon-date" x="0" y="1842.752" width="18" height="20" style="fill:#2A2A2A"/><use xlink:href="#icon-date" x="0" y="1872.752" width="18" height="20" style="fill:#868686"/><use xlink:href="#icon-date" x="0" y="1902.752" width="18" height="20" style="fill:#ffffff"/><use xlink:href="#icon-del" x="0" y="1932.752" width="17" height="20" style="fill:#0BACF0"/><use xlink:href="#icon-del" x="0" y="1962.752" width="17" height="20" style="fill:#2A2A2A"/><use xlink:href="#icon-del" x="0" y="1992.752" width="17" height="20" style="fill:#868686"/><use xlink:href="#icon-del" x="0" y="2022.752" width="17" height="20" style="fill:#ffffff"/><use xlink:href="#icon-drivers" x="0" y="2052.752" width="25" height="20" style="fill:#0BACF0"/><use xlink:href="#icon-drivers" x="0" y="2082.752" width="25" height="20" style="fill:#2A2A2A"/><use xlink:href="#icon-drivers" x="0" y="2112.752" width="25" height="20" style="fill:#868686"/><use xlink:href="#icon-drivers" x="0" y="2142.752" width="25" height="20" style="fill:#ffffff"/><use xlink:href="#icon-edit" x="0" y="2172.752" width="24" height="22" style="fill:#0BACF0"/><use xlink:href="#icon-edit" x="0" y="2204.752" width="24" height="22" style="fill:#2A2A2A"/><use xlink:href="#icon-edit" x="0" y="2236.752" width="24" height="22" style="fill:#868686"/><use xlink:href="#icon-edit" x="0" y="2268.752" width="24" height="22" style="fill:#ffffff"/><use xlink:href="#icon-env" x="0" y="2300.752" width="24" height="18" style="fill:#0BACF0"/><use xlink:href="#icon-env" x="0" y="2328.752" width="24" height="18" style="fill:#2A2A2A"/><use xlink:href="#icon-env" x="0" y="2356.752" width="24" height="18" style="fill:#868686"/><use xlink:href="#icon-env" x="0" y="2384.752" width="24" height="18" style="fill:#ffffff"/><use xlink:href="#icon-eye" x="0" y="2412.752" width="24" height="16" style="fill:#0BACF0"/><use xlink:href="#icon-eye" x="0" y="2438.752" width="24" height="16" style="fill:#2A2A2A"/><use xlink:href="#icon-eye" x="0" y="2464.752" width="24" height="16" style="fill:#868686"/><use xlink:href="#icon-eye" x="0" y="2490.752" width="24" height="16" style="fill:#ffffff"/><use xlink:href="#icon-file" x="0" y="2516.752" width="14" height="18" style="fill:#0BACF0"/><use xlink:href="#icon-file" x="0" y="2544.752" width="14" height="18" style="fill:#2A2A2A"/><use xlink:href="#icon-file" x="0" y="2572.752" width="14" height="18" style="fill:#868686"/><use xlink:href="#icon-file" x="0" y="2600.752" width="14" height="18" style="fill:#ffffff"/><use xlink:href="#icon-filter" x="0" y="2628.752" width="18" height="16" style="fill:#0BACF0"/><use xlink:href="#icon-filter" x="0" y="2654.752" width="18" height="16" style="fill:#2A2A2A"/><use xlink:href="#icon-filter" x="0" y="2680.752" width="18" height="16" style="fill:#868686"/><use xlink:href="#icon-filter" x="0" y="2706.752" width="18" height="16" style="fill:#ffffff"/><use xlink:href="#icon-finish" x="0" y="2732.752" width="174.75" height="177.282" style="fill:#0BACF0"/><use xlink:href="#icon-finish" x="0" y="2920.034" width="174.75" height="177.282" style="fill:#2A2A2A"/><use xlink:href="#icon-finish" x="0" y="3107.316" width="174.75" height="177.282" style="fill:#868686"/><use xlink:href="#icon-finish" x="0" y="3294.598" width="174.75" height="177.282" style="fill:#ffffff"/><use xlink:href="#icon-finished" x="0" y="3481.88" width="199.593" height="177.593" style="fill:#0BACF0"/><use xlink:href="#icon-finished" x="0" y="3669.473" width="199.593" height="177.593" style="fill:#2A2A2A"/><use xlink:href="#icon-finished" x="0" y="3857.0660000000003" width="199.593" height="177.593" style="fill:#868686"/><use xlink:href="#icon-finished" x="0" y="4044.659" width="199.593" height="177.593" style="fill:#ffffff"/><use xlink:href="#icon-flag" x="0" y="4232.252" width="15.657" height="22.5" style="fill:#0BACF0"/><use xlink:href="#icon-flag" x="0" y="4264.752" width="15.657" height="22.5" style="fill:#2A2A2A"/><use xlink:href="#icon-flag" x="0" y="4297.252" width="15.657" height="22.5" style="fill:#868686"/><use xlink:href="#icon-flag" x="0" y="4329.752" width="15.657" height="22.5" style="fill:#ffffff"/><use xlink:href="#icon-login" x="0" y="4362.252" width="18" height="14" style="fill:#0BACF0"/><use xlink:href="#icon-login" x="0" y="4386.252" width="18" height="14" style="fill:#2A2A2A"/><use xlink:href="#icon-login" x="0" y="4410.252" width="18" height="14" style="fill:#868686"/><use xlink:href="#icon-login" x="0" y="4434.252" width="18" height="14" style="fill:#ffffff"/><use xlink:href="#icon-logout" x="0" y="4458.252" width="18" height="14" style="fill:#0BACF0"/><use xlink:href="#icon-logout" x="0" y="4482.252" width="18" height="14" style="fill:#2A2A2A"/><use xlink:href="#icon-logout" x="0" y="4506.252" width="18" height="14" style="fill:#868686"/><use xlink:href="#icon-logout" x="0" y="4530.252" width="18" height="14" style="fill:#ffffff"/><use xlink:href="#icon-mail" x="0" y="4554.252" width="24" height="18" style="fill:#0BACF0"/><use xlink:href="#icon-mail" x="0" y="4582.252" width="24" height="18" style="fill:#2A2A2A"/><use xlink:href="#icon-mail" x="0" y="4610.252" width="24" height="18" style="fill:#868686"/><use xlink:href="#icon-mail" x="0" y="4638.252" width="24" height="18" style="fill:#ffffff"/><use xlink:href="#icon-microphone" x="0" y="4666.252" width="512" height="512" style="fill:#0BACF0"/><use xlink:href="#icon-microphone" x="0" y="5188.252" width="512" height="512" style="fill:#2A2A2A"/><use xlink:href="#icon-microphone" x="0" y="5710.252" width="512" height="512" style="fill:#868686"/><use xlink:href="#icon-microphone" x="0" y="6232.252" width="512" height="512" style="fill:#ffffff"/><use xlink:href="#icon-paperclip" x="0" y="6754.252" width="24" height="24" style="fill:#0BACF0"/><use xlink:href="#icon-paperclip" x="0" y="6788.252" width="24" height="24" style="fill:#2A2A2A"/><use xlink:href="#icon-paperclip" x="0" y="6822.252" width="24" height="24" style="fill:#868686"/><use xlink:href="#icon-paperclip" x="0" y="6856.252" width="24" height="24" style="fill:#ffffff"/><use xlink:href="#icon-parts" x="0" y="6890.252" width="20" height="20" style="fill:#0BACF0"/><use xlink:href="#icon-parts" x="0" y="6920.252" width="20" height="20" style="fill:#2A2A2A"/><use xlink:href="#icon-parts" x="0" y="6950.252" width="20" height="20" style="fill:#868686"/><use xlink:href="#icon-parts" x="0" y="6980.252" width="20" height="20" style="fill:#ffffff"/><use xlink:href="#icon-payment" x="0" y="7010.252" width="28" height="20" style="fill:#0BACF0"/><use xlink:href="#icon-payment" x="0" y="7040.252" width="28" height="20" style="fill:#2A2A2A"/><use xlink:href="#icon-payment" x="0" y="7070.252" width="28" height="20" style="fill:#868686"/><use xlink:href="#icon-payment" x="0" y="7100.252" width="28" height="20" style="fill:#ffffff"/><use xlink:href="#icon-phone" x="0" y="7130.252" width="22" height="23" style="fill:#0BACF0"/><use xlink:href="#icon-phone" x="0" y="7163.252" width="22" height="23" style="fill:#2A2A2A"/><use xlink:href="#icon-phone" x="0" y="7196.252" width="22" height="23" style="fill:#868686"/><use xlink:href="#icon-phone" x="0" y="7229.252" width="22" height="23" style="fill:#ffffff"/><use xlink:href="#icon-photo" x="0" y="7262.252" width="21" height="20" style="fill:#0BACF0"/><use xlink:href="#icon-photo" x="0" y="7292.252" width="21" height="20" style="fill:#2A2A2A"/><use xlink:href="#icon-photo" x="0" y="7322.252" width="21" height="20" style="fill:#868686"/><use xlink:href="#icon-photo" x="0" y="7352.252" width="21" height="20" style="fill:#ffffff"/><use xlink:href="#icon-profile" x="0" y="7382.252" width="26" height="20" style="fill:#0BACF0"/><use xlink:href="#icon-profile" x="0" y="7412.252" width="26" height="20" style="fill:#2A2A2A"/><use xlink:href="#icon-profile" x="0" y="7442.252" width="26" height="20" style="fill:#868686"/><use xlink:href="#icon-profile" x="0" y="7472.252" width="26" height="20" style="fill:#ffffff"/><use xlink:href="#icon-register" x="0" y="7502.252" width="18" height="14" style="fill:#0BACF0"/><use xlink:href="#icon-register" x="0" y="7526.252" width="18" height="14" style="fill:#2A2A2A"/><use xlink:href="#icon-register" x="0" y="7550.252" width="18" height="14" style="fill:#868686"/><use xlink:href="#icon-register" x="0" y="7574.252" width="18" height="14" style="fill:#ffffff"/><use xlink:href="#icon-save" x="0" y="7598.252" width="32" height="32" style="fill:#0BACF0"/><use xlink:href="#icon-save" x="0" y="7640.252" width="32" height="32" style="fill:#2A2A2A"/><use xlink:href="#icon-save" x="0" y="7682.252" width="32" height="32" style="fill:#868686"/><use xlink:href="#icon-save" x="0" y="7724.252" width="32" height="32" style="fill:#ffffff"/><use xlink:href="#icon-services" x="0" y="7766.252" width="19" height="20" style="fill:#0BACF0"/><use xlink:href="#icon-services" x="0" y="7796.252" width="19" height="20" style="fill:#2A2A2A"/><use xlink:href="#icon-services" x="0" y="7826.252" width="19" height="20" style="fill:#868686"/><use xlink:href="#icon-services" x="0" y="7856.252" width="19" height="20" style="fill:#ffffff"/><use xlink:href="#icon-sort" x="0" y="7886.252" width="6" height="11" style="fill:#0BACF0"/><use xlink:href="#icon-sort" x="0" y="7907.252" width="6" height="11" style="fill:#2A2A2A"/><use xlink:href="#icon-sort" x="0" y="7928.252" width="6" height="11" style="fill:#868686"/><use xlink:href="#icon-sort" x="0" y="7949.252" width="6" height="11" style="fill:#ffffff"/><use xlink:href="#icon-start" x="0" y="7970.252" width="199.593" height="177.593" style="fill:#0BACF0"/><use xlink:href="#icon-start" x="0" y="8157.845" width="199.593" height="177.593" style="fill:#2A2A2A"/><use xlink:href="#icon-start" x="0" y="8345.438" width="199.593" height="177.593" style="fill:#868686"/><use xlink:href="#icon-start" x="0" y="8533.031" width="199.593" height="177.593" style="fill:#ffffff"/><use xlink:href="#icon-text" x="0" y="8720.624" width="14" height="18" style="fill:#0BACF0"/><use xlink:href="#icon-text" x="0" y="8748.624" width="14" height="18" style="fill:#2A2A2A"/><use xlink:href="#icon-text" x="0" y="8776.624" width="14" height="18" style="fill:#868686"/><use xlink:href="#icon-text" x="0" y="8804.624" width="14" height="18" style="fill:#ffffff"/><use xlink:href="#icon-toggle" x="0" y="8832.624" width="28" height="20" style="fill:#0BACF0"/><use xlink:href="#icon-toggle" x="0" y="8862.624" width="28" height="20" style="fill:#2A2A2A"/><use xlink:href="#icon-toggle" x="0" y="8892.624" width="28" height="20" style="fill:#868686"/><use xlink:href="#icon-toggle" x="0" y="8922.624" width="28" height="20" style="fill:#ffffff"/><use xlink:href="#icon-tracking" x="0" y="8952.624" width="20" height="20" style="fill:#0BACF0"/><use xlink:href="#icon-tracking" x="0" y="8982.624" width="20" height="20" style="fill:#2A2A2A"/><use xlink:href="#icon-tracking" x="0" y="9012.624" width="20" height="20" style="fill:#868686"/><use xlink:href="#icon-tracking" x="0" y="9042.624" width="20" height="20" style="fill:#ffffff"/><use xlink:href="#icon-tracks" x="0" y="9072.624" width="25" height="20" style="fill:#0BACF0"/><use xlink:href="#icon-tracks" x="0" y="9102.624" width="25" height="20" style="fill:#2A2A2A"/><use xlink:href="#icon-tracks" x="0" y="9132.624" width="25" height="20" style="fill:#868686"/><use xlink:href="#icon-tracks" x="0" y="9162.624" width="25" height="20" style="fill:#ffffff"/><use xlink:href="#icon-update" x="0" y="9192.624" width="20" height="20" style="fill:#0BACF0"/><use xlink:href="#icon-update" x="0" y="9222.624" width="20" height="20" style="fill:#2A2A2A"/><use xlink:href="#icon-update" x="0" y="9252.624" width="20" height="20" style="fill:#868686"/><use xlink:href="#icon-update" x="0" y="9282.624" width="20" height="20" style="fill:#ffffff"/><use xlink:href="#icon-user" x="0" y="9312.624" width="18" height="20" style="fill:#0BACF0"/><use xlink:href="#icon-user" x="0" y="9342.624" width="18" height="20" style="fill:#2A2A2A"/><use xlink:href="#icon-user" x="0" y="9372.624" width="18" height="20" style="fill:#868686"/><use xlink:href="#icon-user" x="0" y="9402.624" width="18" height="20" style="fill:#ffffff"/><use xlink:href="#icon-users" x="0" y="9432.624" width="28" height="20" style="fill:#0BACF0"/><use xlink:href="#icon-users" x="0" y="9462.624" width="28" height="20" style="fill:#2A2A2A"/><use xlink:href="#icon-users" x="0" y="9492.624" width="28" height="20" style="fill:#868686"/><use xlink:href="#icon-users" x="0" y="9522.624" width="28" height="20" style="fill:#ffffff"/><use xlink:href="#icon-wapp" x="0" y="9552.624" width="24" height="24" style="fill:#0BACF0"/><use xlink:href="#icon-wapp" x="0" y="9586.624" width="24" height="24" style="fill:#2A2A2A"/><use xlink:href="#icon-wapp" x="0" y="9620.624" width="24" height="24" style="fill:#868686"/><use xlink:href="#icon-wapp" x="0" y="9654.624" width="24" height="24" style="fill:#ffffff"/><use xlink:href="#icon-zoom" x="0" y="9688.624" width="17" height="17" style="fill:#0BACF0"/><use xlink:href="#icon-zoom" x="0" y="9715.624" width="17" height="17" style="fill:#2A2A2A"/><use xlink:href="#icon-zoom" x="0" y="9742.624" width="17" height="17" style="fill:#868686"/><use xlink:href="#icon-zoom" x="0" y="9769.624" width="17" height="17" style="fill:#ffffff"/></svg>